<svg width="30" height="28" viewBox="0 0 30 28" fill="none" xmlns="http://www.w3.org/2000/svg">
<path d="M0.142732 1.30443C0.350232 0.828182 0.662947 0.501515 1.17545 0.22589C1.31441 0.15089 1.45316 0.0763013 1.59211 0.00150966C5.96711 0.00150966 10.3421 0.00150966 14.7171 0.00150966C29.4875 0.00150966 28.1925 -0.0726624 29.0142 0.818796C29.2632 1.089 29.47 1.4311 29.5063 1.63276C29.5407 1.82422 29.5552 7.39817 29.5388 14.0196C29.5288 18.0323 29.5188 22.0455 29.5088 26.0584C29.414 26.2015 29.3194 26.3446 29.2246 26.4878C29.0684 26.724 28.7167 27.0486 28.4434 27.2092C28.2777 27.3067 28.1119 27.4042 27.9463 27.5015C23.554 27.5015 19.1615 27.5015 14.7692 27.5015C10.3769 27.5015 5.98441 27.5015 1.59211 27.5015C1.43336 27.4082 1.27461 27.315 1.11606 27.2217C0.85419 27.0678 0.502732 26.7436 0.334815 26.5013C0.23294 26.3546 0.13128 26.2078 0.0296138 26.0611C0.0221138 21.9955 0.014612 17.9303 0.00690363 13.8646C-0.012888 3.14297 0.00335728 1.62422 0.142732 1.30443ZM25.8457 16.8938C25.8073 16.8557 24.8932 16.8244 23.8144 16.8244C23.1602 16.8244 22.5065 16.8244 21.8525 16.8244C21.8525 17.2759 21.8525 17.7271 21.8525 18.1786C21.8525 18.6301 21.8525 19.0813 21.8525 19.5328C21.0921 19.5328 20.3313 19.5328 19.5709 19.5328C18.8104 19.5328 18.0496 19.5328 17.2892 19.5328C17.2661 19.1769 17.2427 18.8209 17.2196 18.4651C17.1813 17.878 17.1648 15.9209 17.1836 14.1161C17.1946 13.0223 17.2059 11.9286 17.2171 10.8348C16.5834 10.8255 15.9498 10.8159 15.3161 10.8065C14.6823 10.7969 14.0488 10.7875 13.415 10.778C13.415 12.8621 13.415 14.9463 13.415 17.0305C13.415 19.1144 13.415 21.1986 13.415 23.2828C15.4086 23.2828 17.4019 23.2828 19.3955 23.2828C21.3888 23.2828 23.3821 23.2828 25.3757 23.2828C25.4654 23.1759 25.5555 23.0692 25.6455 22.9623C25.7352 22.8553 25.8252 22.7488 25.915 22.6417C25.915 21.6953 25.915 20.749 25.915 19.8025C25.915 18.2409 25.8838 16.9321 25.8457 16.8938ZM22.8117 4.32443C21.8121 4.32443 20.8123 4.32443 19.8125 4.32443C19.4148 4.98818 19.0169 5.65172 18.619 6.31547C17.9627 7.41047 17.4098 8.34797 17.3907 8.3988C17.3711 8.45068 18.3411 8.49109 19.6042 8.49109C20.3536 8.49109 21.1032 8.49109 21.8525 8.49109C21.8525 9.11609 21.8525 9.74109 21.8525 10.3661C21.8525 10.9911 21.8525 11.6161 21.8525 12.2411C22.5123 12.2411 23.1719 12.2411 23.8317 12.2411C24.4915 12.2411 25.1511 12.2411 25.8109 12.2411C25.8109 10.9217 25.8109 9.60213 25.8109 8.28276C25.8109 6.96338 25.8109 5.6438 25.8109 4.32443C24.8111 4.32443 23.8115 4.32443 22.8117 4.32443ZM10.6025 4.32443C8.31086 4.32443 6.0192 4.32443 3.72753 4.32443C3.72753 5.00151 3.72753 5.67859 3.72753 6.35568C3.72753 7.03276 3.72753 7.70984 3.72753 8.38693C4.19128 8.38693 4.65546 8.38693 5.11921 8.38693C5.88462 8.38693 6.72837 8.41672 6.99421 8.45317C7.15546 8.47526 7.31628 8.49734 7.47753 8.51942C7.47753 10.459 7.47753 12.3982 7.47753 14.3375C7.47753 19.7678 7.48982 20.1634 7.65982 20.2655C7.76003 20.3257 8.68586 20.8388 9.71711 21.4061C10.3421 21.7498 10.9671 22.0936 11.5921 22.4373C11.6011 20.113 11.6098 17.7886 11.619 15.4642C11.6277 13.1398 11.6367 10.8155 11.6456 8.49109C12.235 8.49109 12.8246 8.49109 13.414 8.49109C14.0034 8.49109 14.5927 8.49109 15.1823 8.49109C15.274 8.3088 15.3657 8.12651 15.4573 7.94422C15.6086 7.64359 16.125 6.73193 16.605 5.91818C17.0848 5.10464 17.4775 4.41339 17.4775 4.38172C17.4775 4.35026 14.3838 4.32443 10.6025 4.32443Z" fill="#1E2736"/>
<path d="M10.6025 4.32442C14.3838 4.32442 17.4775 4.35026 17.4775 4.38172C17.4775 4.41339 17.0848 5.10464 16.605 5.91818C16.125 6.73193 15.6085 7.64359 15.4573 7.94422C15.3656 8.12651 15.274 8.3088 15.1823 8.49109C14.5927 8.49109 14.0033 8.49109 13.414 8.49109C12.8246 8.49109 12.235 8.49109 11.6456 8.49109C11.6367 10.8155 11.6277 13.1398 11.619 15.4642C11.6098 17.7886 11.601 20.113 11.5921 22.4373C10.9671 22.0936 10.3421 21.7498 9.71709 21.4061C8.68584 20.8388 7.76001 20.3257 7.6598 20.2655C7.4898 20.1634 7.47751 19.7678 7.47751 14.3375C7.47751 12.3982 7.47751 10.459 7.47751 8.51942C7.31626 8.49734 7.15544 8.47526 6.99419 8.45317C6.72835 8.41671 5.8846 8.38692 5.11919 8.38692C4.65544 8.38692 4.19126 8.38692 3.72751 8.38692C3.72751 7.70984 3.72751 7.03276 3.72751 6.35567C3.72751 5.67859 3.72751 5.00151 3.72751 4.32442C6.01918 4.32442 8.31084 4.32442 10.6025 4.32442Z" fill="#F6F5F3"/>
<path d="M25.8456 16.8938C25.8838 16.9321 25.915 18.2409 25.915 19.8025C25.915 20.749 25.915 21.6952 25.915 22.6417C25.8252 22.7488 25.7352 22.8553 25.6454 22.9623C25.5554 23.0692 25.4654 23.1759 25.3756 23.2828C23.3821 23.2828 21.3888 23.2828 19.3954 23.2828C17.4019 23.2828 15.4086 23.2828 13.415 23.2828C13.415 21.1986 13.415 19.1144 13.415 17.0305C13.415 14.9463 13.415 12.8621 13.415 10.778C14.0488 10.7875 14.6823 10.7969 15.3161 10.8065C15.9498 10.8159 16.5833 10.8255 17.2171 10.8348C17.2058 11.9286 17.1946 13.0223 17.1835 14.1161C17.1648 15.9209 17.1813 17.878 17.2196 18.465C17.2427 18.8209 17.266 19.1769 17.2892 19.5328C18.0496 19.5328 18.8104 19.5328 19.5708 19.5328C20.3313 19.5328 21.0921 19.5328 21.8525 19.5328C21.8525 19.0813 21.8525 18.63 21.8525 18.1786C21.8525 17.7271 21.8525 17.2759 21.8525 16.8244C22.5065 16.8244 23.1602 16.8244 23.8144 16.8244C24.8931 16.8244 25.8073 16.8557 25.8456 16.8938Z" fill="#5A667D"/>
<path d="M22.8117 4.32442C23.8115 4.32442 24.8111 4.32442 25.8109 4.32442C25.8109 5.6438 25.8109 6.96338 25.8109 8.28276C25.8109 9.60213 25.8109 10.9217 25.8109 12.2411C25.1511 12.2411 24.4915 12.2411 23.8317 12.2411C23.1719 12.2411 22.5123 12.2411 21.8525 12.2411C21.8525 11.6161 21.8525 10.9911 21.8525 10.3661C21.8525 9.74109 21.8525 9.11609 21.8525 8.49109C21.1032 8.49109 20.3536 8.49109 19.6042 8.49109C18.3411 8.49109 17.3711 8.45068 17.3907 8.3988C17.4098 8.34797 17.9628 7.41047 18.619 6.31547C19.0169 5.65172 19.4148 4.98817 19.8125 4.32442C20.8123 4.32442 21.8121 4.32442 22.8117 4.32442Z" fill="#5A667D"/>
</svg>
