<svg width="150" height="35" viewBox="0 0 150 35" fill="none" xmlns="http://www.w3.org/2000/svg">
<path d="M11.8168 4.125C15.722 4.125 19.627 4.125 23.5323 4.125C23.4277 4.30729 23.3231 4.48958 23.2187 4.67188C23.0464 4.9725 22.2056 6.41396 21.3502 7.875C20.8316 8.76042 20.3131 9.64583 19.7948 10.5312C18.8343 10.5404 17.8743 10.5496 16.9139 10.559C15.9537 10.5683 14.9933 10.5773 14.0331 10.5867C14.0331 14.3362 14.0331 18.0854 14.0331 21.835C14.0331 28.0215 13.9981 33.0831 13.955 33.0829C13.9118 33.0827 13.2206 32.7271 12.4185 32.2929C11.6164 31.8585 10.1048 31.0581 9.05913 30.5142C8.42538 30.1844 7.79183 29.8546 7.15808 29.5248C7.15808 26.3594 7.15808 23.1935 7.15808 20.0281C7.15808 16.8623 7.15808 13.6969 7.15808 10.5312C5.96892 10.5312 4.77975 10.5312 3.59038 10.5312C2.40121 10.5312 1.21183 10.5312 0.0226679 10.5312C0.0162096 9.87146 0.0097525 9.21187 0.00308583 8.55208C-0.00753917 7.46354 0.0101682 6.02208 0.0424599 5.34896C0.0622515 4.94104 0.0818342 4.53292 0.101626 4.125C4.00663 4.125 7.91183 4.125 11.8168 4.125Z" fill="#F6F5F3"/>
<path d="M22.667 4.625C22.3655 5.14502 21.6488 6.37545 20.9189 7.62207C20.4482 8.42583 19.9764 9.2294 19.5059 10.0332C18.6403 10.0415 17.7749 10.0501 16.9092 10.0586C16.4291 10.0633 15.9489 10.0687 15.4688 10.0732C14.9886 10.0778 14.5084 10.0822 14.0283 10.0869L13.5332 10.0918V21.835C13.5332 24.9274 13.5239 27.7382 13.5098 29.7754C13.5027 30.7942 13.4947 31.6187 13.4854 32.1875C13.4848 32.2231 13.483 32.2575 13.4824 32.291C13.2429 32.1658 12.9572 32.0164 12.6562 31.8535C11.8511 31.4175 10.3374 30.6152 9.29004 30.0703C8.74481 29.7866 8.20266 29.504 7.6582 29.2207V10.0312H0.517578C0.512726 9.53654 0.507929 9.04169 0.50293 8.54688C0.495001 7.7341 0.502669 6.72644 0.520508 5.99512L0.541992 5.37305C0.551889 5.16906 0.561448 4.96469 0.571289 4.76074C0.573473 4.71549 0.575941 4.67025 0.578125 4.625H22.667Z" stroke="black" stroke-opacity="0.49"/>
<path d="M34.5539 23.7083C35.6998 23.7083 36.8456 23.7083 37.9914 23.7083C37.9914 25.3262 37.9914 26.9446 37.9914 28.5625C37.9914 30.1806 37.9914 31.7985 37.9914 33.4167C37.8733 33.5348 37.7552 33.6529 37.6373 33.7708C37.5191 33.8887 37.401 34.0069 37.2831 34.125C33.8944 34.125 30.5054 34.125 27.1164 34.125C23.7277 34.125 20.3387 34.125 16.9498 34.125C16.9498 30.809 16.9498 27.4931 16.9498 24.1771C16.9498 20.861 16.9498 17.5452 16.9498 14.2292C17.9914 14.2292 19.0331 14.2292 20.0748 14.2292C21.1164 14.2292 22.1581 14.2292 23.1998 14.2292C23.1998 16.5729 23.1998 18.9167 23.1998 21.2604C23.1998 23.6042 23.1998 25.9479 23.1998 28.2917C24.5194 28.2917 25.8385 28.2917 27.1581 28.2917C28.4777 28.2917 29.7969 28.2917 31.1164 28.2917C31.1164 27.5277 31.1164 26.764 31.1164 26C31.1164 25.236 31.1164 24.4723 31.1164 23.7083C32.2623 23.7083 33.4081 23.7083 34.5539 23.7083Z" fill="#6D788D"/>
<path d="M22.6998 14.7292V28.7917H31.6168V24.2087H37.4918V33.2096C37.4225 33.2788 37.3529 33.3475 37.2838 33.4167C37.2145 33.4858 37.1459 33.5555 37.0767 33.6247H17.4498V14.7292H22.6998Z" stroke="black" stroke-opacity="0.12"/>
<path d="M32.4898 4.125C34.2889 4.125 36.0881 4.125 37.8873 4.125C37.8873 6.20833 37.8873 8.29166 37.8873 10.375C37.8873 12.4583 37.8873 14.5417 37.8873 16.625C36.7593 16.625 35.6312 16.625 34.5033 16.625C33.3756 16.625 32.2475 16.625 31.1196 16.625C31.1104 15.6094 31.101 14.5937 31.0918 13.5781C31.0829 12.5625 31.0735 11.5469 31.0643 10.5312C30.4218 10.5285 29.7798 10.5262 29.1373 10.5235C28.0775 10.5192 26.3583 10.5075 25.317 10.4975C24.6862 10.4912 24.0552 10.4852 23.4241 10.4792C23.9806 9.53541 24.5371 8.59145 25.0935 7.6477C26.0116 6.09041 26.8371 4.66083 26.9277 4.47062C26.9827 4.35541 27.0375 4.24021 27.0925 4.125C28.8916 4.125 30.6908 4.125 32.4898 4.125Z" fill="#E5E6E8"/>
<path d="M37.387 4.625V16.125H31.6146C31.6069 15.2783 31.5996 14.409 31.5921 13.5732C31.5831 12.5577 31.5739 11.5417 31.5648 10.5264L31.5599 10.0332L31.0667 10.0312L29.139 10.0234C28.08 10.0191 26.3618 10.0071 25.3216 9.99707C24.9792 9.99368 24.6367 9.99061 24.2943 9.9873C24.4259 9.76395 24.5581 9.54074 24.6898 9.31738C24.968 8.84548 25.2455 8.3732 25.5237 7.90136C26.4328 6.35944 27.2762 4.90171 27.3792 4.68554C27.3888 4.66543 27.3979 4.6451 27.4075 4.625H37.387Z" stroke="black" stroke-opacity="0.09"/>
<path d="M56.4756 29V23.9091H59.906V24.7965H57.5519V26.0096H59.7295V26.897H57.5519V28.1126H59.9159V29H56.4756ZM67.6099 23.9091V29H66.6802L64.4653 25.7958H64.428V29H63.3517V23.9091H64.2963L66.4937 27.1108H66.5385V23.9091H67.6099ZM74.4649 25.5547C74.4301 25.4337 74.3812 25.3268 74.3182 25.234C74.2552 25.1396 74.1782 25.06 74.087 24.9954C73.9975 24.9291 73.8948 24.8786 73.7788 24.8438C73.6644 24.8089 73.5377 24.7915 73.3985 24.7915C73.1383 24.7915 72.9096 24.8562 72.7124 24.9854C72.5168 25.1147 72.3644 25.3028 72.255 25.5497C72.1456 25.795 72.0909 26.0949 72.0909 26.4496C72.0909 26.8042 72.1448 27.1058 72.2525 27.3544C72.3602 27.603 72.5127 27.7927 72.7099 27.9237C72.9071 28.0529 73.1399 28.1175 73.4084 28.1175C73.652 28.1175 73.86 28.0745 74.0323 27.9883C74.2063 27.9004 74.3389 27.777 74.4301 27.6179C74.5229 27.4588 74.5693 27.2707 74.5693 27.0536L74.788 27.0859H73.4755V26.2756H75.6058V26.9169C75.6058 27.3643 75.5114 27.7488 75.3225 28.0703C75.1335 28.3902 74.8734 28.6371 74.5419 28.8111C74.2105 28.9834 73.831 29.0696 73.4034 29.0696C72.9261 29.0696 72.5069 28.9644 72.1456 28.7539C71.7843 28.5418 71.5026 28.241 71.3004 27.8516C71.0999 27.4605 70.9997 26.9964 70.9997 26.4595C70.9997 26.0469 71.0593 25.679 71.1786 25.3558C71.2996 25.031 71.4686 24.7559 71.6857 24.5305C71.9028 24.3052 72.1556 24.1336 72.4439 24.016C72.7323 23.8983 73.0446 23.8395 73.3811 23.8395C73.6694 23.8395 73.9379 23.8817 74.1864 23.9663C74.435 24.0491 74.6554 24.1668 74.8477 24.3192C75.0416 24.4717 75.1998 24.6532 75.3225 24.8636C75.4451 25.0724 75.5238 25.3028 75.5586 25.5547H74.4649ZM80.0807 23.9091V29H79.0043V23.9091H80.0807ZM87.8144 23.9091V29H86.8847L84.6699 25.7958H84.6326V29H83.5563V23.9091H84.5009L86.6983 27.1108H86.743V23.9091H87.8144ZM91.2937 29V23.9091H94.7241V24.7965H92.3701V26.0096H94.5476V26.897H92.3701V28.1126H94.7341V29H91.2937ZM98.1699 29V23.9091H101.6V24.7965H99.2462V26.0096H101.424V26.897H99.2462V28.1126H101.61V29H98.1699ZM105.046 29V23.9091H107.055C107.439 23.9091 107.767 23.9779 108.039 24.1154C108.312 24.2513 108.52 24.4444 108.663 24.6946C108.807 24.9432 108.879 25.2357 108.879 25.5721C108.879 25.9102 108.806 26.201 108.66 26.4446C108.514 26.6866 108.303 26.8722 108.026 27.0014C107.751 27.1307 107.418 27.1953 107.027 27.1953H105.682V26.3303H106.853C107.059 26.3303 107.229 26.3021 107.365 26.2457C107.501 26.1894 107.602 26.1049 107.668 25.9922C107.736 25.8795 107.77 25.7395 107.77 25.5721C107.77 25.4031 107.736 25.2605 107.668 25.1445C107.602 25.0285 107.5 24.9407 107.363 24.881C107.227 24.8197 107.055 24.7891 106.848 24.7891H106.122V29H105.046ZM107.795 26.6832L109.061 29H107.872L106.634 26.6832H107.795ZM113.306 23.9091V29H112.23V23.9091H113.306ZM121.04 23.9091V29H120.11L117.895 25.7958H117.858V29H116.782V23.9091H117.726L119.924 27.1108H119.968V23.9091H121.04ZM127.895 25.5547C127.86 25.4337 127.811 25.3268 127.748 25.234C127.685 25.1396 127.608 25.06 127.517 24.9954C127.427 24.9291 127.325 24.8786 127.209 24.8438C127.094 24.8089 126.968 24.7915 126.828 24.7915C126.568 24.7915 126.34 24.8562 126.142 24.9854C125.947 25.1147 125.794 25.3028 125.685 25.5497C125.576 25.795 125.521 26.0949 125.521 26.4496C125.521 26.8042 125.575 27.1058 125.682 27.3544C125.79 27.603 125.943 27.7927 126.14 27.9237C126.337 28.0529 126.57 28.1175 126.838 28.1175C127.082 28.1175 127.29 28.0745 127.462 27.9883C127.636 27.9004 127.769 27.777 127.86 27.6179C127.953 27.4588 127.999 27.2707 127.999 27.0536L128.218 27.0859H126.905V26.2756H129.036V26.9169C129.036 27.3643 128.941 27.7488 128.752 28.0703C128.563 28.3902 128.303 28.6371 127.972 28.8111C127.64 28.9834 127.261 29.0696 126.833 29.0696C126.356 29.0696 125.937 28.9644 125.576 28.7539C125.214 28.5418 124.933 28.241 124.73 27.8516C124.53 27.4605 124.43 26.9964 124.43 26.4595C124.43 26.0469 124.489 25.679 124.609 25.3558C124.73 25.031 124.899 24.7559 125.116 24.5305C125.333 24.3052 125.586 24.1336 125.874 24.016C126.162 23.8983 126.475 23.8395 126.811 23.8395C127.099 23.8395 127.368 23.8817 127.616 23.9663C127.865 24.0491 128.085 24.1668 128.278 24.3192C128.472 24.4717 128.63 24.6532 128.752 24.8636C128.875 25.0724 128.954 25.3028 128.989 25.5547H127.895Z" fill="#E5E5E5"/>
<mask id="path-8-outside-1_1_3029" maskUnits="userSpaceOnUse" x="44.0331" y="5" width="105" height="15" fill="black">
<rect fill="white" x="44.0331" y="5" width="105" height="15"/>
<path d="M44.6368 8.79155V6.63636H54.7909V8.79155H51.0057V19H48.4219V8.79155H44.6368ZM59.126 19.1811C58.1721 19.1811 57.3511 18.9879 56.6629 18.6016C55.9787 18.2112 55.4515 17.6598 55.0812 16.9474C54.7109 16.2311 54.5258 15.3839 54.5258 14.4059C54.5258 13.4521 54.7109 12.6149 55.0812 11.8945C55.4515 11.1741 55.9727 10.6127 56.6448 10.2102C57.3209 9.80776 58.1138 9.60653 59.0233 9.60653C59.6351 9.60653 60.2046 9.70514 60.7318 9.90234C61.263 10.0955 61.7259 10.3873 62.1203 10.7777C62.5187 11.1681 62.8286 11.6591 63.05 12.2507C63.2713 12.8383 63.382 13.5265 63.382 14.3153V15.0217H55.5521V13.4279H60.9612C60.9612 13.0576 60.8807 12.7296 60.7197 12.4439C60.5587 12.1581 60.3354 11.9348 60.0496 11.7738C59.7679 11.6088 59.4399 11.5263 59.0656 11.5263C58.6752 11.5263 58.3291 11.6168 58.0272 11.7979C57.7294 11.975 57.496 12.2145 57.3269 12.5163C57.1579 12.8142 57.0714 13.1462 57.0674 13.5124V15.0277C57.0674 15.4865 57.1519 15.8829 57.3209 16.217C57.494 16.551 57.7375 16.8086 58.0514 16.9897C58.3653 17.1708 58.7376 17.2614 59.1682 17.2614C59.454 17.2614 59.7156 17.2211 59.953 17.1406C60.1905 17.0601 60.3937 16.9394 60.5627 16.7784C60.7318 16.6174 60.8606 16.4202 60.9491 16.1868L63.3277 16.3438C63.2069 16.9152 62.9594 17.4143 62.5851 17.8409C62.2149 18.2635 61.7359 18.5935 61.1483 18.831C60.5648 19.0644 59.8906 19.1811 59.126 19.1811ZM69.0799 19.1811C68.1301 19.1811 67.3131 18.9799 66.6289 18.5774C65.9487 18.1709 65.4255 17.6075 65.0593 16.8871C64.6971 16.1667 64.516 15.3376 64.516 14.3999C64.516 13.45 64.6991 12.617 65.0653 11.9006C65.4356 11.1802 65.9608 10.6187 66.641 10.2163C67.3211 9.80978 68.1301 9.60653 69.0678 9.60653C69.8768 9.60653 70.5851 9.75343 71.1928 10.0472C71.8005 10.341 72.2815 10.7536 72.6356 11.2848C72.9898 11.8161 73.185 12.4399 73.2212 13.1562H70.7944C70.726 12.6934 70.5449 12.3211 70.2511 12.0394C69.9613 11.7537 69.581 11.6108 69.1101 11.6108C68.7116 11.6108 68.3635 11.7195 68.0657 11.9368C67.7719 12.1501 67.5425 12.462 67.3775 12.8725C67.2125 13.283 67.13 13.7801 67.13 14.3636C67.13 14.9553 67.2105 15.4583 67.3714 15.8729C67.5364 16.2874 67.7679 16.6033 68.0657 16.8207C68.3635 17.038 68.7116 17.1467 69.1101 17.1467C69.4039 17.1467 69.6675 17.0863 69.9009 16.9656C70.1384 16.8448 70.3336 16.6697 70.4865 16.4403C70.6435 16.2069 70.7461 15.9272 70.7944 15.6012H73.2212C73.181 16.3095 72.9878 16.9334 72.6417 17.4727C72.2996 18.0079 71.8267 18.4265 71.223 18.7283C70.6193 19.0302 69.9049 19.1811 69.0799 19.1811ZM77.2695 13.6392V19H74.6978V6.63636H77.1971V11.3633H77.3058C77.515 10.8159 77.8531 10.3873 78.32 10.0774C78.7868 9.76349 79.3724 9.60653 80.0767 9.60653C80.7206 9.60653 81.2821 9.7474 81.761 10.0291C82.244 10.3068 82.6183 10.7073 82.8839 11.2305C83.1535 11.7496 83.2863 12.3714 83.2823 13.0959V19H80.7106V13.5547C80.7146 12.9832 80.5697 12.5385 80.2759 12.2205C79.9861 11.9026 79.5797 11.7436 79.0565 11.7436C78.7063 11.7436 78.3964 11.8181 78.1268 11.967C77.8611 12.1159 77.6519 12.3332 77.4989 12.619C77.35 12.9007 77.2736 13.2408 77.2695 13.6392ZM96.0932 10.9648H93.4491C93.4008 10.6228 93.3022 10.3189 93.1532 10.0533C93.0043 9.78362 92.8132 9.55421 92.5797 9.36506C92.3463 9.1759 92.0767 9.03101 91.7708 8.9304C91.4689 8.82978 91.1409 8.77947 90.7868 8.77947C90.1468 8.77947 89.5894 8.93845 89.1145 9.25639C88.6396 9.57031 88.2714 10.0291 88.0098 10.6328C87.7482 11.2325 87.6174 11.9609 87.6174 12.8182C87.6174 13.6996 87.7482 14.4401 88.0098 15.0398C88.2754 15.6394 88.6457 16.0922 89.1206 16.3981C89.5955 16.704 90.1448 16.8569 90.7687 16.8569C91.1188 16.8569 91.4428 16.8106 91.7406 16.718C92.0424 16.6255 92.3101 16.4906 92.5435 16.3136C92.7769 16.1325 92.9701 15.9131 93.1231 15.6555C93.28 15.398 93.3887 15.1042 93.4491 14.7741L96.0932 14.7862C96.0248 15.3537 95.8538 15.901 95.5801 16.4283C95.3104 16.9515 94.9462 17.4203 94.4874 17.8349C94.0326 18.2454 93.4893 18.5714 92.8574 18.8129C92.2296 19.0503 91.5192 19.169 90.7264 19.169C89.6236 19.169 88.6376 18.9195 87.7683 18.4205C86.903 17.9214 86.2188 17.199 85.7157 16.2532C85.2167 15.3074 84.9672 14.1624 84.9672 12.8182C84.9672 11.4699 85.2207 10.3229 85.7278 9.37713C86.2349 8.43134 86.9231 7.71094 87.7924 7.21591C88.6618 6.71686 89.6397 6.46733 90.7264 6.46733C91.4428 6.46733 92.1068 6.56794 92.7186 6.76918C93.3343 6.97041 93.8797 7.2642 94.3546 7.65057C94.8295 8.03291 95.2159 8.50178 95.5137 9.05717C95.8155 9.61257 96.0087 10.2485 96.0932 10.9648ZM101.939 19.1811C101.001 19.1811 100.19 18.9819 99.5061 18.5835C98.826 18.181 98.3008 17.6216 97.9305 16.9052C97.5602 16.1848 97.3751 15.3497 97.3751 14.3999C97.3751 13.442 97.5602 12.6049 97.9305 11.8885C98.3008 11.1681 98.826 10.6087 99.5061 10.2102C100.19 9.80776 101.001 9.60653 101.939 9.60653C102.877 9.60653 103.686 9.80776 104.366 10.2102C105.05 10.6087 105.577 11.1681 105.948 11.8885C106.318 12.6049 106.503 13.442 106.503 14.3999C106.503 15.3497 106.318 16.1848 105.948 16.9052C105.577 17.6216 105.05 18.181 104.366 18.5835C103.686 18.9819 102.877 19.1811 101.939 19.1811ZM101.951 17.1889C102.378 17.1889 102.734 17.0682 103.02 16.8267C103.305 16.5812 103.521 16.2472 103.666 15.8246C103.815 15.402 103.889 14.921 103.889 14.3817C103.889 13.8424 103.815 13.3615 103.666 12.9389C103.521 12.5163 103.305 12.1823 103.02 11.9368C102.734 11.6913 102.378 11.5685 101.951 11.5685C101.52 11.5685 101.158 11.6913 100.864 11.9368C100.575 12.1823 100.355 12.5163 100.206 12.9389C100.062 13.3615 99.9891 13.8424 99.9891 14.3817C99.9891 14.921 100.062 15.402 100.206 15.8246C100.355 16.2472 100.575 16.5812 100.864 16.8267C101.158 17.0682 101.52 17.1889 101.951 17.1889ZM110.577 13.6392V19H108.005V9.72727H110.456V11.3633H110.565C110.77 10.824 111.114 10.3974 111.597 10.0835C112.08 9.76551 112.666 9.60653 113.354 9.60653C113.998 9.60653 114.559 9.7474 115.038 10.0291C115.517 10.3108 115.889 10.7133 116.155 11.2365C116.421 11.7557 116.553 12.3755 116.553 13.0959V19H113.982V13.5547C113.986 12.9872 113.841 12.5445 113.547 12.2266C113.253 11.9046 112.849 11.7436 112.334 11.7436C111.988 11.7436 111.682 11.8181 111.416 11.967C111.154 12.1159 110.949 12.3332 110.8 12.619C110.655 12.9007 110.581 13.2408 110.577 13.6392ZM126.126 12.3714L123.771 12.5163C123.731 12.3151 123.644 12.134 123.512 11.973C123.379 11.808 123.204 11.6772 122.986 11.5806C122.773 11.48 122.517 11.4297 122.22 11.4297C121.821 11.4297 121.485 11.5142 121.212 11.6832C120.938 11.8482 120.801 12.0696 120.801 12.3473C120.801 12.5687 120.89 12.7558 121.067 12.9087C121.244 13.0617 121.548 13.1844 121.978 13.277L123.656 13.6151C124.558 13.8002 125.23 14.098 125.673 14.5085C126.116 14.919 126.337 15.4583 126.337 16.1264C126.337 16.7341 126.158 17.2674 125.8 17.7262C125.445 18.185 124.958 18.5432 124.339 18.8008C123.723 19.0543 123.013 19.1811 122.208 19.1811C120.98 19.1811 120.002 18.9255 119.274 18.4144C118.549 17.8993 118.125 17.199 118 16.3136L120.529 16.1808C120.606 16.555 120.791 16.8408 121.085 17.038C121.379 17.2312 121.755 17.3278 122.214 17.3278C122.664 17.3278 123.027 17.2412 123.3 17.0682C123.578 16.8911 123.719 16.6637 123.723 16.386C123.719 16.1526 123.62 15.9614 123.427 15.8125C123.234 15.6596 122.936 15.5429 122.534 15.4624L120.928 15.1424C120.022 14.9613 119.348 14.6474 118.905 14.2006C118.467 13.7539 118.247 13.1844 118.247 12.4922C118.247 11.8965 118.408 11.3834 118.73 10.9528C119.056 10.5221 119.513 10.1901 120.101 9.95668C120.692 9.72325 121.385 9.60653 122.177 9.60653C123.349 9.60653 124.27 9.85405 124.942 10.3491C125.618 10.8441 126.013 11.5182 126.126 12.3714ZM133.733 15.0518V9.72727H136.304V19H133.835V17.3157H133.739C133.529 17.859 133.181 18.2957 132.694 18.6257C132.211 18.9557 131.622 19.1207 130.925 19.1207C130.306 19.1207 129.76 18.9799 129.289 18.6982C128.819 18.4164 128.45 18.016 128.185 17.4968C127.923 16.9776 127.79 16.3558 127.786 15.6314V9.72727H130.358V15.1726C130.362 15.7199 130.509 16.1526 130.799 16.4705C131.088 16.7885 131.477 16.9474 131.964 16.9474C132.274 16.9474 132.563 16.877 132.833 16.7362C133.103 16.5913 133.32 16.378 133.485 16.0962C133.654 15.8145 133.737 15.4664 133.733 15.0518ZM140.763 6.63636V19H138.191V6.63636H140.763ZM147.585 9.72727V11.6591H142.001V9.72727H147.585ZM143.269 7.50568H145.841V16.1506C145.841 16.388 145.877 16.5732 145.949 16.706C146.022 16.8348 146.123 16.9253 146.251 16.9776C146.384 17.0299 146.537 17.0561 146.71 17.0561C146.831 17.0561 146.952 17.046 147.072 17.0259C147.193 17.0018 147.286 16.9837 147.35 16.9716L147.755 18.8853C147.626 18.9255 147.445 18.9718 147.211 19.0241C146.978 19.0805 146.694 19.1147 146.36 19.1268C145.74 19.1509 145.197 19.0684 144.73 18.8793C144.267 18.6901 143.907 18.3963 143.649 17.9979C143.392 17.5994 143.265 17.0964 143.269 16.4886V7.50568Z"/>
</mask>
<path d="M44.6368 8.79155V6.63636H54.7909V8.79155H51.0057V19H48.4219V8.79155H44.6368ZM59.126 19.1811C58.1721 19.1811 57.3511 18.9879 56.6629 18.6016C55.9787 18.2112 55.4515 17.6598 55.0812 16.9474C54.7109 16.2311 54.5258 15.3839 54.5258 14.4059C54.5258 13.4521 54.7109 12.6149 55.0812 11.8945C55.4515 11.1741 55.9727 10.6127 56.6448 10.2102C57.3209 9.80776 58.1138 9.60653 59.0233 9.60653C59.6351 9.60653 60.2046 9.70514 60.7318 9.90234C61.263 10.0955 61.7259 10.3873 62.1203 10.7777C62.5187 11.1681 62.8286 11.6591 63.05 12.2507C63.2713 12.8383 63.382 13.5265 63.382 14.3153V15.0217H55.5521V13.4279H60.9612C60.9612 13.0576 60.8807 12.7296 60.7197 12.4439C60.5587 12.1581 60.3354 11.9348 60.0496 11.7738C59.7679 11.6088 59.4399 11.5263 59.0656 11.5263C58.6752 11.5263 58.3291 11.6168 58.0272 11.7979C57.7294 11.975 57.496 12.2145 57.3269 12.5163C57.1579 12.8142 57.0714 13.1462 57.0674 13.5124V15.0277C57.0674 15.4865 57.1519 15.8829 57.3209 16.217C57.494 16.551 57.7375 16.8086 58.0514 16.9897C58.3653 17.1708 58.7376 17.2614 59.1682 17.2614C59.454 17.2614 59.7156 17.2211 59.953 17.1406C60.1905 17.0601 60.3937 16.9394 60.5627 16.7784C60.7318 16.6174 60.8606 16.4202 60.9491 16.1868L63.3277 16.3438C63.2069 16.9152 62.9594 17.4143 62.5851 17.8409C62.2149 18.2635 61.7359 18.5935 61.1483 18.831C60.5648 19.0644 59.8906 19.1811 59.126 19.1811ZM69.0799 19.1811C68.1301 19.1811 67.3131 18.9799 66.6289 18.5774C65.9487 18.1709 65.4255 17.6075 65.0593 16.8871C64.6971 16.1667 64.516 15.3376 64.516 14.3999C64.516 13.45 64.6991 12.617 65.0653 11.9006C65.4356 11.1802 65.9608 10.6187 66.641 10.2163C67.3211 9.80978 68.1301 9.60653 69.0678 9.60653C69.8768 9.60653 70.5851 9.75343 71.1928 10.0472C71.8005 10.341 72.2815 10.7536 72.6356 11.2848C72.9898 11.8161 73.185 12.4399 73.2212 13.1562H70.7944C70.726 12.6934 70.5449 12.3211 70.2511 12.0394C69.9613 11.7537 69.581 11.6108 69.1101 11.6108C68.7116 11.6108 68.3635 11.7195 68.0657 11.9368C67.7719 12.1501 67.5425 12.462 67.3775 12.8725C67.2125 13.283 67.13 13.7801 67.13 14.3636C67.13 14.9553 67.2105 15.4583 67.3714 15.8729C67.5364 16.2874 67.7679 16.6033 68.0657 16.8207C68.3635 17.038 68.7116 17.1467 69.1101 17.1467C69.4039 17.1467 69.6675 17.0863 69.9009 16.9656C70.1384 16.8448 70.3336 16.6697 70.4865 16.4403C70.6435 16.2069 70.7461 15.9272 70.7944 15.6012H73.2212C73.181 16.3095 72.9878 16.9334 72.6417 17.4727C72.2996 18.0079 71.8267 18.4265 71.223 18.7283C70.6193 19.0302 69.9049 19.1811 69.0799 19.1811ZM77.2695 13.6392V19H74.6978V6.63636H77.1971V11.3633H77.3058C77.515 10.8159 77.8531 10.3873 78.32 10.0774C78.7868 9.76349 79.3724 9.60653 80.0767 9.60653C80.7206 9.60653 81.2821 9.7474 81.761 10.0291C82.244 10.3068 82.6183 10.7073 82.8839 11.2305C83.1535 11.7496 83.2863 12.3714 83.2823 13.0959V19H80.7106V13.5547C80.7146 12.9832 80.5697 12.5385 80.2759 12.2205C79.9861 11.9026 79.5797 11.7436 79.0565 11.7436C78.7063 11.7436 78.3964 11.8181 78.1268 11.967C77.8611 12.1159 77.6519 12.3332 77.4989 12.619C77.35 12.9007 77.2736 13.2408 77.2695 13.6392ZM96.0932 10.9648H93.4491C93.4008 10.6228 93.3022 10.3189 93.1532 10.0533C93.0043 9.78362 92.8132 9.55421 92.5797 9.36506C92.3463 9.1759 92.0767 9.03101 91.7708 8.9304C91.4689 8.82978 91.1409 8.77947 90.7868 8.77947C90.1468 8.77947 89.5894 8.93845 89.1145 9.25639C88.6396 9.57031 88.2714 10.0291 88.0098 10.6328C87.7482 11.2325 87.6174 11.9609 87.6174 12.8182C87.6174 13.6996 87.7482 14.4401 88.0098 15.0398C88.2754 15.6394 88.6457 16.0922 89.1206 16.3981C89.5955 16.704 90.1448 16.8569 90.7687 16.8569C91.1188 16.8569 91.4428 16.8106 91.7406 16.718C92.0424 16.6255 92.3101 16.4906 92.5435 16.3136C92.7769 16.1325 92.9701 15.9131 93.1231 15.6555C93.28 15.398 93.3887 15.1042 93.4491 14.7741L96.0932 14.7862C96.0248 15.3537 95.8538 15.901 95.5801 16.4283C95.3104 16.9515 94.9462 17.4203 94.4874 17.8349C94.0326 18.2454 93.4893 18.5714 92.8574 18.8129C92.2296 19.0503 91.5192 19.169 90.7264 19.169C89.6236 19.169 88.6376 18.9195 87.7683 18.4205C86.903 17.9214 86.2188 17.199 85.7157 16.2532C85.2167 15.3074 84.9672 14.1624 84.9672 12.8182C84.9672 11.4699 85.2207 10.3229 85.7278 9.37713C86.2349 8.43134 86.9231 7.71094 87.7924 7.21591C88.6618 6.71686 89.6397 6.46733 90.7264 6.46733C91.4428 6.46733 92.1068 6.56794 92.7186 6.76918C93.3343 6.97041 93.8797 7.2642 94.3546 7.65057C94.8295 8.03291 95.2159 8.50178 95.5137 9.05717C95.8155 9.61257 96.0087 10.2485 96.0932 10.9648ZM101.939 19.1811C101.001 19.1811 100.19 18.9819 99.5061 18.5835C98.826 18.181 98.3008 17.6216 97.9305 16.9052C97.5602 16.1848 97.3751 15.3497 97.3751 14.3999C97.3751 13.442 97.5602 12.6049 97.9305 11.8885C98.3008 11.1681 98.826 10.6087 99.5061 10.2102C100.19 9.80776 101.001 9.60653 101.939 9.60653C102.877 9.60653 103.686 9.80776 104.366 10.2102C105.05 10.6087 105.577 11.1681 105.948 11.8885C106.318 12.6049 106.503 13.442 106.503 14.3999C106.503 15.3497 106.318 16.1848 105.948 16.9052C105.577 17.6216 105.05 18.181 104.366 18.5835C103.686 18.9819 102.877 19.1811 101.939 19.1811ZM101.951 17.1889C102.378 17.1889 102.734 17.0682 103.02 16.8267C103.305 16.5812 103.521 16.2472 103.666 15.8246C103.815 15.402 103.889 14.921 103.889 14.3817C103.889 13.8424 103.815 13.3615 103.666 12.9389C103.521 12.5163 103.305 12.1823 103.02 11.9368C102.734 11.6913 102.378 11.5685 101.951 11.5685C101.52 11.5685 101.158 11.6913 100.864 11.9368C100.575 12.1823 100.355 12.5163 100.206 12.9389C100.062 13.3615 99.9891 13.8424 99.9891 14.3817C99.9891 14.921 100.062 15.402 100.206 15.8246C100.355 16.2472 100.575 16.5812 100.864 16.8267C101.158 17.0682 101.52 17.1889 101.951 17.1889ZM110.577 13.6392V19H108.005V9.72727H110.456V11.3633H110.565C110.77 10.824 111.114 10.3974 111.597 10.0835C112.08 9.76551 112.666 9.60653 113.354 9.60653C113.998 9.60653 114.559 9.7474 115.038 10.0291C115.517 10.3108 115.889 10.7133 116.155 11.2365C116.421 11.7557 116.553 12.3755 116.553 13.0959V19H113.982V13.5547C113.986 12.9872 113.841 12.5445 113.547 12.2266C113.253 11.9046 112.849 11.7436 112.334 11.7436C111.988 11.7436 111.682 11.8181 111.416 11.967C111.154 12.1159 110.949 12.3332 110.8 12.619C110.655 12.9007 110.581 13.2408 110.577 13.6392ZM126.126 12.3714L123.771 12.5163C123.731 12.3151 123.644 12.134 123.512 11.973C123.379 11.808 123.204 11.6772 122.986 11.5806C122.773 11.48 122.517 11.4297 122.22 11.4297C121.821 11.4297 121.485 11.5142 121.212 11.6832C120.938 11.8482 120.801 12.0696 120.801 12.3473C120.801 12.5687 120.89 12.7558 121.067 12.9087C121.244 13.0617 121.548 13.1844 121.978 13.277L123.656 13.6151C124.558 13.8002 125.23 14.098 125.673 14.5085C126.116 14.919 126.337 15.4583 126.337 16.1264C126.337 16.7341 126.158 17.2674 125.8 17.7262C125.445 18.185 124.958 18.5432 124.339 18.8008C123.723 19.0543 123.013 19.1811 122.208 19.1811C120.98 19.1811 120.002 18.9255 119.274 18.4144C118.549 17.8993 118.125 17.199 118 16.3136L120.529 16.1808C120.606 16.555 120.791 16.8408 121.085 17.038C121.379 17.2312 121.755 17.3278 122.214 17.3278C122.664 17.3278 123.027 17.2412 123.3 17.0682C123.578 16.8911 123.719 16.6637 123.723 16.386C123.719 16.1526 123.62 15.9614 123.427 15.8125C123.234 15.6596 122.936 15.5429 122.534 15.4624L120.928 15.1424C120.022 14.9613 119.348 14.6474 118.905 14.2006C118.467 13.7539 118.247 13.1844 118.247 12.4922C118.247 11.8965 118.408 11.3834 118.73 10.9528C119.056 10.5221 119.513 10.1901 120.101 9.95668C120.692 9.72325 121.385 9.60653 122.177 9.60653C123.349 9.60653 124.27 9.85405 124.942 10.3491C125.618 10.8441 126.013 11.5182 126.126 12.3714ZM133.733 15.0518V9.72727H136.304V19H133.835V17.3157H133.739C133.529 17.859 133.181 18.2957 132.694 18.6257C132.211 18.9557 131.622 19.1207 130.925 19.1207C130.306 19.1207 129.76 18.9799 129.289 18.6982C128.819 18.4164 128.45 18.016 128.185 17.4968C127.923 16.9776 127.79 16.3558 127.786 15.6314V9.72727H130.358V15.1726C130.362 15.7199 130.509 16.1526 130.799 16.4705C131.088 16.7885 131.477 16.9474 131.964 16.9474C132.274 16.9474 132.563 16.877 132.833 16.7362C133.103 16.5913 133.32 16.378 133.485 16.0962C133.654 15.8145 133.737 15.4664 133.733 15.0518ZM140.763 6.63636V19H138.191V6.63636H140.763ZM147.585 9.72727V11.6591H142.001V9.72727H147.585ZM143.269 7.50568H145.841V16.1506C145.841 16.388 145.877 16.5732 145.949 16.706C146.022 16.8348 146.123 16.9253 146.251 16.9776C146.384 17.0299 146.537 17.0561 146.71 17.0561C146.831 17.0561 146.952 17.046 147.072 17.0259C147.193 17.0018 147.286 16.9837 147.35 16.9716L147.755 18.8853C147.626 18.9255 147.445 18.9718 147.211 19.0241C146.978 19.0805 146.694 19.1147 146.36 19.1268C145.74 19.1509 145.197 19.0684 144.73 18.8793C144.267 18.6901 143.907 18.3963 143.649 17.9979C143.392 17.5994 143.265 17.0964 143.269 16.4886V7.50568Z" fill="#E5E5E5"/>
<path d="M44.6368 8.79155H44.1368V9.29155H44.6368V8.79155ZM44.6368 6.63636V6.13636H44.1368V6.63636H44.6368ZM54.7909 6.63636H55.2909V6.13636H54.7909V6.63636ZM54.7909 8.79155V9.29155H55.2909V8.79155H54.7909ZM51.0057 8.79155V8.29155H50.5057V8.79155H51.0057ZM51.0057 19V19.5H51.5057V19H51.0057ZM48.4219 19H47.9219V19.5H48.4219V19ZM48.4219 8.79155H48.9219V8.29155H48.4219V8.79155ZM44.6368 8.79155H45.1368V6.63636H44.6368H44.1368V8.79155H44.6368ZM44.6368 6.63636V7.13636H54.7909V6.63636V6.13636H44.6368V6.63636ZM54.7909 6.63636H54.2909V8.79155H54.7909H55.2909V6.63636H54.7909ZM54.7909 8.79155V8.29155H51.0057V8.79155V9.29155H54.7909V8.79155ZM51.0057 8.79155H50.5057V19H51.0057H51.5057V8.79155H51.0057ZM51.0057 19V18.5H48.4219V19V19.5H51.0057V19ZM48.4219 19H48.9219V8.79155H48.4219H47.9219V19H48.4219ZM48.4219 8.79155V8.29155H44.6368V8.79155V9.29155H48.4219V8.79155ZM56.6629 18.6016L56.4151 19.0359L56.4181 19.0376L56.6629 18.6016ZM55.0812 16.9474L54.637 17.177L54.6376 17.178L55.0812 16.9474ZM55.0812 11.8945L54.6365 11.666V11.666L55.0812 11.8945ZM56.6448 10.2102L56.389 9.78058L56.3879 9.78125L56.6448 10.2102ZM60.7318 9.90234L60.5566 10.3707L60.5609 10.3722L60.7318 9.90234ZM62.1203 10.7777L61.7685 11.1331L61.7703 11.1348L62.1203 10.7777ZM63.05 12.2507L62.5817 12.4259L62.5821 12.427L63.05 12.2507ZM63.382 15.0217V15.5217H63.882V15.0217H63.382ZM55.5521 15.0217H55.0521V15.5217H55.5521V15.0217ZM55.5521 13.4279V12.9279H55.0521V13.4279H55.5521ZM60.9612 13.4279V13.9279H61.4612V13.4279H60.9612ZM60.7197 12.4439L60.2841 12.6893V12.6893L60.7197 12.4439ZM60.0496 11.7738L59.7969 12.2053L59.8042 12.2094L60.0496 11.7738ZM58.0272 11.7979L58.2828 12.2277L58.2845 12.2267L58.0272 11.7979ZM57.3269 12.5163L57.7618 12.7631L57.7632 12.7606L57.3269 12.5163ZM57.0674 13.5124L56.5674 13.5069V13.5124H57.0674ZM57.3209 16.217L56.8748 16.4427L56.877 16.447L57.3209 16.217ZM59.953 17.1406L59.7925 16.6671V16.6671L59.953 17.1406ZM60.5627 16.7784L60.2179 16.4163H60.2179L60.5627 16.7784ZM60.9491 16.1868L60.982 15.6879L60.6128 15.6635L60.4816 16.0095L60.9491 16.1868ZM63.3277 16.3438L63.8169 16.4471L63.9361 15.8828L63.3606 15.8448L63.3277 16.3438ZM62.5851 17.8409L62.2093 17.5112L62.209 17.5114L62.5851 17.8409ZM61.1483 18.831L61.334 19.2952L61.3357 19.2945L61.1483 18.831ZM59.126 19.1811V18.6811C58.24 18.6811 57.507 18.502 56.9077 18.1656L56.6629 18.6016L56.4181 19.0376C57.1952 19.4738 58.1042 19.6811 59.126 19.6811V19.1811ZM56.6629 18.6016L56.9107 18.1673C56.3117 17.8255 55.8517 17.3456 55.5249 16.7168L55.0812 16.9474L54.6376 17.178C55.0513 17.974 55.6457 18.5968 56.4151 19.0358L56.6629 18.6016ZM55.0812 16.9474L55.5254 16.7179C55.1988 16.086 55.0258 15.3208 55.0258 14.4059H54.5258H54.0258C54.0258 15.447 54.2231 16.3761 54.637 17.177L55.0812 16.9474ZM54.5258 14.4059H55.0258C55.0258 13.5175 55.1979 12.7612 55.5259 12.1231L55.0812 11.8945L54.6365 11.666C54.224 12.4686 54.0258 13.3866 54.0258 14.4059H54.5258ZM55.0812 11.8945L55.5259 12.1231C55.855 11.4827 56.3124 10.992 56.9016 10.6392L56.6448 10.2102L56.3879 9.78125C55.6329 10.2334 55.0479 10.8655 54.6365 11.666L55.0812 11.8945ZM56.6448 10.2102L56.9005 10.6399C57.4879 10.2902 58.1895 10.1065 59.0233 10.1065V9.60653V9.10653C58.038 9.10653 57.1539 9.32529 56.389 9.78058L56.6448 10.2102ZM59.0233 9.60653V10.1065C59.5805 10.1065 60.0901 10.1962 60.5566 10.3707L60.7318 9.90234L60.9069 9.43403C60.319 9.21412 59.6897 9.10653 59.0233 9.10653V9.60653ZM60.7318 9.90234L60.5609 10.3722C61.0256 10.5412 61.4264 10.7944 61.7685 11.1331L62.1203 10.7777L62.472 10.4223C62.0253 9.98019 61.5004 9.64983 60.9026 9.43245L60.7318 9.90234ZM62.1203 10.7777L61.7703 11.1348C62.11 11.4676 62.3826 11.8938 62.5817 12.4259L63.05 12.2507L63.5183 12.0755C63.2746 11.4244 62.9275 10.8686 62.4702 10.4206L62.1203 10.7777ZM63.05 12.2507L62.5821 12.427C62.7775 12.9459 62.882 13.5719 62.882 14.3153H63.382H63.882C63.882 13.4811 63.7651 12.7308 63.5179 12.0744L63.05 12.2507ZM63.382 14.3153H62.882V15.0217H63.382H63.882V14.3153H63.382ZM63.382 15.0217V14.5217H55.5521V15.0217V15.5217H63.382V15.0217ZM55.5521 15.0217H56.0521V13.4279H55.5521H55.0521V15.0217H55.5521ZM55.5521 13.4279V13.9279H60.9612V13.4279V12.9279H55.5521V13.4279ZM60.9612 13.4279H61.4612C61.4612 12.9829 61.3637 12.5684 61.1553 12.1985L60.7197 12.4439L60.2841 12.6893C60.3977 12.8909 60.4612 13.1323 60.4612 13.4279H60.9612ZM60.7197 12.4439L61.1553 12.1985C60.9495 11.8331 60.6604 11.544 60.295 11.3382L60.0496 11.7738L59.8042 12.2094C60.0103 12.3256 60.1679 12.4832 60.2841 12.6893L60.7197 12.4439ZM60.0496 11.7738L60.3023 11.3424C59.9333 11.1262 59.5155 11.0263 59.0656 11.0263V11.5263V12.0263C59.3643 12.0263 59.6025 12.0914 59.7969 12.2052L60.0496 11.7738ZM59.0656 11.5263V11.0263C58.5947 11.0263 58.1578 11.1365 57.77 11.3692L58.0272 11.7979L58.2845 12.2267C58.5003 12.0972 58.7557 12.0263 59.0656 12.0263V11.5263ZM58.0272 11.7979L57.7717 11.3682C57.3985 11.5901 57.1027 11.8934 56.8907 12.272L57.3269 12.5163L57.7632 12.7606C57.8893 12.5355 58.0603 12.36 58.2828 12.2277L58.0272 11.7979ZM57.3269 12.5163L56.8921 12.2695C56.6784 12.6461 56.5723 13.0621 56.5674 13.5069L57.0674 13.5124L57.5673 13.5179C57.5705 13.2303 57.6374 12.9822 57.7618 12.7631L57.3269 12.5163ZM57.0674 13.5124H56.5674V15.0277H57.0674H57.5674V13.5124H57.0674ZM57.0674 15.0277H56.5674C56.5674 15.5475 56.6632 16.0247 56.8748 16.4427L57.3209 16.217L57.767 15.9912C57.6405 15.7412 57.5674 15.4255 57.5674 15.0277H57.0674ZM57.3209 16.217L56.877 16.447C57.0922 16.8625 57.4016 17.1921 57.8015 17.4228L58.0514 16.9897L58.3012 16.5566C58.0734 16.4251 57.8957 16.2396 57.7649 15.987L57.3209 16.217ZM58.0514 16.9897L57.8015 17.4228C58.2046 17.6553 58.6664 17.7614 59.1682 17.7614V17.2614V16.7614C58.8087 16.7614 58.526 16.6863 58.3012 16.5566L58.0514 16.9897ZM59.1682 17.2614V17.7614C59.501 17.7614 59.8177 17.7144 60.1135 17.6142L59.953 17.1406L59.7925 16.6671C59.6134 16.7278 59.4069 16.7614 59.1682 16.7614V17.2614ZM59.953 17.1406L60.1135 17.6142C60.4146 17.5121 60.6821 17.3552 60.9076 17.1405L60.5627 16.7784L60.2179 16.4163C60.1053 16.5236 59.9663 16.6082 59.7925 16.6671L59.953 17.1406ZM60.5627 16.7784L60.9076 17.1405C61.1345 16.9243 61.3034 16.6626 61.4166 16.3641L60.9491 16.1868L60.4816 16.0095C60.4177 16.1779 60.329 16.3105 60.2179 16.4163L60.5627 16.7784ZM60.9491 16.1868L60.9162 16.6857L63.2947 16.8427L63.3277 16.3438L63.3606 15.8448L60.982 15.6879L60.9491 16.1868ZM63.3277 16.3438L62.8385 16.2404C62.7349 16.7305 62.5253 17.151 62.2093 17.5112L62.5851 17.8409L62.961 18.1707C63.3935 17.6776 63.6789 17.1 63.8169 16.4471L63.3277 16.3438ZM62.5851 17.8409L62.209 17.5114C61.8966 17.868 61.4854 18.1555 60.961 18.3674L61.1483 18.831L61.3357 19.2945C61.9864 19.0316 62.5331 18.659 62.9612 18.1704L62.5851 17.8409ZM61.1483 18.831L60.9626 18.3667C60.4494 18.572 59.8404 18.6811 59.126 18.6811V19.1811V19.6811C59.9408 19.6811 60.6801 19.5568 61.334 19.2952L61.1483 18.831ZM66.6289 18.5774L66.3724 19.0066L66.3754 19.0084L66.6289 18.5774ZM65.0593 16.8871L64.6126 17.1117L64.6136 17.1137L65.0593 16.8871ZM65.0653 11.9006L64.6206 11.672L64.6201 11.673L65.0653 11.9006ZM66.641 10.2163L66.8956 10.6466L66.8975 10.6455L66.641 10.2163ZM71.1928 10.0472L71.4104 9.59707V9.59707L71.1928 10.0472ZM72.6356 11.2848L72.2196 11.5622L72.6356 11.2848ZM73.2212 13.1562V13.6562H73.7471L73.7206 13.131L73.2212 13.1562ZM70.7944 13.1562L70.2998 13.2294L70.3629 13.6562H70.7944V13.1562ZM70.2511 12.0394L69.8999 12.3955L69.905 12.4003L70.2511 12.0394ZM68.0657 11.9368L68.3594 12.3414L68.3604 12.3407L68.0657 11.9368ZM67.3714 15.8729L66.9053 16.0539L66.9069 16.0578L67.3714 15.8729ZM68.0657 16.8207L68.3604 16.4168V16.4168L68.0657 16.8207ZM69.9009 16.9656L69.6743 16.5199L69.6712 16.5214L69.9009 16.9656ZM70.4865 16.4403L70.0716 16.1613L70.0705 16.163L70.4865 16.4403ZM70.7944 15.6012V15.1012H70.363L70.2998 15.5279L70.7944 15.6012ZM73.2212 15.6012L73.7204 15.6296L73.7504 15.1012H73.2212V15.6012ZM72.6417 17.4727L72.2209 17.2026L72.2204 17.2034L72.6417 17.4727ZM71.223 18.7283L70.9994 18.2811V18.2811L71.223 18.7283ZM69.0799 19.1811V18.6811C68.2016 18.6811 67.4759 18.4956 66.8824 18.1464L66.6289 18.5774L66.3754 19.0084C67.1503 19.4642 68.0585 19.6811 69.0799 19.6811V19.1811ZM66.6289 18.5774L66.8854 18.1482C66.2878 17.7911 65.8294 17.2986 65.505 16.6605L65.0593 16.8871L64.6136 17.1137C65.0216 17.9163 65.6096 18.5508 66.3724 19.0066L66.6289 18.5774ZM65.0593 16.8871L65.506 16.6625C65.1841 16.0223 65.016 15.2723 65.016 14.3999H64.516H64.016C64.016 15.4029 64.21 16.3111 64.6126 17.1117L65.0593 16.8871ZM64.516 14.3999H65.016C65.016 13.5149 65.1863 12.7624 65.5105 12.1282L65.0653 11.9006L64.6201 11.673C64.2119 12.4715 64.016 13.3851 64.016 14.3999H64.516ZM65.0653 11.9006L65.51 12.1291C65.8383 11.4903 66.2986 10.9998 66.8956 10.6466L66.641 10.2163L66.3863 9.78595C65.623 10.2377 65.0328 10.87 64.6206 11.672L65.0653 11.9006ZM66.641 10.2163L66.8975 10.6455C67.4869 10.2932 68.2037 10.1065 69.0678 10.1065V9.60653V9.10653C68.0565 9.10653 67.1554 9.32636 66.3845 9.78707L66.641 10.2163ZM69.0678 9.60653V10.1065C69.8162 10.1065 70.4475 10.2423 70.9752 10.4974L71.1928 10.0472L71.4104 9.59707C70.7227 9.2646 69.9374 9.10653 69.0678 9.10653V9.60653ZM71.1928 10.0472L70.9752 10.4974C71.5073 10.7546 71.9178 11.1095 72.2196 11.5622L72.6356 11.2848L73.0517 11.0075C72.6451 10.3976 72.0937 9.92742 71.4104 9.59707L71.1928 10.0472ZM72.6356 11.2848L72.2196 11.5622C72.5178 12.0095 72.6896 12.5437 72.7219 13.1815L73.2212 13.1562L73.7206 13.131C73.6804 12.336 73.4618 11.6226 73.0517 11.0075L72.6356 11.2848ZM73.2212 13.1562V12.6562H70.7944V13.1562V13.6562H73.2212V13.1562ZM70.7944 13.1562L71.289 13.0831C71.2069 12.5277 70.9827 12.0482 70.5971 11.6785L70.2511 12.0394L69.905 12.4003C70.107 12.594 70.245 12.8591 70.2998 13.2294L70.7944 13.1562ZM70.2511 12.0394L70.6021 11.6834C70.204 11.2908 69.6901 11.1108 69.1101 11.1108V11.6108V12.1108C69.4718 12.1108 69.7185 12.2165 69.9 12.3954L70.2511 12.0394ZM69.1101 11.6108V11.1108C68.6147 11.1108 68.1614 11.248 67.771 11.5329L68.0657 11.9368L68.3604 12.3407C68.5656 12.1909 68.8085 12.1108 69.1101 12.1108V11.6108ZM68.0657 11.9368L67.7719 11.5322C67.3869 11.8117 67.1059 12.2074 66.9135 12.686L67.3775 12.8725L67.8414 13.059C67.979 12.7166 68.1569 12.4885 68.3594 12.3414L68.0657 11.9368ZM67.3775 12.8725L66.9135 12.686C66.7184 13.1714 66.63 13.7355 66.63 14.3636H67.13H67.63C67.63 13.8247 67.7065 13.3946 67.8414 13.059L67.3775 12.8725ZM67.13 14.3636H66.63C66.63 14.9979 66.7159 15.566 66.9053 16.0539L67.3714 15.8729L67.8375 15.6919C67.705 15.3506 67.63 14.9126 67.63 14.3636H67.13ZM67.3714 15.8729L66.9069 16.0578C67.0994 16.5413 67.3824 16.941 67.771 17.2246L68.0657 16.8207L68.3604 16.4168C68.1533 16.2657 67.9735 16.0335 67.836 15.688L67.3714 15.8729ZM68.0657 16.8207L67.771 17.2246C68.1614 17.5095 68.6147 17.6467 69.1101 17.6467V17.1467V16.6467C68.8085 16.6467 68.5656 16.5665 68.3604 16.4168L68.0657 16.8207ZM69.1101 17.1467V17.6467C69.4743 17.6467 69.8182 17.5713 70.1306 17.4097L69.9009 16.9656L69.6712 16.5214C69.5168 16.6013 69.3335 16.6467 69.1101 16.6467V17.1467ZM69.9009 16.9656L70.1275 17.4112C70.4443 17.2502 70.7037 17.0159 70.9025 16.7177L70.4865 16.4403L70.0705 16.163C69.9634 16.3236 69.8325 16.4394 69.6743 16.5199L69.9009 16.9656ZM70.4865 16.4403L70.9014 16.7193C71.1065 16.4144 71.2316 16.0616 71.289 15.6745L70.7944 15.6012L70.2998 15.5279C70.2605 15.7928 70.1804 15.9994 70.0716 16.1613L70.4865 16.4403ZM70.7944 15.6012V16.1012H73.2212V15.6012V15.1012H70.7944V15.6012ZM73.2212 15.6012L72.722 15.5728C72.6861 16.2046 72.5156 16.7433 72.2209 17.2026L72.6417 17.4727L73.0625 17.7427C73.4599 17.1234 73.6758 16.4144 73.7204 15.6296L73.2212 15.6012ZM72.6417 17.4727L72.2204 17.2034C71.93 17.6578 71.5276 18.017 70.9994 18.2811L71.223 18.7283L71.4466 19.1756C72.1258 18.836 72.6692 18.3581 73.063 17.7419L72.6417 17.4727ZM71.223 18.7283L70.9994 18.2811C70.4789 18.5414 69.8443 18.6811 69.0799 18.6811V19.1811V19.6811C69.9656 19.6811 70.7597 19.519 71.4466 19.1756L71.223 18.7283ZM77.2695 13.6392L76.7695 13.6342V13.6392H77.2695ZM77.2695 19V19.5H77.7695V19H77.2695ZM74.6978 19H74.1978V19.5H74.6978V19ZM74.6978 6.63636V6.13636H74.1978V6.63636H74.6978ZM77.1971 6.63636H77.6971V6.13636H77.1971V6.63636ZM77.1971 11.3633H76.6971V11.8633H77.1971V11.3633ZM77.3058 11.3633V11.8633H77.6499L77.7728 11.5419L77.3058 11.3633ZM78.32 10.0774L78.5965 10.494L78.599 10.4923L78.32 10.0774ZM81.761 10.0291L81.5075 10.4601L81.5118 10.4626L81.761 10.0291ZM82.8839 11.2305L82.438 11.4568L82.4402 11.4609L82.8839 11.2305ZM83.2823 13.0959L82.7823 13.0931V13.0959H83.2823ZM83.2823 19V19.5H83.7823V19H83.2823ZM80.7106 19H80.2106V19.5H80.7106V19ZM80.7106 13.5547L80.2106 13.5512V13.5547H80.7106ZM80.2759 12.2205L79.9064 12.5573L79.9087 12.5599L80.2759 12.2205ZM78.1268 11.967L77.8851 11.5293L77.8823 11.5308L78.1268 11.967ZM77.4989 12.619L77.0581 12.383L77.0569 12.3853L77.4989 12.619ZM77.2695 13.6392H76.7695V19H77.2695H77.7695V13.6392H77.2695ZM77.2695 19V18.5H74.6978V19V19.5H77.2695V19ZM74.6978 19H75.1978V6.63636H74.6978H74.1978V19H74.6978ZM74.6978 6.63636V7.13636H77.1971V6.63636V6.13636H74.6978V6.63636ZM77.1971 6.63636H76.6971V11.3633H77.1971H77.6971V6.63636H77.1971ZM77.1971 11.3633V11.8633H77.3058V11.3633V10.8633H77.1971V11.3633ZM77.3058 11.3633L77.7728 11.5419C77.9467 11.087 78.2205 10.7436 78.5965 10.494L78.32 10.0774L78.0434 9.66084C77.4857 10.031 77.0834 10.5449 76.8387 11.1847L77.3058 11.3633ZM78.32 10.0774L78.599 10.4923C78.9647 10.2464 79.4467 10.1065 80.0767 10.1065V9.60653V9.10653C79.2981 9.10653 78.6089 9.2806 78.041 9.66249L78.32 10.0774ZM80.0767 9.60653V10.1065C80.6459 10.1065 81.1169 10.2303 81.5075 10.4601L81.761 10.0291L82.0145 9.59815C81.4473 9.26447 80.7954 9.10653 80.0767 9.10653V9.60653ZM81.761 10.0291L81.5118 10.4626C81.9059 10.6892 82.214 11.0154 82.438 11.4568L82.8839 11.2305L83.3297 11.0041C83.0225 10.3991 82.5821 9.92447 82.0102 9.59567L81.761 10.0291ZM82.8839 11.2305L82.4402 11.4609C82.6645 11.8929 82.786 12.4308 82.7823 13.0931L83.2823 13.0959L83.7823 13.0987C83.7867 12.3121 83.6425 11.6064 83.3276 11L82.8839 11.2305ZM83.2823 13.0959H82.7823V19H83.2823H83.7823V13.0959H83.2823ZM83.2823 19V18.5H80.7106V19V19.5H83.2823V19ZM80.7106 19H81.2106V13.5547H80.7106H80.2106V19H80.7106ZM80.7106 13.5547L81.2106 13.5582C81.2152 12.9015 81.0478 12.3191 80.6431 11.8812L80.2759 12.2205L79.9087 12.5599C80.0916 12.7578 80.214 13.0649 80.2106 13.5512L80.7106 13.5547ZM80.2759 12.2205L80.6455 11.8837C80.2408 11.4398 79.6874 11.2436 79.0565 11.2436V11.7436V12.2436C79.4719 12.2436 79.7314 12.3654 79.9064 12.5573L80.2759 12.2205ZM79.0565 11.7436V11.2436C78.6335 11.2436 78.2383 11.3342 77.8851 11.5293L78.1268 11.967L78.3685 12.4047C78.5545 12.3019 78.7791 12.2436 79.0565 12.2436V11.7436ZM78.1268 11.967L77.8823 11.5308C77.528 11.7294 77.253 12.0188 77.0581 12.383L77.4989 12.619L77.9398 12.8549C78.0507 12.6476 78.1943 12.5023 78.3713 12.4031L78.1268 11.967ZM77.4989 12.619L77.0569 12.3853C76.8625 12.753 76.7742 13.1755 76.7696 13.6342L77.2695 13.6392L77.7695 13.6443C77.7729 13.306 77.8375 13.0484 77.941 12.8526L77.4989 12.619ZM96.0932 10.9648V11.4648H96.6557L96.5898 10.9063L96.0932 10.9648ZM93.4491 10.9648L92.954 11.0347L93.0147 11.4648H93.4491V10.9648ZM93.1532 10.0533L92.7155 10.295L92.7171 10.2978L93.1532 10.0533ZM92.5797 9.36506L92.2649 9.75352L92.2649 9.75352L92.5797 9.36506ZM91.7708 8.9304L91.6127 9.40474L91.6145 9.40536L91.7708 8.9304ZM89.1145 9.25639L89.3903 9.67351L89.3927 9.67187L89.1145 9.25639ZM88.0098 10.6328L88.4681 10.8327L88.4686 10.8316L88.0098 10.6328ZM88.0098 15.0398L87.5515 15.2397L87.5526 15.2423L88.0098 15.0398ZM89.1206 16.3981L88.8498 16.8184V16.8184L89.1206 16.3981ZM91.7406 16.718L91.594 16.24L91.5922 16.2406L91.7406 16.718ZM92.5435 16.3136L92.8457 16.7119L92.85 16.7086L92.5435 16.3136ZM93.1231 15.6555L92.6961 15.3953L92.6931 15.4003L93.1231 15.6555ZM93.4491 14.7741L93.4513 14.2742L93.0326 14.2722L92.9572 14.6842L93.4491 14.7741ZM96.0932 14.7862L96.5896 14.8461L96.6568 14.2888L96.0955 14.2862L96.0932 14.7862ZM95.5801 16.4283L95.1363 16.1979L95.1356 16.1992L95.5801 16.4283ZM94.4874 17.8349L94.8224 18.206L94.8226 18.2059L94.4874 17.8349ZM92.8574 18.8129L93.0343 19.2805L93.0359 19.2799L92.8574 18.8129ZM87.7683 18.4205L87.5185 18.8536L87.5194 18.8541L87.7683 18.4205ZM85.7157 16.2532L85.2735 16.4865L85.2743 16.488L85.7157 16.2532ZM85.7278 9.37713L86.1685 9.6134V9.6134L85.7278 9.37713ZM87.7924 7.21591L88.0399 7.6504L88.0414 7.64954L87.7924 7.21591ZM92.7186 6.76918L92.5623 7.24414L92.5633 7.24444L92.7186 6.76918ZM94.3546 7.65057L94.039 8.03843L94.041 8.04003L94.3546 7.65057ZM95.5137 9.05717L95.073 9.29346L95.0744 9.29593L95.5137 9.05717ZM96.0932 10.9648V10.4648H93.4491V10.9648V11.4648H96.0932V10.9648ZM93.4491 10.9648L93.9441 10.8949C93.8883 10.4997 93.7724 10.1352 93.5894 9.80876L93.1532 10.0533L92.7171 10.2978C92.8319 10.5026 92.9132 10.7458 92.954 11.0347L93.4491 10.9648ZM93.1532 10.0533L93.5909 9.81156C93.4117 9.48698 93.1793 9.20733 92.8945 8.97659L92.5797 9.36506L92.2649 9.75352C92.4471 9.9011 92.597 10.0803 92.7155 10.295L93.1532 10.0533ZM92.5797 9.36506L92.8945 8.97659C92.6106 8.74655 92.2864 8.57365 91.927 8.45543L91.7708 8.9304L91.6145 9.40536C91.8669 9.48838 92.082 9.60525 92.2649 9.75352L92.5797 9.36506ZM91.7708 8.9304L91.9289 8.45606C91.5706 8.33664 91.1886 8.27947 90.7868 8.27947V8.77947V9.27947C91.0932 9.27947 91.3672 9.32292 91.6127 9.40474L91.7708 8.9304ZM90.7868 8.77947V8.27947C90.0601 8.27947 89.4032 8.4614 88.8364 8.84091L89.1145 9.25639L89.3927 9.67187C89.7756 9.41549 90.2336 9.27947 90.7868 9.27947V8.77947ZM89.1145 9.25639L88.8388 8.83928C88.271 9.21461 87.845 9.75553 87.551 10.434L88.0098 10.6328L88.4686 10.8316C88.6977 10.3027 89.0082 9.92601 89.3903 9.6735L89.1145 9.25639ZM88.0098 10.6328L87.5515 10.4329C87.2553 11.1119 87.1174 11.9125 87.1174 12.8182H87.6174H88.1174C88.1174 12.0094 88.2411 11.353 88.4681 10.8327L88.0098 10.6328ZM87.6174 12.8182H87.1174C87.1174 13.7458 87.2546 14.5591 87.5515 15.2397L88.0098 15.0398L88.4681 14.8398C88.2418 14.3211 88.1174 13.6533 88.1174 12.8182H87.6174ZM88.0098 15.0398L87.5526 15.2423C87.8513 15.9165 88.2803 16.4516 88.8498 16.8184L89.1206 16.3981L89.3913 15.9777C89.011 15.7328 88.6995 15.3624 88.4669 14.8373L88.0098 15.0398ZM89.1206 16.3981L88.8498 16.8184C89.4138 17.1817 90.0592 17.3569 90.7687 17.3569V16.8569V16.3569C90.2305 16.3569 89.7772 16.2263 89.3913 15.9777L89.1206 16.3981ZM90.7687 16.8569V17.3569C91.163 17.3569 91.5376 17.3047 91.889 17.1955L91.7406 16.718L91.5922 16.2406C91.3479 16.3165 91.0746 16.3569 90.7687 16.3569V16.8569ZM91.7406 16.718L91.8872 17.1961C92.2408 17.0876 92.562 16.9271 92.8457 16.7119L92.5435 16.3136L92.2413 15.9152C92.0582 16.0541 91.8441 16.1633 91.594 16.24L91.7406 16.718ZM92.5435 16.3136L92.85 16.7086C93.1337 16.4885 93.3685 16.2215 93.553 15.9108L93.1231 15.6555L92.6931 15.4003C92.5718 15.6047 92.4202 15.7764 92.237 15.9185L92.5435 16.3136ZM93.1231 15.6555L93.55 15.9157C93.7422 15.6003 93.8707 15.2476 93.9409 14.8641L93.4491 14.7741L92.9572 14.6842C92.9066 14.9607 92.8178 15.1956 92.6961 15.3954L93.1231 15.6555ZM93.4491 14.7741L93.4468 15.2741L96.0909 15.2862L96.0932 14.7862L96.0955 14.2862L93.4513 14.2742L93.4491 14.7741ZM96.0932 14.7862L95.5968 14.7264C95.5359 15.232 95.3835 15.7218 95.1363 16.1979L95.5801 16.4283L96.0239 16.6586C96.3241 16.0803 96.5138 15.4754 96.5896 14.8461L96.0932 14.7862ZM95.5801 16.4283L95.1356 16.1992C94.8949 16.6662 94.5686 17.0876 94.1522 17.4639L94.4874 17.8349L94.8226 18.2059C95.3238 17.753 95.7259 17.2367 96.0245 16.6573L95.5801 16.4283ZM94.4874 17.8349L94.1524 17.4637C93.7479 17.8288 93.2592 18.1241 92.6789 18.3458L92.8574 18.8129L93.0359 19.2799C93.7194 19.0187 94.3173 18.662 94.8224 18.206L94.4874 17.8349ZM92.8574 18.8129L92.6806 18.3452C92.1185 18.5578 91.4695 18.669 90.7264 18.669V19.169V19.669C91.569 19.669 92.3407 19.5428 93.0343 19.2805L92.8574 18.8129ZM90.7264 19.169V18.669C89.702 18.669 88.8034 18.4381 88.0172 17.9868L87.7683 18.4205L87.5194 18.8541C88.4719 19.4009 89.5453 19.669 90.7264 19.669V19.169ZM87.7683 18.4205L88.0181 17.9873C87.2399 17.5385 86.6196 16.8877 86.1572 16.0184L85.7157 16.2532L85.2743 16.488C85.8181 17.5103 86.5661 18.3043 87.5185 18.8536L87.7683 18.4205ZM85.7157 16.2532L86.158 16.0199C85.7054 15.1621 85.4672 14.1015 85.4672 12.8182H84.9672H84.4672C84.4672 14.2233 84.728 15.4527 85.2735 16.4865L85.7157 16.2532ZM84.9672 12.8182H85.4672C85.4672 11.5317 85.7091 10.4702 86.1685 9.6134L85.7278 9.37713L85.2872 9.14086C84.7324 10.1756 84.4672 11.4082 84.4672 12.8182H84.9672ZM85.7278 9.37713L86.1685 9.6134C86.6345 8.74427 87.2583 8.09545 88.0399 7.6504L87.7924 7.21591L87.545 6.78142C86.5879 7.32643 85.8354 8.11842 85.2872 9.14086L85.7278 9.37713ZM87.7924 7.21591L88.0414 7.64954C88.8286 7.19759 89.7195 6.96733 90.7264 6.96733V6.46733V5.96733C89.56 5.96733 88.4949 6.23612 87.5435 6.78228L87.7924 7.21591ZM90.7264 6.46733V6.96733C91.3956 6.96733 92.0063 7.06124 92.5623 7.24414L92.7186 6.76918L92.8748 6.29421C92.2073 6.07465 91.4899 5.96733 90.7264 5.96733V6.46733ZM92.7186 6.76918L92.5633 7.24444C93.1241 7.42773 93.6145 7.69299 94.039 8.03842L94.3546 7.65057L94.6701 7.26271C94.1449 6.83541 93.5446 6.51308 92.8739 6.29391L92.7186 6.76918ZM94.3546 7.65057L94.041 8.04003C94.462 8.37892 94.8058 8.79509 95.073 9.29346L95.5137 9.05717L95.9543 8.82088C95.6259 8.20846 95.197 7.68689 94.6681 7.2611L94.3546 7.65057ZM95.5137 9.05717L95.0744 9.29593C95.3419 9.78813 95.5186 10.3614 95.5967 11.0234L96.0932 10.9648L96.5898 10.9063C96.4989 10.1356 96.2892 9.43701 95.953 8.81842L95.5137 9.05717ZM99.5061 18.5835L99.2515 19.0138L99.2545 19.0155L99.5061 18.5835ZM97.9305 16.9052L97.4858 17.1337L97.4863 17.1348L97.9305 16.9052ZM97.9305 11.8885L98.3747 12.1181L98.3752 12.1171L97.9305 11.8885ZM99.5061 10.2102L99.7589 10.6417L99.7597 10.6412L99.5061 10.2102ZM104.366 10.2102L104.111 10.6405L104.114 10.6423L104.366 10.2102ZM105.948 11.8885L105.503 12.1171L105.503 12.1181L105.948 11.8885ZM105.948 16.9052L106.392 17.1348L106.392 17.1337L105.948 16.9052ZM104.366 18.5835L104.619 19.0149L104.619 19.0144L104.366 18.5835ZM103.02 16.8267L103.342 17.2086L103.345 17.206L103.02 16.8267ZM103.666 15.8246L103.194 15.6584L103.193 15.6624L103.666 15.8246ZM103.666 12.9389L103.193 13.1011L103.194 13.1051L103.666 12.9389ZM100.864 11.9368L100.544 11.5531L100.541 11.5553L100.864 11.9368ZM100.206 12.9389L99.7348 12.7727L99.7335 12.7768L100.206 12.9389ZM100.206 15.8246L99.7334 15.9867L99.7349 15.9907L100.206 15.8246ZM100.864 16.8267L100.541 17.2082L100.547 17.213L100.864 16.8267ZM101.939 19.1811V18.6811C101.073 18.6811 100.353 18.4977 99.7578 18.1514L99.5061 18.5835L99.2545 19.0155C100.028 19.466 100.929 19.6811 101.939 19.6811V19.1811ZM99.5061 18.5835L99.7608 18.1531C99.1631 17.7995 98.7028 17.3104 98.3747 16.6756L97.9305 16.9052L97.4863 17.1348C97.8988 17.9327 98.4889 18.5625 99.2515 19.0138L99.5061 18.5835ZM97.9305 16.9052L98.3752 16.6766C98.0471 16.0382 97.8751 15.2839 97.8751 14.3999H97.3751H96.8751C96.8751 15.4155 97.0734 16.3314 97.4858 17.1337L97.9305 16.9052ZM97.3751 14.3999H97.8751C97.8751 13.507 98.0474 12.7513 98.3747 12.1181L97.9305 11.8885L97.4863 11.6589C97.0731 12.4584 96.8751 13.377 96.8751 14.3999H97.3751ZM97.9305 11.8885L98.3752 12.1171C98.7033 11.4787 99.163 10.9907 99.7589 10.6417L99.5061 10.2102L99.2534 9.7788C98.4889 10.2266 97.8982 10.8575 97.4858 11.6599L97.9305 11.8885ZM99.5061 10.2102L99.7597 10.6412C100.354 10.2915 101.074 10.1065 101.939 10.1065V9.60653V9.10653C100.928 9.10653 100.027 9.324 99.2526 9.77926L99.5061 10.2102ZM101.939 9.60653V10.1065C102.804 10.1065 103.521 10.2916 104.111 10.6405L104.366 10.2102L104.62 9.77991C103.85 9.32397 102.95 9.10653 101.939 9.10653V9.60653ZM104.366 10.2102L104.114 10.6423C104.714 10.9916 105.175 11.4795 105.503 12.1171L105.948 11.8885L106.392 11.6599C105.979 10.8567 105.386 10.2258 104.617 9.77815L104.366 10.2102ZM105.948 11.8885L105.503 12.1181C105.831 12.7513 106.003 13.507 106.003 14.3999H106.503H107.003C107.003 13.377 106.805 12.4584 106.392 11.6589L105.948 11.8885ZM106.503 14.3999H106.003C106.003 15.2839 105.831 16.0382 105.503 16.6766L105.948 16.9052L106.392 17.1337C106.805 16.3314 107.003 15.4155 107.003 14.3999H106.503ZM105.948 16.9052L105.503 16.6756C105.176 17.3096 104.714 17.7986 104.112 18.1525L104.366 18.5835L104.619 19.0144C105.386 18.5633 105.979 17.9335 106.392 17.1348L105.948 16.9052ZM104.366 18.5835L104.113 18.152C103.523 18.4977 102.805 18.6811 101.939 18.6811V19.1811V19.6811C102.949 19.6811 103.848 19.4661 104.619 19.0149L104.366 18.5835ZM101.951 17.1889V17.6889C102.478 17.6889 102.954 17.537 103.342 17.2086L103.02 16.8267L102.697 16.4448C102.514 16.5994 102.277 16.6889 101.951 16.6889V17.1889ZM103.02 16.8267L103.345 17.206C103.71 16.8925 103.97 16.4778 104.139 15.9867L103.666 15.8246L103.193 15.6624C103.071 16.0166 102.9 16.2699 102.694 16.4475L103.02 16.8267ZM103.666 15.8246L104.137 15.9907C104.308 15.5052 104.389 14.9665 104.389 14.3817H103.889H103.389C103.389 14.8756 103.321 15.2988 103.194 15.6584L103.666 15.8246ZM103.889 14.3817H104.389C104.389 13.797 104.308 13.2583 104.137 12.7727L103.666 12.9389L103.194 13.1051C103.321 13.4647 103.389 13.8879 103.389 14.3817H103.889ZM103.666 12.9389L104.139 12.7768C103.97 12.2857 103.71 11.871 103.345 11.5575L103.02 11.9368L102.694 12.316C102.9 12.4936 103.071 12.7469 103.193 13.1011L103.666 12.9389ZM103.02 11.9368L103.345 11.5575C102.957 11.2238 102.48 11.0685 101.951 11.0685V11.5685V12.0685C102.275 12.0685 102.511 12.1588 102.694 12.316L103.02 11.9368ZM101.951 11.5685V11.0685C101.419 11.0685 100.939 11.2231 100.544 11.5531L100.864 11.9368L101.185 12.3205C101.378 12.1595 101.622 12.0685 101.951 12.0685V11.5685ZM100.864 11.9368L100.541 11.5553C100.173 11.8677 99.9079 12.2816 99.7349 12.7727L100.206 12.9389L100.678 13.1051C100.803 12.751 100.977 12.4969 101.188 12.3183L100.864 11.9368ZM100.206 12.9389L99.7335 12.7768C99.5674 13.2611 99.4891 13.7983 99.4891 14.3817H99.9891H100.489C100.489 13.8866 100.556 13.4619 100.679 13.1011L100.206 12.9389ZM99.9891 14.3817H99.4891C99.4891 14.9652 99.5674 15.5024 99.7335 15.9867L100.206 15.8246L100.679 15.6624C100.556 15.3016 100.489 14.8769 100.489 14.3817H99.9891ZM100.206 15.8246L99.7349 15.9907C99.9079 16.4818 100.173 16.8958 100.541 17.2082L100.864 16.8267L101.188 16.4452C100.977 16.2666 100.803 16.0125 100.678 15.6584L100.206 15.8246ZM100.864 16.8267L100.547 17.213C100.942 17.5377 101.421 17.6889 101.951 17.6889V17.1889V16.6889C101.62 16.6889 101.374 16.5987 101.182 16.4404L100.864 16.8267ZM110.577 13.6392L110.077 13.6342V13.6392H110.577ZM110.577 19V19.5H111.077V19H110.577ZM108.005 19H107.505V19.5H108.005V19ZM108.005 9.72727V9.22727H107.505V9.72727H108.005ZM110.456 9.72727H110.956V9.22727H110.456V9.72727ZM110.456 11.3633H109.956V11.8633H110.456V11.3633ZM110.565 11.3633V11.8633H110.91L111.032 11.5411L110.565 11.3633ZM111.597 10.0835L111.87 10.5027L111.872 10.5011L111.597 10.0835ZM115.038 10.0291L115.292 9.59815L115.038 10.0291ZM116.155 11.2365L115.709 11.4629L115.71 11.4642L116.155 11.2365ZM116.553 19V19.5H117.053V19H116.553ZM113.982 19H113.482V19.5H113.982V19ZM113.982 13.5547L113.482 13.5511V13.5547H113.982ZM113.547 12.2266L113.178 12.5636L113.18 12.5659L113.547 12.2266ZM111.416 11.967L111.172 11.5308L111.169 11.5324L111.416 11.967ZM110.8 12.619L110.357 12.3879L110.356 12.3903L110.8 12.619ZM110.577 13.6392H110.077V19H110.577H111.077V13.6392H110.577ZM110.577 19V18.5H108.005V19V19.5H110.577V19ZM108.005 19H108.505V9.72727H108.005H107.505V19H108.005ZM108.005 9.72727V10.2273H110.456V9.72727V9.22727H108.005V9.72727ZM110.456 9.72727H109.956V11.3633H110.456H110.956V9.72727H110.456ZM110.456 11.3633V11.8633H110.565V11.3633V10.8633H110.456V11.3633ZM110.565 11.3633L111.032 11.5411C111.2 11.1007 111.476 10.7587 111.87 10.5027L111.597 10.0835L111.325 9.66423C110.753 10.036 110.34 10.5472 110.098 11.1854L110.565 11.3633ZM111.597 10.0835L111.872 10.5011C112.259 10.2464 112.745 10.1065 113.354 10.1065V9.60653V9.10653C112.587 9.10653 111.901 9.28462 111.322 9.66583L111.597 10.0835ZM113.354 9.60653V10.1065C113.923 10.1065 114.394 10.2303 114.785 10.4601L115.038 10.0291L115.292 9.59815C114.724 9.26447 114.073 9.10653 113.354 9.10653V9.60653ZM115.038 10.0291L114.785 10.4601C115.177 10.6906 115.484 11.0198 115.709 11.4629L116.155 11.2365L116.601 11.0102C116.295 10.4068 115.858 9.93108 115.292 9.59815L115.038 10.0291ZM116.155 11.2365L115.71 11.4642C115.932 11.8983 116.053 12.4364 116.053 13.0959H116.553H117.053C117.053 12.3146 116.909 11.6131 116.6 11.0088L116.155 11.2365ZM116.553 13.0959H116.053V19H116.553H117.053V13.0959H116.553ZM116.553 19V18.5H113.982V19V19.5H116.553V19ZM113.982 19H114.482V13.5547H113.982H113.482V19H113.982ZM113.982 13.5547L114.482 13.5582C114.486 12.9044 114.318 12.3245 113.914 11.8872L113.547 12.2266L113.18 12.5659C113.363 12.7645 113.485 13.07 113.482 13.5511L113.982 13.5547ZM113.547 12.2266L113.916 11.8895C113.511 11.4448 112.961 11.2436 112.334 11.2436V11.7436V12.2436C112.736 12.2436 112.996 12.3644 113.178 12.5636L113.547 12.2266ZM112.334 11.7436V11.2436C111.914 11.2436 111.522 11.3346 111.172 11.5308L111.416 11.967L111.661 12.4031C111.842 12.3015 112.061 12.2436 112.334 12.2436V11.7436ZM111.416 11.967L111.169 11.5324C110.818 11.7323 110.547 12.0232 110.357 12.3879L110.8 12.619L111.244 12.85C111.351 12.6433 111.491 12.4995 111.663 12.4015L111.416 11.967ZM110.8 12.619L110.356 12.3903C110.167 12.7568 110.082 13.1775 110.077 13.6342L110.577 13.6392L111.077 13.6443C111.08 13.3041 111.144 13.0446 111.245 12.8476L110.8 12.619ZM126.126 12.3714L126.156 12.8705L126.691 12.8376L126.621 12.306L126.126 12.3714ZM123.771 12.5163L123.281 12.6144L123.366 13.0422L123.802 13.0154L123.771 12.5163ZM123.512 11.973L123.122 12.2865L123.126 12.2912L123.512 11.973ZM122.986 11.5806L122.773 12.0329L122.783 12.0375L122.986 11.5806ZM121.212 11.6832L121.47 12.1115L121.474 12.1086L121.212 11.6832ZM121.067 12.9087L120.74 13.2871V13.2871L121.067 12.9087ZM121.978 13.277L121.873 13.7659L121.879 13.7671L121.978 13.277ZM123.656 13.6151L123.757 13.1253L123.755 13.1249L123.656 13.6151ZM125.673 14.5085L125.333 14.8752V14.8752L125.673 14.5085ZM125.8 17.7262L125.405 17.4185L125.404 17.4207L125.8 17.7262ZM124.339 18.8008L124.529 19.2631L124.531 19.2625L124.339 18.8008ZM119.274 18.4144L118.984 18.8219L118.986 18.8237L119.274 18.4144ZM118 16.3136L117.974 15.8143L117.429 15.8429L117.505 16.3833L118 16.3136ZM120.529 16.1808L121.019 16.0807L120.933 15.6589L120.503 15.6814L120.529 16.1808ZM121.085 17.038L120.806 17.4532L120.81 17.4558L121.085 17.038ZM123.3 17.0682L123.568 17.4908L123.569 17.4898L123.3 17.0682ZM123.723 16.386L124.223 16.3933L124.223 16.3853L124.223 16.3774L123.723 16.386ZM123.427 15.8125L123.117 16.2046L123.122 16.2085L123.427 15.8125ZM122.534 15.4624L122.632 14.9721L122.631 14.972L122.534 15.4624ZM120.928 15.1424L120.83 15.6327L120.83 15.6328L120.928 15.1424ZM118.905 14.2006L118.549 14.551L118.55 14.5526L118.905 14.2006ZM118.73 10.9528L118.332 10.651L118.33 10.6534L118.73 10.9528ZM120.101 9.95668L119.917 9.49157L119.916 9.492L120.101 9.95668ZM124.942 10.3491L124.646 10.7517L124.647 10.7525L124.942 10.3491ZM126.126 12.3714L126.095 11.8724L123.74 12.0173L123.771 12.5163L123.802 13.0154L126.156 12.8705L126.126 12.3714ZM123.771 12.5163L124.261 12.4183C124.205 12.1347 124.082 11.8783 123.897 11.6548L123.512 11.973L123.126 12.2912C123.207 12.3897 123.257 12.4955 123.281 12.6144L123.771 12.5163ZM123.512 11.973L123.901 11.6595C123.713 11.4253 123.47 11.2486 123.189 11.1237L122.986 11.5806L122.783 12.0375C122.937 12.1058 123.045 12.1907 123.122 12.2865L123.512 11.973ZM122.986 11.5806L123.2 11.1284C122.905 10.9892 122.572 10.9297 122.22 10.9297V11.4297V11.9297C122.463 11.9297 122.642 11.9708 122.773 12.0328L122.986 11.5806ZM122.22 11.4297V10.9297C121.751 10.9297 121.318 11.0296 120.949 11.2578L121.212 11.6832L121.474 12.1086C121.652 11.9988 121.892 11.9297 122.22 11.9297V11.4297ZM121.212 11.6832L120.953 11.255C120.556 11.4944 120.301 11.8651 120.301 12.3473H120.801H121.301C121.301 12.2741 121.319 12.2021 121.47 12.1114L121.212 11.6832ZM120.801 12.3473H120.301C120.301 12.7231 120.46 13.0454 120.74 13.2871L121.067 12.9087L121.393 12.5303C121.319 12.4662 121.301 12.4142 121.301 12.3473H120.801ZM121.067 12.9087L120.74 13.2871C121.015 13.5246 121.421 13.6686 121.873 13.7658L121.978 13.277L122.083 12.7882C121.674 12.7002 121.473 12.5987 121.393 12.5303L121.067 12.9087ZM121.978 13.277L121.879 13.7671L123.558 14.1052L123.656 13.6151L123.755 13.1249L122.077 12.7868L121.978 13.277ZM123.656 13.6151L123.556 14.1048C124.411 14.2805 124.984 14.5513 125.333 14.8752L125.673 14.5085L126.013 14.1419C125.477 13.6448 124.705 13.3199 123.757 13.1253L123.656 13.6151ZM125.673 14.5085L125.333 14.8752C125.662 15.1804 125.837 15.581 125.837 16.1264H126.337H126.837C126.837 15.3356 126.569 14.6577 126.013 14.1419L125.673 14.5085ZM126.337 16.1264H125.837C125.837 16.6279 125.692 17.0517 125.405 17.4185L125.8 17.7262L126.194 18.0339C126.624 17.4831 126.837 16.8404 126.837 16.1264H126.337ZM125.8 17.7262L125.404 17.4207C125.111 17.8003 124.699 18.1096 124.147 18.3391L124.339 18.8008L124.531 19.2625C125.218 18.9768 125.78 18.5697 126.195 18.0317L125.8 17.7262ZM124.339 18.8008L124.148 18.3384C123.604 18.5625 122.961 18.6811 122.208 18.6811V19.1811V19.6811C123.065 19.6811 123.842 19.5461 124.529 19.2631L124.339 18.8008ZM122.208 19.1811V18.6811C121.045 18.6811 120.179 18.4386 119.561 18.0051L119.274 18.4144L118.986 18.8237C119.826 19.4125 120.915 19.6811 122.208 19.6811V19.1811ZM119.274 18.4144L119.563 18.0069C118.952 17.5719 118.601 16.9941 118.495 16.2438L118 16.3136L117.505 16.3833C117.649 17.4038 118.147 18.2266 118.984 18.8219L119.274 18.4144ZM118 16.3136L118.026 16.8129L120.556 16.6801L120.529 16.1808L120.503 15.6814L117.974 15.8143L118 16.3136ZM120.529 16.1808L120.039 16.2808C120.14 16.7725 120.394 17.1766 120.806 17.4531L121.085 17.038L121.363 16.6228C121.188 16.505 121.072 16.3376 121.019 16.0807L120.529 16.1808ZM121.085 17.038L120.81 17.4558C121.207 17.7167 121.687 17.8278 122.214 17.8278V17.3278V16.8278C121.823 16.8278 121.55 16.7456 121.359 16.6202L121.085 17.038ZM122.214 17.3278V17.8278C122.723 17.8278 123.188 17.7306 123.568 17.4908L123.3 17.0682L123.033 16.6456C122.865 16.7519 122.605 16.8278 122.214 16.8278V17.3278ZM123.3 17.0682L123.569 17.4898C123.958 17.2417 124.216 16.8723 124.223 16.3933L123.723 16.386L123.223 16.3788C123.222 16.4551 123.198 16.5405 123.031 16.6466L123.3 17.0682ZM123.723 16.386L124.223 16.3774C124.216 15.9842 124.04 15.6534 123.732 15.4165L123.427 15.8125L123.122 16.2085C123.201 16.2694 123.222 16.3209 123.223 16.3946L123.723 16.386ZM123.427 15.8125L123.737 15.4205C123.454 15.1961 123.066 15.059 122.632 14.9721L122.534 15.4624L122.436 15.9526C122.806 16.0267 123.014 16.123 123.117 16.2045L123.427 15.8125ZM122.534 15.4624L122.631 14.972L121.025 14.652L120.928 15.1424L120.83 15.6328L122.436 15.9527L122.534 15.4624ZM120.928 15.1424L121.026 14.6521C120.175 14.4819 119.608 14.1988 119.261 13.8487L118.905 14.2006L118.55 14.5526C119.089 15.0959 119.87 15.4407 120.83 15.6327L120.928 15.1424ZM118.905 14.2006L119.262 13.8503C118.925 13.5073 118.747 13.0685 118.747 12.4922H118.247H117.747C117.747 13.3003 118.008 14.0005 118.549 14.551L118.905 14.2006ZM118.247 12.4922H118.747C118.747 11.9922 118.88 11.587 119.131 11.2522L118.73 10.9528L118.33 10.6534C117.936 11.1798 117.747 11.8009 117.747 12.4922H118.247ZM118.73 10.9528L119.129 11.2546C119.391 10.9084 119.768 10.6269 120.285 10.4214L120.101 9.95668L119.916 9.492C119.258 9.75332 118.722 10.1359 118.332 10.651L118.73 10.9528ZM120.101 9.95668L120.284 10.4218C120.805 10.2163 121.432 10.1065 122.177 10.1065V9.60653V9.10653C121.337 9.10653 120.58 9.23017 119.917 9.49157L120.101 9.95668ZM122.177 9.60653V10.1065C123.284 10.1065 124.088 10.3409 124.646 10.7517L124.942 10.3491L125.239 9.94649C124.452 9.36721 123.413 9.10653 122.177 9.10653V9.60653ZM124.942 10.3491L124.647 10.7525C125.21 11.1645 125.535 11.7148 125.63 12.4369L126.126 12.3714L126.621 12.306C126.491 11.3216 126.027 10.5237 125.238 9.94564L124.942 10.3491ZM133.733 15.0518H133.233L133.233 15.0567L133.733 15.0518ZM133.733 9.72727V9.22727H133.233V9.72727H133.733ZM136.304 9.72727H136.804V9.22727H136.304V9.72727ZM136.304 19V19.5H136.804V19H136.304ZM133.835 19H133.335V19.5H133.835V19ZM133.835 17.3157H134.335V16.8157H133.835V17.3157ZM133.739 17.3157V16.8157H133.395L133.272 17.136L133.739 17.3157ZM132.694 18.6257L132.414 18.2118L132.412 18.2129L132.694 18.6257ZM129.289 18.6982L129.546 18.2691V18.2691L129.289 18.6982ZM128.185 17.4968L127.738 17.7218L127.74 17.7245L128.185 17.4968ZM127.786 15.6314H127.286L127.286 15.6342L127.786 15.6314ZM127.786 9.72727V9.22727H127.286V9.72727H127.786ZM130.358 9.72727H130.858V9.22727H130.358V9.72727ZM130.358 15.1726H129.858L129.858 15.1763L130.358 15.1726ZM130.799 16.4705L131.168 16.1337V16.1337L130.799 16.4705ZM132.833 16.7362L133.065 17.1794L133.07 17.1766L132.833 16.7362ZM133.485 16.0962L133.056 15.839L133.054 15.8435L133.485 16.0962ZM133.733 15.0518H134.233V9.72727H133.733H133.233V15.0518H133.733ZM133.733 9.72727V10.2273H136.304V9.72727V9.22727H133.733V9.72727ZM136.304 9.72727H135.804V19H136.304H136.804V9.72727H136.304ZM136.304 19V18.5H133.835V19V19.5H136.304V19ZM133.835 19H134.335V17.3157H133.835H133.335V19H133.835ZM133.835 17.3157V16.8157H133.739V17.3157V17.8157H133.835V17.3157ZM133.739 17.3157L133.272 17.136C133.1 17.583 132.817 17.9384 132.414 18.2118L132.694 18.6257L132.975 19.0396C133.545 18.653 133.959 18.135 134.205 17.4954L133.739 17.3157ZM132.694 18.6257L132.412 18.2129C132.027 18.476 131.541 18.6207 130.925 18.6207V19.1207V19.6207C131.703 19.6207 132.396 19.4355 132.976 19.0385L132.694 18.6257ZM130.925 19.1207V18.6207C130.384 18.6207 129.93 18.4986 129.546 18.2691L129.289 18.6982L129.033 19.1272C129.591 19.4611 130.227 19.6207 130.925 19.6207V19.1207ZM129.289 18.6982L129.546 18.2691C129.161 18.0385 128.856 17.7103 128.63 17.2691L128.185 17.4968L127.74 17.7245C128.045 18.3217 128.476 18.7943 129.033 19.1272L129.289 18.6982ZM128.185 17.4968L128.631 17.2718C128.412 16.8365 128.29 16.2944 128.286 15.6286L127.786 15.6314L127.286 15.6342C127.291 16.4172 127.434 17.1188 127.738 17.7218L128.185 17.4968ZM127.786 15.6314H128.286V9.72727H127.786H127.286V15.6314H127.786ZM127.786 9.72727V10.2273H130.358V9.72727V9.22727H127.786V9.72727ZM130.358 9.72727H129.858V15.1726H130.358H130.858V9.72727H130.358ZM130.358 15.1726L129.858 15.1763C129.863 15.8122 130.036 16.3755 130.429 16.8073L130.799 16.4705L131.168 16.1337C130.982 15.9297 130.861 15.6276 130.858 15.1689L130.358 15.1726ZM130.799 16.4705L130.429 16.8073C130.827 17.2435 131.357 17.4474 131.964 17.4474V16.9474V16.4474C131.597 16.4474 131.35 16.3334 131.168 16.1337L130.799 16.4705ZM131.964 16.9474V17.4474C132.353 17.4474 132.722 17.3582 133.065 17.1793L132.833 16.7362L132.602 16.293C132.405 16.3958 132.195 16.4474 131.964 16.4474V16.9474ZM132.833 16.7362L133.07 17.1766C133.426 16.9853 133.708 16.7045 133.917 16.3489L133.485 16.0962L133.054 15.8435C132.932 16.0515 132.78 16.1972 132.596 16.2957L132.833 16.7362ZM133.485 16.0962L133.914 16.3535C134.141 15.9744 134.237 15.5299 134.233 15.047L133.733 15.0518L133.233 15.0567C133.236 15.4029 133.167 15.6547 133.056 15.839L133.485 16.0962ZM140.763 6.63636H141.263V6.13636H140.763V6.63636ZM140.763 19V19.5H141.263V19H140.763ZM138.191 19H137.691V19.5H138.191V19ZM138.191 6.63636V6.13636H137.691V6.63636H138.191ZM140.763 6.63636H140.263V19H140.763H141.263V6.63636H140.763ZM140.763 19V18.5H138.191V19V19.5H140.763V19ZM138.191 19H138.691V6.63636H138.191H137.691V19H138.191ZM138.191 6.63636V7.13636H140.763V6.63636V6.13636H138.191V6.63636ZM147.585 9.72727H148.085V9.22727H147.585V9.72727ZM147.585 11.6591V12.1591H148.085V11.6591H147.585ZM142.001 11.6591H141.501V12.1591H142.001V11.6591ZM142.001 9.72727V9.22727H141.501V9.72727H142.001ZM143.269 7.50568V7.00568H142.769V7.50568H143.269ZM145.841 7.50568H146.341V7.00568H145.841V7.50568ZM145.949 16.706L145.51 16.9454L145.514 16.9511L145.949 16.706ZM146.251 16.9776L146.063 17.4409L146.068 17.4428L146.251 16.9776ZM147.072 17.0259L147.155 17.5191L147.162 17.5178L147.17 17.5162L147.072 17.0259ZM147.35 16.9716L147.839 16.8682L147.738 16.3901L147.258 16.4802L147.35 16.9716ZM147.755 18.8853L147.904 19.3625L148.338 19.2269L148.244 18.7819L147.755 18.8853ZM147.211 19.0241L147.102 18.5362L147.094 18.5381L147.211 19.0241ZM146.36 19.1268L146.342 18.6271L146.341 18.6272L146.36 19.1268ZM144.73 18.8793L144.541 19.3421L144.542 19.3427L144.73 18.8793ZM143.649 17.9979L144.069 17.7264V17.7264L143.649 17.9979ZM143.269 16.4886L143.769 16.4919V16.4886H143.269ZM147.585 9.72727H147.085V11.6591H147.585H148.085V9.72727H147.585ZM147.585 11.6591V11.1591H142.001V11.6591V12.1591H147.585V11.6591ZM142.001 11.6591H142.501V9.72727H142.001H141.501V11.6591H142.001ZM142.001 9.72727V10.2273H147.585V9.72727V9.22727H142.001V9.72727ZM143.269 7.50568V8.00568H145.841V7.50568V7.00568H143.269V7.50568ZM145.841 7.50568H145.341V16.1506H145.841H146.341V7.50568H145.841ZM145.841 16.1506H145.341C145.341 16.4286 145.381 16.7088 145.511 16.9454L145.949 16.706L146.388 16.4665C146.373 16.4375 146.341 16.3475 146.341 16.1506H145.841ZM145.949 16.706L145.514 16.9511C145.638 17.1718 145.823 17.3432 146.063 17.4409L146.251 16.9776L146.44 16.5144C146.422 16.5075 146.406 16.4977 146.385 16.4608L145.949 16.706ZM146.251 16.9776L146.068 17.4428C146.27 17.5225 146.487 17.5561 146.71 17.5561V17.0561V16.5561C146.587 16.5561 146.498 16.5374 146.435 16.5124L146.251 16.9776ZM146.71 17.0561V17.5561C146.859 17.5561 147.007 17.5437 147.155 17.5191L147.072 17.0259L146.99 16.5327C146.896 16.5484 146.803 16.5561 146.71 16.5561V17.0561ZM147.072 17.0259L147.17 17.5162C147.291 17.4922 147.381 17.4745 147.442 17.463L147.35 16.9716L147.258 16.4802C147.191 16.4928 147.096 16.5114 146.974 16.5356L147.072 17.0259ZM147.35 16.9716L146.861 17.075L147.265 18.9887L147.755 18.8853L148.244 18.7819L147.839 16.8682L147.35 16.9716ZM147.755 18.8853L147.605 18.4081C147.496 18.4422 147.33 18.485 147.102 18.5363L147.211 19.0241L147.321 19.512C147.559 19.4586 147.755 19.4088 147.904 19.3625L147.755 18.8853ZM147.211 19.0241L147.094 18.5381C146.903 18.5842 146.654 18.6158 146.342 18.6271L146.36 19.1268L146.378 19.6264C146.734 19.6136 147.053 19.5768 147.329 19.5102L147.211 19.0241ZM146.36 19.1268L146.341 18.6272C145.776 18.6492 145.306 18.573 144.918 18.4159L144.73 18.8793L144.542 19.3427C145.088 19.5639 145.705 19.6527 146.379 19.6264L146.36 19.1268ZM144.73 18.8793L144.919 18.4164C144.546 18.2638 144.268 18.0342 144.069 17.7264L143.649 17.9979L143.229 18.2693C143.546 18.7584 143.989 19.1165 144.541 19.3421L144.73 18.8793ZM143.649 17.9979L144.069 17.7264C143.878 17.43 143.766 17.0294 143.769 16.4919L143.269 16.4886L142.769 16.4853C142.765 17.1633 142.906 17.7689 143.229 18.2693L143.649 17.9979ZM143.269 16.4886H143.769V7.50568H143.269H142.769V16.4886H143.269Z" fill="black" fill-opacity="0.27" mask="url(#path-8-outside-1_1_3029)"/>
</svg>
