<svg width="150" height="34" viewBox="0 0 150 34" fill="none" xmlns="http://www.w3.org/2000/svg">
<path d="M11.8229 3.58333C18.3254 3.58333 23.6458 3.60479 23.6458 3.63104C23.6458 3.65729 23.2481 4.34854 22.7619 5.1675C22.2758 5.98645 21.4204 7.43979 20.8608 8.39729C20.5219 8.97749 20.1827 9.55791 19.8438 10.1381C18.9008 10.1394 17.9581 10.1408 17.0152 10.1421C16.0725 10.1433 15.1294 10.1446 14.1867 10.1458C14.164 10.5017 14.141 10.8577 14.1183 11.2135C14.0806 11.8008 14.0644 16.8633 14.0823 22.4635C14.1019 28.6333 14.0769 32.6458 14.0185 32.6458C13.9658 32.6458 12.4071 31.865 10.555 30.9106C9.4325 30.3321 8.31 29.754 7.1875 29.1754C7.1875 26.004 7.1875 22.8321 7.1875 19.6606C7.1875 16.489 7.1875 13.3175 7.1875 10.1458C5.98958 10.1458 4.79167 10.1458 3.59375 10.1458C2.39583 10.1458 1.19792 10.1458 0 10.1458C0 9.05208 0 7.95833 0 6.86458C0 5.77083 0 4.67708 0 3.58333C3.94104 3.58333 7.88188 3.58333 11.8229 3.58333Z" fill="#1E2736"/>
<path d="M20.1042 13.8958C21.1459 13.8958 22.1875 13.8958 23.2292 13.8958C23.2292 16.2569 23.2292 18.6179 23.2292 20.9792C23.2292 23.3404 23.2292 25.7012 23.2292 28.0625C24.5488 28.0625 25.8679 28.0625 27.1875 28.0625C28.5071 28.0625 29.8263 28.0625 31.1459 28.0625C31.1459 27.2987 31.1459 26.5346 31.1459 25.7708C31.1459 25.0071 31.1459 24.2429 31.1459 23.4792C32.2917 23.4792 33.4375 23.4792 34.5834 23.4792C35.7292 23.4792 36.875 23.4792 38.0209 23.4792C38.0209 25.1254 38.0209 26.7715 38.0209 28.4177C38.0209 30.0642 38.0209 31.7102 38.0209 33.3565C37.914 33.4462 37.8071 33.5362 37.7004 33.626C37.5936 33.716 37.4869 33.8058 37.3798 33.8958C33.9798 33.8958 30.5796 33.8958 27.1796 33.8958C23.7794 33.8958 20.3792 33.8958 16.9792 33.8958C16.9792 30.5625 16.9792 27.2292 16.9792 23.8958C16.9792 20.5625 16.9792 17.2292 16.9792 13.8958C18.0209 13.8958 19.0625 13.8958 20.1042 13.8958Z" fill="#343E53"/>
<path d="M25.3056 6.86458C25.925 5.78812 26.5446 4.71187 27.164 3.63541C28.9733 3.62645 30.7829 3.61728 32.5923 3.60833C34.4019 3.59937 36.2115 3.59041 38.0208 3.58145C38.0208 5.68249 38.0208 7.78353 38.0208 9.88437C38.0208 11.9856 38.0208 14.0865 38.0208 16.1875C36.875 16.1875 35.7292 16.1875 34.5833 16.1875C33.4375 16.1875 32.2917 16.1875 31.1458 16.1875C31.1458 15.1808 31.1458 14.1746 31.1458 13.1679C31.1458 12.1612 31.1458 11.155 31.1458 10.1483C29.8627 10.1394 28.5798 10.13 27.2967 10.121C26.0135 10.1121 24.7306 10.1027 23.4475 10.0937C24.0671 9.01729 24.6865 7.94104 25.3056 6.86458Z" fill="#343E53"/>
<mask id="path-4-outside-1_1_3030" maskUnits="userSpaceOnUse" x="44.0625" y="5" width="105" height="15" fill="black">
<rect fill="white" x="44.0625" y="5" width="105" height="15"/>
<path d="M44.6662 8.79155V6.63636H54.8203V8.79155H51.0352V19H48.4513V8.79155H44.6662ZM59.1554 19.1811C58.2015 19.1811 57.3805 18.9879 56.6923 18.6016C56.0081 18.2112 55.4809 17.6598 55.1106 16.9474C54.7404 16.2311 54.5552 15.3839 54.5552 14.4059C54.5552 13.4521 54.7404 12.6149 55.1106 11.8945C55.4809 11.1741 56.0021 10.6127 56.6742 10.2102C57.3503 9.80776 58.1432 9.60653 59.0527 9.60653C59.6645 9.60653 60.234 9.70514 60.7612 9.90234C61.2924 10.0955 61.7553 10.3873 62.1497 10.7777C62.5481 11.1681 62.858 11.6591 63.0794 12.2507C63.3007 12.8383 63.4114 13.5265 63.4114 14.3153V15.0217H55.5815V13.4279H60.9906C60.9906 13.0576 60.9101 12.7296 60.7491 12.4439C60.5881 12.1581 60.3648 11.9348 60.079 11.7738C59.7973 11.6088 59.4693 11.5263 59.095 11.5263C58.7046 11.5263 58.3585 11.6168 58.0567 11.7979C57.7588 11.975 57.5254 12.2145 57.3564 12.5163C57.1873 12.8142 57.1008 13.1462 57.0968 13.5124V15.0277C57.0968 15.4865 57.1813 15.8829 57.3503 16.217C57.5234 16.551 57.7669 16.8086 58.0808 16.9897C58.3947 17.1708 58.767 17.2614 59.1976 17.2614C59.4834 17.2614 59.745 17.2211 59.9824 17.1406C60.2199 17.0601 60.4231 16.9394 60.5922 16.7784C60.7612 16.6174 60.89 16.4202 60.9785 16.1868L63.3571 16.3438C63.2363 16.9152 62.9888 17.4143 62.6145 17.8409C62.2443 18.2635 61.7653 18.5935 61.1777 18.831C60.5942 19.0644 59.9201 19.1811 59.1554 19.1811ZM69.1093 19.1811C68.1595 19.1811 67.3425 18.9799 66.6583 18.5774C65.9782 18.1709 65.455 17.6075 65.0887 16.8871C64.7265 16.1667 64.5454 15.3376 64.5454 14.3999C64.5454 13.45 64.7285 12.617 65.0947 11.9006C65.465 11.1802 65.9902 10.6187 66.6704 10.2163C67.3505 9.80978 68.1595 9.60653 69.0972 9.60653C69.9062 9.60653 70.6145 9.75343 71.2222 10.0472C71.83 10.341 72.3109 10.7536 72.6651 11.2848C73.0192 11.8161 73.2144 12.4399 73.2506 13.1562H70.8238C70.7554 12.6934 70.5743 12.3211 70.2805 12.0394C69.9907 11.7537 69.6104 11.6108 69.1395 11.6108C68.7411 11.6108 68.3929 11.7195 68.0951 11.9368C67.8013 12.1501 67.5719 12.462 67.4069 12.8725C67.2419 13.283 67.1594 13.7801 67.1594 14.3636C67.1594 14.9553 67.2399 15.4583 67.4009 15.8729C67.5659 16.2874 67.7973 16.6033 68.0951 16.8207C68.3929 17.038 68.7411 17.1467 69.1395 17.1467C69.4333 17.1467 69.6969 17.0863 69.9303 16.9656C70.1678 16.8448 70.363 16.6697 70.5159 16.4403C70.6729 16.2069 70.7755 15.9272 70.8238 15.6012H73.2506C73.2104 16.3095 73.0172 16.9334 72.6711 17.4727C72.329 18.0079 71.8561 18.4265 71.2524 18.7283C70.6487 19.0302 69.9344 19.1811 69.1093 19.1811ZM77.2989 13.6392V19H74.7272V6.63636H77.2265V11.3633H77.3352C77.5445 10.8159 77.8825 10.3873 78.3494 10.0774C78.8162 9.76349 79.4018 9.60653 80.1061 9.60653C80.7501 9.60653 81.3115 9.7474 81.7904 10.0291C82.2734 10.3068 82.6477 10.7073 82.9133 11.2305C83.1829 11.7496 83.3158 12.3714 83.3117 13.0959V19H80.74V13.5547C80.744 12.9832 80.5991 12.5385 80.3053 12.2205C80.0156 11.9026 79.6091 11.7436 79.0859 11.7436C78.7357 11.7436 78.4258 11.8181 78.1562 11.967C77.8906 12.1159 77.6813 12.3332 77.5284 12.619C77.3794 12.9007 77.303 13.2408 77.2989 13.6392ZM96.1226 10.9648H93.4785C93.4302 10.6228 93.3316 10.3189 93.1827 10.0533C93.0337 9.78362 92.8426 9.55421 92.6092 9.36506C92.3757 9.1759 92.1061 9.03101 91.8002 8.9304C91.4984 8.82978 91.1703 8.77947 90.8162 8.77947C90.1763 8.77947 89.6189 8.93845 89.144 9.25639C88.669 9.57031 88.3008 10.0291 88.0392 10.6328C87.7776 11.2325 87.6468 11.9609 87.6468 12.8182C87.6468 13.6996 87.7776 14.4401 88.0392 15.0398C88.3048 15.6394 88.6751 16.0922 89.15 16.3981C89.6249 16.704 90.1743 16.8569 90.7981 16.8569C91.1482 16.8569 91.4722 16.8106 91.77 16.718C92.0719 16.6255 92.3395 16.4906 92.5729 16.3136C92.8064 16.1325 92.9995 15.9131 93.1525 15.6555C93.3094 15.398 93.4181 15.1042 93.4785 14.7741L96.1226 14.7862C96.0542 15.3537 95.8832 15.901 95.6095 16.4283C95.3399 16.9515 94.9756 17.4203 94.5168 17.8349C94.062 18.2454 93.5187 18.5714 92.8869 18.8129C92.259 19.0503 91.5487 19.169 90.7558 19.169C89.6531 19.169 88.667 18.9195 87.7977 18.4205C86.9324 17.9214 86.2482 17.199 85.7452 16.2532C85.2461 15.3074 84.9966 14.1624 84.9966 12.8182C84.9966 11.4699 85.2501 10.3229 85.7572 9.37713C86.2643 8.43134 86.9525 7.71094 87.8219 7.21591C88.6912 6.71686 89.6692 6.46733 90.7558 6.46733C91.4722 6.46733 92.1363 6.56794 92.748 6.76918C93.3638 6.97041 93.9091 7.2642 94.384 7.65057C94.8589 8.03291 95.2453 8.50178 95.5431 9.05717C95.8449 9.61257 96.0381 10.2485 96.1226 10.9648ZM101.968 19.1811C101.031 19.1811 100.22 18.9819 99.5356 18.5835C98.8554 18.181 98.3302 17.6216 97.9599 16.9052C97.5897 16.1848 97.4045 15.3497 97.4045 14.3999C97.4045 13.442 97.5897 12.6049 97.9599 11.8885C98.3302 11.1681 98.8554 10.6087 99.5356 10.2102C100.22 9.80776 101.031 9.60653 101.968 9.60653C102.906 9.60653 103.715 9.80776 104.395 10.2102C105.079 10.6087 105.607 11.1681 105.977 11.8885C106.347 12.6049 106.532 13.442 106.532 14.3999C106.532 15.3497 106.347 16.1848 105.977 16.9052C105.607 17.6216 105.079 18.181 104.395 18.5835C103.715 18.9819 102.906 19.1811 101.968 19.1811ZM101.981 17.1889C102.407 17.1889 102.763 17.0682 103.049 16.8267C103.335 16.5812 103.55 16.2472 103.695 15.8246C103.844 15.402 103.918 14.921 103.918 14.3817C103.918 13.8424 103.844 13.3615 103.695 12.9389C103.55 12.5163 103.335 12.1823 103.049 11.9368C102.763 11.6913 102.407 11.5685 101.981 11.5685C101.55 11.5685 101.188 11.6913 100.894 11.9368C100.604 12.1823 100.385 12.5163 100.236 12.9389C100.091 13.3615 100.019 13.8424 100.019 14.3817C100.019 14.921 100.091 15.402 100.236 15.8246C100.385 16.2472 100.604 16.5812 100.894 16.8267C101.188 17.0682 101.55 17.1889 101.981 17.1889ZM110.606 13.6392V19H108.035V9.72727H110.486V11.3633H110.594C110.8 10.824 111.144 10.3974 111.627 10.0835C112.11 9.76551 112.695 9.60653 113.383 9.60653C114.027 9.60653 114.589 9.7474 115.068 10.0291C115.547 10.3108 115.919 10.7133 116.184 11.2365C116.45 11.7557 116.583 12.3755 116.583 13.0959V19H114.011V13.5547C114.015 12.9872 113.87 12.5445 113.577 12.2266C113.283 11.9046 112.878 11.7436 112.363 11.7436C112.017 11.7436 111.711 11.8181 111.445 11.967C111.184 12.1159 110.979 12.3332 110.83 12.619C110.685 12.9007 110.61 13.2408 110.606 13.6392ZM126.155 12.3714L123.801 12.5163C123.76 12.3151 123.674 12.134 123.541 11.973C123.408 11.808 123.233 11.6772 123.016 11.5806C122.802 11.48 122.547 11.4297 122.249 11.4297C121.851 11.4297 121.515 11.5142 121.241 11.6832C120.967 11.8482 120.83 12.0696 120.83 12.3473C120.83 12.5687 120.919 12.7558 121.096 12.9087C121.273 13.0617 121.577 13.1844 122.008 13.277L123.686 13.6151C124.587 13.8002 125.26 14.098 125.702 14.5085C126.145 14.919 126.366 15.4583 126.366 16.1264C126.366 16.7341 126.187 17.2674 125.829 17.7262C125.475 18.185 124.988 18.5432 124.368 18.8008C123.752 19.0543 123.042 19.1811 122.237 19.1811C121.01 19.1811 120.032 18.9255 119.303 18.4144C118.579 17.8993 118.154 17.199 118.029 16.3136L120.559 16.1808C120.635 16.555 120.82 16.8408 121.114 17.038C121.408 17.2312 121.784 17.3278 122.243 17.3278C122.694 17.3278 123.056 17.2412 123.33 17.0682C123.607 16.8911 123.748 16.6637 123.752 16.386C123.748 16.1526 123.65 15.9614 123.456 15.8125C123.263 15.6596 122.965 15.5429 122.563 15.4624L120.957 15.1424C120.052 14.9613 119.378 14.6474 118.935 14.2006C118.496 13.7539 118.277 13.1844 118.277 12.4922C118.277 11.8965 118.438 11.3834 118.76 10.9528C119.086 10.5221 119.543 10.1901 120.13 9.95668C120.722 9.72325 121.414 9.60653 122.207 9.60653C123.378 9.60653 124.3 9.85405 124.972 10.3491C125.648 10.8441 126.042 11.5182 126.155 12.3714ZM133.762 15.0518V9.72727H136.334V19H133.865V17.3157H133.768C133.559 17.859 133.211 18.2957 132.724 18.6257C132.241 18.9557 131.651 19.1207 130.955 19.1207C130.335 19.1207 129.79 18.9799 129.319 18.6982C128.848 18.4164 128.48 18.016 128.214 17.4968C127.953 16.9776 127.82 16.3558 127.816 15.6314V9.72727H130.387V15.1726C130.391 15.7199 130.538 16.1526 130.828 16.4705C131.118 16.7885 131.506 16.9474 131.993 16.9474C132.303 16.9474 132.593 16.877 132.863 16.7362C133.132 16.5913 133.35 16.378 133.515 16.0962C133.684 15.8145 133.766 15.4664 133.762 15.0518ZM140.793 6.63636V19H138.221V6.63636H140.793ZM147.615 9.72727V11.6591H142.031V9.72727H147.615ZM143.298 7.50568H145.87V16.1506C145.87 16.388 145.906 16.5732 145.979 16.706C146.051 16.8348 146.152 16.9253 146.281 16.9776C146.414 17.0299 146.566 17.0561 146.74 17.0561C146.86 17.0561 146.981 17.046 147.102 17.0259C147.222 17.0018 147.315 16.9837 147.379 16.9716L147.784 18.8853C147.655 18.9255 147.474 18.9718 147.241 19.0241C147.007 19.0805 146.723 19.1147 146.389 19.1268C145.77 19.1509 145.226 19.0684 144.759 18.8793C144.297 18.6901 143.936 18.3963 143.679 17.9979C143.421 17.5994 143.294 17.0964 143.298 16.4886V7.50568Z"/>
</mask>
<path d="M44.6662 8.79155V6.63636H54.8203V8.79155H51.0352V19H48.4513V8.79155H44.6662ZM59.1554 19.1811C58.2015 19.1811 57.3805 18.9879 56.6923 18.6016C56.0081 18.2112 55.4809 17.6598 55.1106 16.9474C54.7404 16.2311 54.5552 15.3839 54.5552 14.4059C54.5552 13.4521 54.7404 12.6149 55.1106 11.8945C55.4809 11.1741 56.0021 10.6127 56.6742 10.2102C57.3503 9.80776 58.1432 9.60653 59.0527 9.60653C59.6645 9.60653 60.234 9.70514 60.7612 9.90234C61.2924 10.0955 61.7553 10.3873 62.1497 10.7777C62.5481 11.1681 62.858 11.6591 63.0794 12.2507C63.3007 12.8383 63.4114 13.5265 63.4114 14.3153V15.0217H55.5815V13.4279H60.9906C60.9906 13.0576 60.9101 12.7296 60.7491 12.4439C60.5881 12.1581 60.3648 11.9348 60.079 11.7738C59.7973 11.6088 59.4693 11.5263 59.095 11.5263C58.7046 11.5263 58.3585 11.6168 58.0567 11.7979C57.7588 11.975 57.5254 12.2145 57.3564 12.5163C57.1873 12.8142 57.1008 13.1462 57.0968 13.5124V15.0277C57.0968 15.4865 57.1813 15.8829 57.3503 16.217C57.5234 16.551 57.7669 16.8086 58.0808 16.9897C58.3947 17.1708 58.767 17.2614 59.1976 17.2614C59.4834 17.2614 59.745 17.2211 59.9824 17.1406C60.2199 17.0601 60.4231 16.9394 60.5922 16.7784C60.7612 16.6174 60.89 16.4202 60.9785 16.1868L63.3571 16.3438C63.2363 16.9152 62.9888 17.4143 62.6145 17.8409C62.2443 18.2635 61.7653 18.5935 61.1777 18.831C60.5942 19.0644 59.9201 19.1811 59.1554 19.1811ZM69.1093 19.1811C68.1595 19.1811 67.3425 18.9799 66.6583 18.5774C65.9782 18.1709 65.455 17.6075 65.0887 16.8871C64.7265 16.1667 64.5454 15.3376 64.5454 14.3999C64.5454 13.45 64.7285 12.617 65.0947 11.9006C65.465 11.1802 65.9902 10.6187 66.6704 10.2163C67.3505 9.80978 68.1595 9.60653 69.0972 9.60653C69.9062 9.60653 70.6145 9.75343 71.2222 10.0472C71.83 10.341 72.3109 10.7536 72.6651 11.2848C73.0192 11.8161 73.2144 12.4399 73.2506 13.1562H70.8238C70.7554 12.6934 70.5743 12.3211 70.2805 12.0394C69.9907 11.7537 69.6104 11.6108 69.1395 11.6108C68.7411 11.6108 68.3929 11.7195 68.0951 11.9368C67.8013 12.1501 67.5719 12.462 67.4069 12.8725C67.2419 13.283 67.1594 13.7801 67.1594 14.3636C67.1594 14.9553 67.2399 15.4583 67.4009 15.8729C67.5659 16.2874 67.7973 16.6033 68.0951 16.8207C68.3929 17.038 68.7411 17.1467 69.1395 17.1467C69.4333 17.1467 69.6969 17.0863 69.9303 16.9656C70.1678 16.8448 70.363 16.6697 70.5159 16.4403C70.6729 16.2069 70.7755 15.9272 70.8238 15.6012H73.2506C73.2104 16.3095 73.0172 16.9334 72.6711 17.4727C72.329 18.0079 71.8561 18.4265 71.2524 18.7283C70.6487 19.0302 69.9344 19.1811 69.1093 19.1811ZM77.2989 13.6392V19H74.7272V6.63636H77.2265V11.3633H77.3352C77.5445 10.8159 77.8825 10.3873 78.3494 10.0774C78.8162 9.76349 79.4018 9.60653 80.1061 9.60653C80.7501 9.60653 81.3115 9.7474 81.7904 10.0291C82.2734 10.3068 82.6477 10.7073 82.9133 11.2305C83.1829 11.7496 83.3158 12.3714 83.3117 13.0959V19H80.74V13.5547C80.744 12.9832 80.5991 12.5385 80.3053 12.2205C80.0156 11.9026 79.6091 11.7436 79.0859 11.7436C78.7357 11.7436 78.4258 11.8181 78.1562 11.967C77.8906 12.1159 77.6813 12.3332 77.5284 12.619C77.3794 12.9007 77.303 13.2408 77.2989 13.6392ZM96.1226 10.9648H93.4785C93.4302 10.6228 93.3316 10.3189 93.1827 10.0533C93.0337 9.78362 92.8426 9.55421 92.6092 9.36506C92.3757 9.1759 92.1061 9.03101 91.8002 8.9304C91.4984 8.82978 91.1703 8.77947 90.8162 8.77947C90.1763 8.77947 89.6189 8.93845 89.144 9.25639C88.669 9.57031 88.3008 10.0291 88.0392 10.6328C87.7776 11.2325 87.6468 11.9609 87.6468 12.8182C87.6468 13.6996 87.7776 14.4401 88.0392 15.0398C88.3048 15.6394 88.6751 16.0922 89.15 16.3981C89.6249 16.704 90.1743 16.8569 90.7981 16.8569C91.1482 16.8569 91.4722 16.8106 91.77 16.718C92.0719 16.6255 92.3395 16.4906 92.5729 16.3136C92.8064 16.1325 92.9995 15.9131 93.1525 15.6555C93.3094 15.398 93.4181 15.1042 93.4785 14.7741L96.1226 14.7862C96.0542 15.3537 95.8832 15.901 95.6095 16.4283C95.3399 16.9515 94.9756 17.4203 94.5168 17.8349C94.062 18.2454 93.5187 18.5714 92.8869 18.8129C92.259 19.0503 91.5487 19.169 90.7558 19.169C89.6531 19.169 88.667 18.9195 87.7977 18.4205C86.9324 17.9214 86.2482 17.199 85.7452 16.2532C85.2461 15.3074 84.9966 14.1624 84.9966 12.8182C84.9966 11.4699 85.2501 10.3229 85.7572 9.37713C86.2643 8.43134 86.9525 7.71094 87.8219 7.21591C88.6912 6.71686 89.6692 6.46733 90.7558 6.46733C91.4722 6.46733 92.1363 6.56794 92.748 6.76918C93.3638 6.97041 93.9091 7.2642 94.384 7.65057C94.8589 8.03291 95.2453 8.50178 95.5431 9.05717C95.8449 9.61257 96.0381 10.2485 96.1226 10.9648ZM101.968 19.1811C101.031 19.1811 100.22 18.9819 99.5356 18.5835C98.8554 18.181 98.3302 17.6216 97.9599 16.9052C97.5897 16.1848 97.4045 15.3497 97.4045 14.3999C97.4045 13.442 97.5897 12.6049 97.9599 11.8885C98.3302 11.1681 98.8554 10.6087 99.5356 10.2102C100.22 9.80776 101.031 9.60653 101.968 9.60653C102.906 9.60653 103.715 9.80776 104.395 10.2102C105.079 10.6087 105.607 11.1681 105.977 11.8885C106.347 12.6049 106.532 13.442 106.532 14.3999C106.532 15.3497 106.347 16.1848 105.977 16.9052C105.607 17.6216 105.079 18.181 104.395 18.5835C103.715 18.9819 102.906 19.1811 101.968 19.1811ZM101.981 17.1889C102.407 17.1889 102.763 17.0682 103.049 16.8267C103.335 16.5812 103.55 16.2472 103.695 15.8246C103.844 15.402 103.918 14.921 103.918 14.3817C103.918 13.8424 103.844 13.3615 103.695 12.9389C103.55 12.5163 103.335 12.1823 103.049 11.9368C102.763 11.6913 102.407 11.5685 101.981 11.5685C101.55 11.5685 101.188 11.6913 100.894 11.9368C100.604 12.1823 100.385 12.5163 100.236 12.9389C100.091 13.3615 100.019 13.8424 100.019 14.3817C100.019 14.921 100.091 15.402 100.236 15.8246C100.385 16.2472 100.604 16.5812 100.894 16.8267C101.188 17.0682 101.55 17.1889 101.981 17.1889ZM110.606 13.6392V19H108.035V9.72727H110.486V11.3633H110.594C110.8 10.824 111.144 10.3974 111.627 10.0835C112.11 9.76551 112.695 9.60653 113.383 9.60653C114.027 9.60653 114.589 9.7474 115.068 10.0291C115.547 10.3108 115.919 10.7133 116.184 11.2365C116.45 11.7557 116.583 12.3755 116.583 13.0959V19H114.011V13.5547C114.015 12.9872 113.87 12.5445 113.577 12.2266C113.283 11.9046 112.878 11.7436 112.363 11.7436C112.017 11.7436 111.711 11.8181 111.445 11.967C111.184 12.1159 110.979 12.3332 110.83 12.619C110.685 12.9007 110.61 13.2408 110.606 13.6392ZM126.155 12.3714L123.801 12.5163C123.76 12.3151 123.674 12.134 123.541 11.973C123.408 11.808 123.233 11.6772 123.016 11.5806C122.802 11.48 122.547 11.4297 122.249 11.4297C121.851 11.4297 121.515 11.5142 121.241 11.6832C120.967 11.8482 120.83 12.0696 120.83 12.3473C120.83 12.5687 120.919 12.7558 121.096 12.9087C121.273 13.0617 121.577 13.1844 122.008 13.277L123.686 13.6151C124.587 13.8002 125.26 14.098 125.702 14.5085C126.145 14.919 126.366 15.4583 126.366 16.1264C126.366 16.7341 126.187 17.2674 125.829 17.7262C125.475 18.185 124.988 18.5432 124.368 18.8008C123.752 19.0543 123.042 19.1811 122.237 19.1811C121.01 19.1811 120.032 18.9255 119.303 18.4144C118.579 17.8993 118.154 17.199 118.029 16.3136L120.559 16.1808C120.635 16.555 120.82 16.8408 121.114 17.038C121.408 17.2312 121.784 17.3278 122.243 17.3278C122.694 17.3278 123.056 17.2412 123.33 17.0682C123.607 16.8911 123.748 16.6637 123.752 16.386C123.748 16.1526 123.65 15.9614 123.456 15.8125C123.263 15.6596 122.965 15.5429 122.563 15.4624L120.957 15.1424C120.052 14.9613 119.378 14.6474 118.935 14.2006C118.496 13.7539 118.277 13.1844 118.277 12.4922C118.277 11.8965 118.438 11.3834 118.76 10.9528C119.086 10.5221 119.543 10.1901 120.13 9.95668C120.722 9.72325 121.414 9.60653 122.207 9.60653C123.378 9.60653 124.3 9.85405 124.972 10.3491C125.648 10.8441 126.042 11.5182 126.155 12.3714ZM133.762 15.0518V9.72727H136.334V19H133.865V17.3157H133.768C133.559 17.859 133.211 18.2957 132.724 18.6257C132.241 18.9557 131.651 19.1207 130.955 19.1207C130.335 19.1207 129.79 18.9799 129.319 18.6982C128.848 18.4164 128.48 18.016 128.214 17.4968C127.953 16.9776 127.82 16.3558 127.816 15.6314V9.72727H130.387V15.1726C130.391 15.7199 130.538 16.1526 130.828 16.4705C131.118 16.7885 131.506 16.9474 131.993 16.9474C132.303 16.9474 132.593 16.877 132.863 16.7362C133.132 16.5913 133.35 16.378 133.515 16.0962C133.684 15.8145 133.766 15.4664 133.762 15.0518ZM140.793 6.63636V19H138.221V6.63636H140.793ZM147.615 9.72727V11.6591H142.031V9.72727H147.615ZM143.298 7.50568H145.87V16.1506C145.87 16.388 145.906 16.5732 145.979 16.706C146.051 16.8348 146.152 16.9253 146.281 16.9776C146.414 17.0299 146.566 17.0561 146.74 17.0561C146.86 17.0561 146.981 17.046 147.102 17.0259C147.222 17.0018 147.315 16.9837 147.379 16.9716L147.784 18.8853C147.655 18.9255 147.474 18.9718 147.241 19.0241C147.007 19.0805 146.723 19.1147 146.389 19.1268C145.77 19.1509 145.226 19.0684 144.759 18.8793C144.297 18.6901 143.936 18.3963 143.679 17.9979C143.421 17.5994 143.294 17.0964 143.298 16.4886V7.50568Z" fill="#1E1E1E"/>
<path d="M44.6662 8.79155H44.1662V9.29155H44.6662V8.79155ZM44.6662 6.63636V6.13636H44.1662V6.63636H44.6662ZM54.8203 6.63636H55.3203V6.13636H54.8203V6.63636ZM54.8203 8.79155V9.29155H55.3203V8.79155H54.8203ZM51.0352 8.79155V8.29155H50.5352V8.79155H51.0352ZM51.0352 19V19.5H51.5352V19H51.0352ZM48.4513 19H47.9513V19.5H48.4513V19ZM48.4513 8.79155H48.9513V8.29155H48.4513V8.79155ZM44.6662 8.79155H45.1662V6.63636H44.6662H44.1662V8.79155H44.6662ZM44.6662 6.63636V7.13636H54.8203V6.63636V6.13636H44.6662V6.63636ZM54.8203 6.63636H54.3203V8.79155H54.8203H55.3203V6.63636H54.8203ZM54.8203 8.79155V8.29155H51.0352V8.79155V9.29155H54.8203V8.79155ZM51.0352 8.79155H50.5352V19H51.0352H51.5352V8.79155H51.0352ZM51.0352 19V18.5H48.4513V19V19.5H51.0352V19ZM48.4513 19H48.9513V8.79155H48.4513H47.9513V19H48.4513ZM48.4513 8.79155V8.29155H44.6662V8.79155V9.29155H48.4513V8.79155ZM56.6923 18.6016L56.4445 19.0359L56.4475 19.0376L56.6923 18.6016ZM55.1106 16.9474L54.6664 17.177L54.667 17.178L55.1106 16.9474ZM55.1106 11.8945L54.6659 11.666V11.666L55.1106 11.8945ZM56.6742 10.2102L56.4185 9.78058L56.4173 9.78125L56.6742 10.2102ZM60.7612 9.90234L60.586 10.3707L60.5903 10.3722L60.7612 9.90234ZM62.1497 10.7777L61.798 11.1331L61.7998 11.1348L62.1497 10.7777ZM63.0794 12.2507L62.6111 12.4259L62.6115 12.427L63.0794 12.2507ZM63.4114 15.0217V15.5217H63.9114V15.0217H63.4114ZM55.5815 15.0217H55.0815V15.5217H55.5815V15.0217ZM55.5815 13.4279V12.9279H55.0815V13.4279H55.5815ZM60.9906 13.4279V13.9279H61.4906V13.4279H60.9906ZM60.7491 12.4439L60.3135 12.6893V12.6893L60.7491 12.4439ZM60.079 11.7738L59.8263 12.2053L59.8336 12.2094L60.079 11.7738ZM58.0567 11.7979L58.3122 12.2277L58.3139 12.2267L58.0567 11.7979ZM57.3564 12.5163L57.7912 12.7631L57.7926 12.7606L57.3564 12.5163ZM57.0968 13.5124L56.5968 13.5069V13.5124H57.0968ZM57.3503 16.217L56.9042 16.4427L56.9064 16.447L57.3503 16.217ZM59.9824 17.1406L59.8219 16.6671V16.6671L59.9824 17.1406ZM60.5922 16.7784L60.2473 16.4163H60.2473L60.5922 16.7784ZM60.9785 16.1868L61.0114 15.6879L60.6423 15.6635L60.511 16.0095L60.9785 16.1868ZM63.3571 16.3438L63.8463 16.4471L63.9655 15.8828L63.39 15.8448L63.3571 16.3438ZM62.6145 17.8409L62.2387 17.5112L62.2385 17.5114L62.6145 17.8409ZM61.1777 18.831L61.3634 19.2952L61.3651 19.2945L61.1777 18.831ZM59.1554 19.1811V18.6811C58.2695 18.6811 57.5364 18.502 56.9371 18.1656L56.6923 18.6016L56.4475 19.0376C57.2246 19.4738 58.1336 19.6811 59.1554 19.6811V19.1811ZM56.6923 18.6016L56.9401 18.1673C56.3411 17.8255 55.8811 17.3456 55.5543 16.7168L55.1106 16.9474L54.667 17.178C55.0807 17.974 55.6751 18.5968 56.4445 19.0358L56.6923 18.6016ZM55.1106 16.9474L55.5548 16.7179C55.2282 16.086 55.0552 15.3208 55.0552 14.4059H54.5552H54.0552C54.0552 15.447 54.2525 16.3761 54.6664 17.177L55.1106 16.9474ZM54.5552 14.4059H55.0552C55.0552 13.5175 55.2273 12.7612 55.5553 12.1231L55.1106 11.8945L54.6659 11.666C54.2534 12.4686 54.0552 13.3866 54.0552 14.4059H54.5552ZM55.1106 11.8945L55.5553 12.1231C55.8844 11.4827 56.3419 10.992 56.9311 10.6392L56.6742 10.2102L56.4173 9.78125C55.6623 10.2334 55.0773 10.8655 54.6659 11.666L55.1106 11.8945ZM56.6742 10.2102L56.9299 10.6399C57.5173 10.2902 58.219 10.1065 59.0527 10.1065V9.60653V9.10653C58.0674 9.10653 57.1833 9.32529 56.4185 9.78058L56.6742 10.2102ZM59.0527 9.60653V10.1065C59.6099 10.1065 60.1195 10.1962 60.586 10.3707L60.7612 9.90234L60.9364 9.43403C60.3484 9.21412 59.7191 9.10653 59.0527 9.10653V9.60653ZM60.7612 9.90234L60.5903 10.3722C61.055 10.5412 61.4558 10.7944 61.798 11.1331L62.1497 10.7777L62.5014 10.4223C62.0547 9.98019 61.5299 9.64983 60.9321 9.43245L60.7612 9.90234ZM62.1497 10.7777L61.7998 11.1348C62.1394 11.4676 62.412 11.8938 62.6111 12.4259L63.0794 12.2507L63.5477 12.0755C63.3041 11.4244 62.9569 10.8686 62.4996 10.4206L62.1497 10.7777ZM63.0794 12.2507L62.6115 12.427C62.8069 12.9459 62.9114 13.5719 62.9114 14.3153H63.4114H63.9114C63.9114 13.4811 63.7945 12.7308 63.5473 12.0744L63.0794 12.2507ZM63.4114 14.3153H62.9114V15.0217H63.4114H63.9114V14.3153H63.4114ZM63.4114 15.0217V14.5217H55.5815V15.0217V15.5217H63.4114V15.0217ZM55.5815 15.0217H56.0815V13.4279H55.5815H55.0815V15.0217H55.5815ZM55.5815 13.4279V13.9279H60.9906V13.4279V12.9279H55.5815V13.4279ZM60.9906 13.4279H61.4906C61.4906 12.9829 61.3931 12.5684 61.1847 12.1985L60.7491 12.4439L60.3135 12.6893C60.4271 12.8909 60.4906 13.1323 60.4906 13.4279H60.9906ZM60.7491 12.4439L61.1847 12.1985C60.9789 11.8331 60.6898 11.544 60.3244 11.3382L60.079 11.7738L59.8336 12.2094C60.0398 12.3256 60.1973 12.4832 60.3135 12.6893L60.7491 12.4439ZM60.079 11.7738L60.3317 11.3424C59.9627 11.1262 59.5449 11.0263 59.095 11.0263V11.5263V12.0263C59.3937 12.0263 59.6319 12.0914 59.8263 12.2052L60.079 11.7738ZM59.095 11.5263V11.0263C58.6242 11.0263 58.1872 11.1365 57.7994 11.3692L58.0567 11.7979L58.3139 12.2267C58.5298 12.0972 58.7851 12.0263 59.095 12.0263V11.5263ZM58.0567 11.7979L57.8011 11.3682C57.4279 11.5901 57.1321 11.8934 56.9201 12.272L57.3564 12.5163L57.7926 12.7606C57.9187 12.5355 58.0897 12.36 58.3122 12.2277L58.0567 11.7979ZM57.3564 12.5163L56.9215 12.2695C56.7078 12.6461 56.6017 13.0621 56.5968 13.5069L57.0968 13.5124L57.5967 13.5179C57.5999 13.2303 57.6669 12.9822 57.7912 12.7631L57.3564 12.5163ZM57.0968 13.5124H56.5968V15.0277H57.0968H57.5968V13.5124H57.0968ZM57.0968 15.0277H56.5968C56.5968 15.5475 56.6926 16.0247 56.9042 16.4427L57.3503 16.217L57.7965 15.9912C57.6699 15.7412 57.5968 15.4255 57.5968 15.0277H57.0968ZM57.3503 16.217L56.9064 16.447C57.1216 16.8625 57.431 17.1921 57.8309 17.4228L58.0808 16.9897L58.3307 16.5566C58.1028 16.4251 57.9251 16.2396 57.7943 15.987L57.3503 16.217ZM58.0808 16.9897L57.8309 17.4228C58.234 17.6553 58.6959 17.7614 59.1976 17.7614V17.2614V16.7614C58.8381 16.7614 58.5554 16.6863 58.3307 16.5566L58.0808 16.9897ZM59.1976 17.2614V17.7614C59.5305 17.7614 59.8471 17.7144 60.143 17.6142L59.9824 17.1406L59.8219 16.6671C59.6428 16.7278 59.4363 16.7614 59.1976 16.7614V17.2614ZM59.9824 17.1406L60.143 17.6142C60.444 17.5121 60.7115 17.3552 60.937 17.1405L60.5922 16.7784L60.2473 16.4163C60.1347 16.5236 59.9957 16.6082 59.8219 16.6671L59.9824 17.1406ZM60.5922 16.7784L60.937 17.1405C61.1639 16.9243 61.3328 16.6626 61.446 16.3641L60.9785 16.1868L60.511 16.0095C60.4471 16.1779 60.3584 16.3105 60.2473 16.4163L60.5922 16.7784ZM60.9785 16.1868L60.9456 16.6857L63.3242 16.8427L63.3571 16.3438L63.39 15.8448L61.0114 15.6879L60.9785 16.1868ZM63.3571 16.3438L62.8679 16.2404C62.7643 16.7305 62.5547 17.151 62.2387 17.5112L62.6145 17.8409L62.9904 18.1707C63.423 17.6776 63.7083 17.1 63.8463 16.4471L63.3571 16.3438ZM62.6145 17.8409L62.2385 17.5114C61.926 17.868 61.5148 18.1555 60.9904 18.3674L61.1777 18.831L61.3651 19.2945C62.0158 19.0316 62.5625 18.659 62.9906 18.1704L62.6145 17.8409ZM61.1777 18.831L60.9921 18.3667C60.4788 18.572 59.8698 18.6811 59.1554 18.6811V19.1811V19.6811C59.9703 19.6811 60.7095 19.5568 61.3634 19.2952L61.1777 18.831ZM66.6583 18.5774L66.4018 19.0066L66.4048 19.0084L66.6583 18.5774ZM65.0887 16.8871L64.642 17.1117L64.643 17.1137L65.0887 16.8871ZM65.0947 11.9006L64.65 11.672L64.6496 11.673L65.0947 11.9006ZM66.6704 10.2163L66.925 10.6466L66.9269 10.6455L66.6704 10.2163ZM71.2222 10.0472L71.4399 9.59707V9.59707L71.2222 10.0472ZM72.6651 11.2848L72.249 11.5622L72.6651 11.2848ZM73.2506 13.1562V13.6562H73.7766L73.75 13.131L73.2506 13.1562ZM70.8238 13.1562L70.3292 13.2294L70.3923 13.6562H70.8238V13.1562ZM70.2805 12.0394L69.9294 12.3955L69.9344 12.4003L70.2805 12.0394ZM68.0951 11.9368L68.3889 12.3414L68.3898 12.3407L68.0951 11.9368ZM67.4009 15.8729L66.9348 16.0539L66.9363 16.0578L67.4009 15.8729ZM68.0951 16.8207L68.3898 16.4168V16.4168L68.0951 16.8207ZM69.9303 16.9656L69.7037 16.5199L69.7006 16.5214L69.9303 16.9656ZM70.5159 16.4403L70.101 16.1613L70.0999 16.163L70.5159 16.4403ZM70.8238 15.6012V15.1012H70.3924L70.3292 15.5279L70.8238 15.6012ZM73.2506 15.6012L73.7498 15.6296L73.7799 15.1012H73.2506V15.6012ZM72.6711 17.4727L72.2503 17.2026L72.2498 17.2034L72.6711 17.4727ZM71.2524 18.7283L71.0288 18.2811V18.2811L71.2524 18.7283ZM69.1093 19.1811V18.6811C68.2311 18.6811 67.5053 18.4956 66.9118 18.1464L66.6583 18.5774L66.4048 19.0084C67.1797 19.4642 68.0879 19.6811 69.1093 19.6811V19.1811ZM66.6583 18.5774L66.9148 18.1482C66.3172 17.7911 65.8588 17.2986 65.5344 16.6605L65.0887 16.8871L64.643 17.1137C65.0511 17.9163 65.6391 18.5508 66.4018 19.0066L66.6583 18.5774ZM65.0887 16.8871L65.5354 16.6625C65.2135 16.0223 65.0454 15.2723 65.0454 14.3999H64.5454H64.0454C64.0454 15.4029 64.2395 16.3111 64.642 17.1117L65.0887 16.8871ZM64.5454 14.3999H65.0454C65.0454 13.5149 65.2157 12.7624 65.5399 12.1282L65.0947 11.9006L64.6496 11.673C64.2413 12.4715 64.0454 13.3851 64.0454 14.3999H64.5454ZM65.0947 11.9006L65.5394 12.1291C65.8678 11.4903 66.3281 10.9998 66.925 10.6466L66.6704 10.2163L66.4158 9.78595C65.6524 10.2377 65.0623 10.87 64.65 11.672L65.0947 11.9006ZM66.6704 10.2163L66.9269 10.6455C67.5163 10.2932 68.2331 10.1065 69.0972 10.1065V9.60653V9.10653C68.0859 9.10653 67.1848 9.32636 66.4139 9.78707L66.6704 10.2163ZM69.0972 9.60653V10.1065C69.8456 10.1065 70.4769 10.2423 71.0046 10.4974L71.2222 10.0472L71.4399 9.59707C70.7521 9.2646 69.9668 9.10653 69.0972 9.10653V9.60653ZM71.2222 10.0472L71.0046 10.4974C71.5367 10.7546 71.9473 11.1095 72.249 11.5622L72.6651 11.2848L73.0811 11.0075C72.6745 10.3976 72.1232 9.92742 71.4399 9.59707L71.2222 10.0472ZM72.6651 11.2848L72.249 11.5622C72.5472 12.0095 72.719 12.5437 72.7513 13.1815L73.2506 13.1562L73.75 13.131C73.7098 12.336 73.4912 11.6226 73.0811 11.0075L72.6651 11.2848ZM73.2506 13.1562V12.6562H70.8238V13.1562V13.6562H73.2506V13.1562ZM70.8238 13.1562L71.3184 13.0831C71.2363 12.5277 71.0121 12.0482 70.6265 11.6785L70.2805 12.0394L69.9344 12.4003C70.1365 12.594 70.2744 12.8591 70.3292 13.2294L70.8238 13.1562ZM70.2805 12.0394L70.6315 11.6834C70.2335 11.2908 69.7195 11.1108 69.1395 11.1108V11.6108V12.1108C69.5013 12.1108 69.7479 12.2165 69.9294 12.3954L70.2805 12.0394ZM69.1395 11.6108V11.1108C68.6441 11.1108 68.1908 11.248 67.8004 11.5329L68.0951 11.9368L68.3898 12.3407C68.5951 12.1909 68.838 12.1108 69.1395 12.1108V11.6108ZM68.0951 11.9368L67.8013 11.5322C67.4163 11.8117 67.1354 12.2074 66.943 12.686L67.4069 12.8725L67.8708 13.059C68.0084 12.7166 68.1863 12.4885 68.3889 12.3414L68.0951 11.9368ZM67.4069 12.8725L66.943 12.686C66.7479 13.1714 66.6594 13.7355 66.6594 14.3636H67.1594H67.6594C67.6594 13.8247 67.7359 13.3946 67.8708 13.059L67.4069 12.8725ZM67.1594 14.3636H66.6594C66.6594 14.9979 66.7453 15.566 66.9348 16.0539L67.4009 15.8729L67.8669 15.6919C67.7344 15.3506 67.6594 14.9126 67.6594 14.3636H67.1594ZM67.4009 15.8729L66.9363 16.0578C67.1288 16.5413 67.4118 16.941 67.8004 17.2246L68.0951 16.8207L68.3898 16.4168C68.1828 16.2657 68.0029 16.0335 67.8654 15.688L67.4009 15.8729ZM68.0951 16.8207L67.8004 17.2246C68.1908 17.5095 68.6441 17.6467 69.1395 17.6467V17.1467V16.6467C68.838 16.6467 68.5951 16.5665 68.3898 16.4168L68.0951 16.8207ZM69.1395 17.1467V17.6467C69.5037 17.6467 69.8476 17.5713 70.16 17.4097L69.9303 16.9656L69.7006 16.5214C69.5462 16.6013 69.3629 16.6467 69.1395 16.6467V17.1467ZM69.9303 16.9656L70.157 17.4112C70.4737 17.2502 70.7331 17.0159 70.9319 16.7177L70.5159 16.4403L70.0999 16.163C69.9928 16.3236 69.8619 16.4394 69.7037 16.5199L69.9303 16.9656ZM70.5159 16.4403L70.9308 16.7193C71.1359 16.4144 71.2611 16.0616 71.3184 15.6745L70.8238 15.6012L70.3292 15.5279C70.2899 15.7928 70.2099 15.9994 70.101 16.1613L70.5159 16.4403ZM70.8238 15.6012V16.1012H73.2506V15.6012V15.1012H70.8238V15.6012ZM73.2506 15.6012L72.7514 15.5728C72.7155 16.2046 72.5451 16.7433 72.2503 17.2026L72.6711 17.4727L73.0919 17.7427C73.4894 17.1234 73.7052 16.4144 73.7498 15.6296L73.2506 15.6012ZM72.6711 17.4727L72.2498 17.2034C71.9594 17.6578 71.557 18.017 71.0288 18.2811L71.2524 18.7283L71.476 19.1756C72.1552 18.836 72.6986 18.3581 73.0924 17.7419L72.6711 17.4727ZM71.2524 18.7283L71.0288 18.2811C70.5083 18.5414 69.8737 18.6811 69.1093 18.6811V19.1811V19.6811C69.995 19.6811 70.7892 19.519 71.476 19.1756L71.2524 18.7283ZM77.299 13.6392L76.799 13.6342V13.6392H77.299ZM77.299 19V19.5H77.799V19H77.299ZM74.7272 19H74.2272V19.5H74.7272V19ZM74.7272 6.63636V6.13636H74.2272V6.63636H74.7272ZM77.2265 6.63636H77.7265V6.13636H77.2265V6.63636ZM77.2265 11.3633H76.7265V11.8633H77.2265V11.3633ZM77.3352 11.3633V11.8633H77.6793L77.8022 11.5419L77.3352 11.3633ZM78.3494 10.0774L78.6259 10.494L78.6284 10.4923L78.3494 10.0774ZM81.7904 10.0291L81.5369 10.4601L81.5412 10.4626L81.7904 10.0291ZM82.9133 11.2305L82.4674 11.4568L82.4696 11.4609L82.9133 11.2305ZM83.3117 13.0959L82.8117 13.0931V13.0959H83.3117ZM83.3117 19V19.5H83.8117V19H83.3117ZM80.74 19H80.24V19.5H80.74V19ZM80.74 13.5547L80.24 13.5512V13.5547H80.74ZM80.3053 12.2205L79.9358 12.5573L79.9381 12.5599L80.3053 12.2205ZM78.1562 11.967L77.9145 11.5293L77.9117 11.5308L78.1562 11.967ZM77.5284 12.619L77.0875 12.383L77.0863 12.3853L77.5284 12.619ZM77.299 13.6392H76.799V19H77.299H77.799V13.6392H77.299ZM77.299 19V18.5H74.7272V19V19.5H77.299V19ZM74.7272 19H75.2272V6.63636H74.7272H74.2272V19H74.7272ZM74.7272 6.63636V7.13636H77.2265V6.63636V6.13636H74.7272V6.63636ZM77.2265 6.63636H76.7265V11.3633H77.2265H77.7265V6.63636H77.2265ZM77.2265 11.3633V11.8633H77.3352V11.3633V10.8633H77.2265V11.3633ZM77.3352 11.3633L77.8022 11.5419C77.9761 11.087 78.2499 10.7436 78.6259 10.494L78.3494 10.0774L78.0729 9.66084C77.5151 10.031 77.1128 10.5449 76.8681 11.1847L77.3352 11.3633ZM78.3494 10.0774L78.6284 10.4923C78.9941 10.2464 79.4761 10.1065 80.1061 10.1065V9.60653V9.10653C79.3275 9.10653 78.6383 9.2806 78.0704 9.66249L78.3494 10.0774ZM80.1061 9.60653V10.1065C80.6753 10.1065 81.1463 10.2303 81.5369 10.4601L81.7904 10.0291L82.0439 9.59815C81.4767 9.26447 80.8249 9.10653 80.1061 9.10653V9.60653ZM81.7904 10.0291L81.5412 10.4626C81.9353 10.6892 82.2434 11.0154 82.4675 11.4568L82.9133 11.2305L83.3591 11.0041C83.052 10.3991 82.6115 9.92447 82.0397 9.59567L81.7904 10.0291ZM82.9133 11.2305L82.4696 11.4609C82.6939 11.8929 82.8154 12.4308 82.8117 13.0931L83.3117 13.0959L83.8117 13.0987C83.8161 12.3121 83.672 11.6064 83.357 11L82.9133 11.2305ZM83.3117 13.0959H82.8117V19H83.3117H83.8117V13.0959H83.3117ZM83.3117 19V18.5H80.74V19V19.5H83.3117V19ZM80.74 19H81.24V13.5547H80.74H80.24V19H80.74ZM80.74 13.5547L81.24 13.5582C81.2446 12.9015 81.0772 12.3191 80.6726 11.8812L80.3053 12.2205L79.9381 12.5599C80.121 12.7578 80.2434 13.0649 80.24 13.5512L80.74 13.5547ZM80.3053 12.2205L80.6749 11.8837C80.2703 11.4398 79.7168 11.2436 79.0859 11.2436V11.7436V12.2436C79.5013 12.2436 79.7609 12.3654 79.9358 12.5573L80.3053 12.2205ZM79.0859 11.7436V11.2436C78.6629 11.2436 78.2678 11.3342 77.9145 11.5293L78.1562 11.967L78.3979 12.4047C78.5839 12.3019 78.8086 12.2436 79.0859 12.2436V11.7436ZM78.1562 11.967L77.9117 11.5308C77.5574 11.7294 77.2824 12.0188 77.0875 12.383L77.5284 12.619L77.9692 12.8549C78.0801 12.6476 78.2237 12.5023 78.4007 12.4031L78.1562 11.967ZM77.5284 12.619L77.0863 12.3853C76.892 12.753 76.8036 13.1755 76.799 13.6342L77.299 13.6392L77.7989 13.6443C77.8023 13.306 77.8669 13.0484 77.9704 12.8526L77.5284 12.619ZM96.1226 10.9648V11.4648H96.6851L96.6192 10.9063L96.1226 10.9648ZM93.4785 10.9648L92.9834 11.0347L93.0441 11.4648H93.4785V10.9648ZM93.1827 10.0533L92.745 10.295L92.7465 10.2978L93.1827 10.0533ZM92.6091 9.36506L92.2944 9.75352L92.2944 9.75352L92.6091 9.36506ZM91.8002 8.9304L91.6421 9.40474L91.644 9.40536L91.8002 8.9304ZM89.144 9.25639L89.4197 9.67351L89.4221 9.67187L89.144 9.25639ZM88.0392 10.6328L88.4975 10.8327L88.498 10.8316L88.0392 10.6328ZM88.0392 15.0398L87.5809 15.2397L87.582 15.2423L88.0392 15.0398ZM89.15 16.3981L88.8792 16.8184V16.8184L89.15 16.3981ZM91.77 16.718L91.6234 16.24L91.6216 16.2406L91.77 16.718ZM92.5729 16.3136L92.8751 16.7119L92.8794 16.7086L92.5729 16.3136ZM93.1525 15.6555L92.7255 15.3953L92.7225 15.4003L93.1525 15.6555ZM93.4785 14.7741L93.4808 14.2742L93.062 14.2722L92.9866 14.6842L93.4785 14.7741ZM96.1226 14.7862L96.619 14.8461L96.6862 14.2888L96.1249 14.2862L96.1226 14.7862ZM95.6095 16.4283L95.1657 16.1979L95.1651 16.1992L95.6095 16.4283ZM94.5168 17.8349L94.8518 18.206L94.852 18.2059L94.5168 17.8349ZM92.8868 18.8129L93.0637 19.2805L93.0653 19.2799L92.8868 18.8129ZM87.7977 18.4205L87.5479 18.8536L87.5488 18.8541L87.7977 18.4205ZM85.7452 16.2532L85.3029 16.4865L85.3037 16.488L85.7452 16.2532ZM85.7572 9.37713L86.1979 9.6134V9.6134L85.7572 9.37713ZM87.8219 7.21591L88.0693 7.6504L88.0708 7.64954L87.8219 7.21591ZM92.748 6.76918L92.5918 7.24414L92.5927 7.24444L92.748 6.76918ZM94.384 7.65057L94.0685 8.03843L94.0705 8.04003L94.384 7.65057ZM95.5431 9.05717L95.1024 9.29346L95.1038 9.29593L95.5431 9.05717ZM96.1226 10.9648V10.4648H93.4785V10.9648V11.4648H96.1226V10.9648ZM93.4785 10.9648L93.9736 10.8949C93.9178 10.4997 93.8018 10.1352 93.6188 9.80876L93.1827 10.0533L92.7465 10.2978C92.8613 10.5026 92.9426 10.7458 92.9834 11.0347L93.4785 10.9648ZM93.1827 10.0533L93.6204 9.81156C93.4411 9.48698 93.2087 9.20733 92.9239 8.97659L92.6091 9.36506L92.2944 9.75352C92.4765 9.9011 92.6264 10.0803 92.745 10.295L93.1827 10.0533ZM92.6091 9.36506L92.9239 8.97659C92.6401 8.74655 92.3158 8.57365 91.9564 8.45543L91.8002 8.9304L91.644 9.40536C91.8963 9.48838 92.1114 9.60525 92.2944 9.75352L92.6091 9.36506ZM91.8002 8.9304L91.9583 8.45606C91.6001 8.33664 91.2181 8.27947 90.8162 8.27947V8.77947V9.27947C91.1226 9.27947 91.3966 9.32292 91.6421 9.40474L91.8002 8.9304ZM90.8162 8.77947V8.27947C90.0895 8.27947 89.4327 8.4614 88.8658 8.84091L89.144 9.25639L89.4221 9.67187C89.8051 9.41549 90.263 9.27947 90.8162 9.27947V8.77947ZM89.144 9.25639L88.8682 8.83928C88.3004 9.21461 87.8744 9.75553 87.5804 10.434L88.0392 10.6328L88.498 10.8316C88.7272 10.3027 89.0377 9.92601 89.4197 9.6735L89.144 9.25639ZM88.0392 10.6328L87.5809 10.4329C87.2847 11.1119 87.1468 11.9125 87.1468 12.8182H87.6468H88.1468C88.1468 12.0094 88.2705 11.353 88.4975 10.8327L88.0392 10.6328ZM87.6468 12.8182H87.1468C87.1468 13.7458 87.284 14.5591 87.5809 15.2397L88.0392 15.0398L88.4975 14.8398C88.2712 14.3211 88.1468 13.6533 88.1468 12.8182H87.6468ZM88.0392 15.0398L87.582 15.2423C87.8807 15.9165 88.3097 16.4516 88.8792 16.8184L89.15 16.3981L89.4207 15.9777C89.0405 15.7328 88.729 15.3624 88.4964 14.8373L88.0392 15.0398ZM89.15 16.3981L88.8792 16.8184C89.4432 17.1817 90.0886 17.3569 90.7981 17.3569V16.8569V16.3569C90.2599 16.3569 89.8066 16.2263 89.4207 15.9777L89.15 16.3981ZM90.7981 16.8569V17.3569C91.1924 17.3569 91.5671 17.3047 91.9184 17.1955L91.77 16.718L91.6216 16.2406C91.3773 16.3165 91.104 16.3569 90.7981 16.3569V16.8569ZM91.77 16.718L91.9166 17.1961C92.2702 17.0876 92.5914 16.9271 92.8751 16.7119L92.5729 16.3136L92.2707 15.9152C92.0876 16.0541 91.8735 16.1633 91.6234 16.24L91.77 16.718ZM92.5729 16.3136L92.8794 16.7086C93.1631 16.4885 93.3979 16.2215 93.5824 15.9108L93.1525 15.6555L92.7225 15.4003C92.6012 15.6047 92.4496 15.7764 92.2664 15.9185L92.5729 16.3136ZM93.1525 15.6555L93.5794 15.9157C93.7717 15.6003 93.9002 15.2476 93.9703 14.8641L93.4785 14.7741L92.9866 14.6842C92.936 14.9607 92.8472 15.1956 92.7255 15.3954L93.1525 15.6555ZM93.4785 14.7741L93.4762 15.2741L96.1204 15.2862L96.1226 14.7862L96.1249 14.2862L93.4808 14.2742L93.4785 14.7741ZM96.1226 14.7862L95.6262 14.7264C95.5653 15.232 95.4129 15.7218 95.1657 16.1979L95.6095 16.4283L96.0533 16.6586C96.3535 16.0803 96.5432 15.4754 96.619 14.8461L96.1226 14.7862ZM95.6095 16.4283L95.1651 16.1992C94.9244 16.6662 94.598 17.0876 94.1816 17.4639L94.5168 17.8349L94.852 18.2059C95.3532 17.753 95.7554 17.2367 96.054 16.6573L95.6095 16.4283ZM94.5168 17.8349L94.1818 17.4637C93.7774 17.8288 93.2886 18.1241 92.7084 18.3458L92.8868 18.8129L93.0653 19.2799C93.7489 19.0187 94.3467 18.662 94.8518 18.206L94.5168 17.8349ZM92.8868 18.8129L92.71 18.3452C92.1479 18.5578 91.499 18.669 90.7558 18.669V19.169V19.669C91.5984 19.669 92.3701 19.5428 93.0637 19.2805L92.8868 18.8129ZM90.7558 19.169V18.669C89.7314 18.669 88.8328 18.4381 88.0466 17.9868L87.7977 18.4205L87.5488 18.8541C88.5013 19.4009 89.5747 19.669 90.7558 19.669V19.169ZM87.7977 18.4205L88.0475 17.9873C87.2694 17.5385 86.649 16.8877 86.1866 16.0184L85.7452 16.2532L85.3037 16.488C85.8475 17.5103 86.5955 18.3043 87.5479 18.8536L87.7977 18.4205ZM85.7452 16.2532L86.1874 16.0199C85.7348 15.1621 85.4966 14.1015 85.4966 12.8182H84.9966H84.4966C84.4966 14.2233 84.7574 15.4527 85.3029 16.4865L85.7452 16.2532ZM84.9966 12.8182H85.4966C85.4966 11.5317 85.7385 10.4702 86.1979 9.6134L85.7572 9.37713L85.3166 9.14086C84.7618 10.1756 84.4966 11.4082 84.4966 12.8182H84.9966ZM85.7572 9.37713L86.1979 9.6134C86.6639 8.74427 87.2877 8.09545 88.0693 7.6504L87.8219 7.21591L87.5744 6.78142C86.6174 7.32643 85.8648 8.11842 85.3166 9.14086L85.7572 9.37713ZM87.8219 7.21591L88.0708 7.64954C88.8581 7.19759 89.7489 6.96733 90.7558 6.96733V6.46733V5.96733C89.5894 5.96733 88.5243 6.23612 87.5729 6.78228L87.8219 7.21591ZM90.7558 6.46733V6.96733C91.425 6.96733 92.0358 7.06124 92.5918 7.24414L92.748 6.76918L92.9042 6.29421C92.2368 6.07465 91.5194 5.96733 90.7558 5.96733V6.46733ZM92.748 6.76918L92.5927 7.24444C93.1536 7.42773 93.6439 7.69299 94.0685 8.03842L94.384 7.65057L94.6996 7.26271C94.1743 6.83541 93.574 6.51308 92.9033 6.29391L92.748 6.76918ZM94.384 7.65057L94.0705 8.04003C94.4914 8.37892 94.8352 8.79509 95.1025 9.29346L95.5431 9.05717L95.9837 8.82088C95.6553 8.20846 95.2264 7.68689 94.6976 7.2611L94.384 7.65057ZM95.5431 9.05717L95.1038 9.29593C95.3713 9.78813 95.548 10.3614 95.6261 11.0234L96.1226 10.9648L96.6192 10.9063C96.5283 10.1356 96.3186 9.43701 95.9824 8.81842L95.5431 9.05717ZM99.5356 18.5835L99.2809 19.0138L99.2839 19.0155L99.5356 18.5835ZM97.9599 16.9052L97.5152 17.1337L97.5157 17.1348L97.9599 16.9052ZM97.9599 11.8885L98.4041 12.1181L98.4046 12.1171L97.9599 11.8885ZM99.5356 10.2102L99.7883 10.6417L99.7891 10.6412L99.5356 10.2102ZM104.395 10.2102L104.141 10.6405L104.144 10.6423L104.395 10.2102ZM105.977 11.8885L105.532 12.1171L105.533 12.1181L105.977 11.8885ZM105.977 16.9052L106.421 17.1348L106.422 17.1337L105.977 16.9052ZM104.395 18.5835L104.648 19.0149L104.649 19.0144L104.395 18.5835ZM103.049 16.8267L103.372 17.2086L103.375 17.206L103.049 16.8267ZM103.695 15.8246L103.223 15.6584L103.222 15.6624L103.695 15.8246ZM103.695 12.9389L103.222 13.1011L103.223 13.1051L103.695 12.9389ZM100.894 11.9368L100.573 11.5531L100.571 11.5553L100.894 11.9368ZM100.236 12.9389L99.7643 12.7727L99.7629 12.7768L100.236 12.9389ZM100.236 15.8246L99.7629 15.9867L99.7643 15.9907L100.236 15.8246ZM100.894 16.8267L100.571 17.2082L100.576 17.213L100.894 16.8267ZM101.968 19.1811V18.6811C101.103 18.6811 100.382 18.4977 99.7872 18.1514L99.5356 18.5835L99.2839 19.0155C100.058 19.466 100.959 19.6811 101.968 19.6811V19.1811ZM99.5356 18.5835L99.7902 18.1531C99.1925 17.7995 98.7322 17.3104 98.4041 16.6756L97.9599 16.9052L97.5157 17.1348C97.9282 17.9327 98.5183 18.5625 99.2809 19.0138L99.5356 18.5835ZM97.9599 16.9052L98.4046 16.6766C98.0765 16.0382 97.9045 15.2839 97.9045 14.3999H97.4045H96.9045C96.9045 15.4155 97.1028 16.3314 97.5152 17.1337L97.9599 16.9052ZM97.4045 14.3999H97.9045C97.9045 13.507 98.0768 12.7513 98.4041 12.1181L97.9599 11.8885L97.5157 11.6589C97.1025 12.4584 96.9045 13.377 96.9045 14.3999H97.4045ZM97.9599 11.8885L98.4046 12.1171C98.7327 11.4787 99.1924 10.9907 99.7883 10.6417L99.5356 10.2102L99.2828 9.7788C98.5184 10.2266 97.9277 10.8575 97.5152 11.6599L97.9599 11.8885ZM99.5356 10.2102L99.7891 10.6412C100.384 10.2915 101.104 10.1065 101.968 10.1065V9.60653V9.10653C100.958 9.10653 100.056 9.324 99.2821 9.77926L99.5356 10.2102ZM101.968 9.60653V10.1065C102.833 10.1065 103.551 10.2916 104.141 10.6405L104.395 10.2102L104.65 9.77991C103.879 9.32397 102.979 9.10653 101.968 9.10653V9.60653ZM104.395 10.2102L104.144 10.6423C104.743 10.9916 105.205 11.4795 105.532 12.1171L105.977 11.8885L106.422 11.6599C106.009 10.8567 105.416 10.2258 104.647 9.77815L104.395 10.2102ZM105.977 11.8885L105.533 12.1181C105.86 12.7513 106.032 13.507 106.032 14.3999H106.532H107.032C107.032 13.377 106.834 12.4584 106.421 11.6589L105.977 11.8885ZM106.532 14.3999H106.032C106.032 15.2839 105.86 16.0382 105.532 16.6766L105.977 16.9052L106.422 17.1337C106.834 16.3314 107.032 15.4155 107.032 14.3999H106.532ZM105.977 16.9052L105.533 16.6756C105.205 17.3096 104.743 17.7986 104.142 18.1525L104.395 18.5835L104.649 19.0144C105.416 18.5633 106.008 17.9335 106.421 17.1348L105.977 16.9052ZM104.395 18.5835L104.143 18.152C103.552 18.4977 102.834 18.6811 101.968 18.6811V19.1811V19.6811C102.978 19.6811 103.878 19.4661 104.648 19.0149L104.395 18.5835ZM101.981 17.1889V17.6889C102.508 17.6889 102.983 17.537 103.372 17.2086L103.049 16.8267L102.726 16.4448C102.543 16.5994 102.307 16.6889 101.981 16.6889V17.1889ZM103.049 16.8267L103.375 17.206C103.74 16.8925 104 16.4778 104.168 15.9867L103.695 15.8246L103.222 15.6624C103.101 16.0166 102.93 16.2699 102.723 16.4475L103.049 16.8267ZM103.695 15.8246L104.167 15.9907C104.338 15.5052 104.418 14.9665 104.418 14.3817H103.918H103.418C103.418 14.8756 103.35 15.2988 103.223 15.6584L103.695 15.8246ZM103.918 14.3817H104.418C104.418 13.797 104.338 13.2583 104.167 12.7727L103.695 12.9389L103.223 13.1051C103.35 13.4647 103.418 13.8879 103.418 14.3817H103.918ZM103.695 12.9389L104.168 12.7768C104 12.2857 103.74 11.871 103.375 11.5575L103.049 11.9368L102.723 12.316C102.93 12.4936 103.101 12.7469 103.222 13.1011L103.695 12.9389ZM103.049 11.9368L103.375 11.5575C102.986 11.2238 102.51 11.0685 101.981 11.0685V11.5685V12.0685C102.304 12.0685 102.54 12.1588 102.723 12.316L103.049 11.9368ZM101.981 11.5685V11.0685C101.448 11.0685 100.968 11.2231 100.573 11.5531L100.894 11.9368L101.214 12.3205C101.407 12.1595 101.652 12.0685 101.981 12.0685V11.5685ZM100.894 11.9368L100.571 11.5553C100.202 11.8677 99.9373 12.2816 99.7643 12.7727L100.236 12.9389L100.707 13.1051C100.832 12.751 101.006 12.4969 101.217 12.3183L100.894 11.9368ZM100.236 12.9389L99.7629 12.7768C99.5968 13.2611 99.5185 13.7983 99.5185 14.3817H100.019H100.519C100.519 13.8866 100.585 13.4619 100.709 13.1011L100.236 12.9389ZM100.019 14.3817H99.5185C99.5185 14.9652 99.5968 15.5024 99.7629 15.9867L100.236 15.8246L100.709 15.6624C100.585 15.3016 100.519 14.8769 100.519 14.3817H100.019ZM100.236 15.8246L99.7643 15.9907C99.9373 16.4818 100.202 16.8958 100.571 17.2082L100.894 16.8267L101.217 16.4452C101.006 16.2666 100.832 16.0125 100.707 15.6584L100.236 15.8246ZM100.894 16.8267L100.576 17.213C100.971 17.5377 101.45 17.6889 101.981 17.6889V17.1889V16.6889C101.649 16.6889 101.404 16.5987 101.211 16.4404L100.894 16.8267ZM110.606 13.6392L110.106 13.6342V13.6392H110.606ZM110.606 19V19.5H111.106V19H110.606ZM108.035 19H107.535V19.5H108.035V19ZM108.035 9.72727V9.22727H107.535V9.72727H108.035ZM110.486 9.72727H110.986V9.22727H110.486V9.72727ZM110.486 11.3633H109.986V11.8633H110.486V11.3633ZM110.594 11.3633V11.8633H110.939L111.062 11.5411L110.594 11.3633ZM111.627 10.0835L111.899 10.5027L111.902 10.5011L111.627 10.0835ZM115.068 10.0291L115.321 9.59815L115.068 10.0291ZM116.184 11.2365L115.739 11.4629L115.739 11.4642L116.184 11.2365ZM116.583 19V19.5H117.083V19H116.583ZM114.011 19H113.511V19.5H114.011V19ZM114.011 13.5547L113.511 13.5511V13.5547H114.011ZM113.576 12.2266L113.207 12.5636L113.209 12.5659L113.576 12.2266ZM111.445 11.967L111.201 11.5308L111.198 11.5324L111.445 11.967ZM110.83 12.619L110.386 12.3879L110.385 12.3903L110.83 12.619ZM110.606 13.6392H110.106V19H110.606H111.106V13.6392H110.606ZM110.606 19V18.5H108.035V19V19.5H110.606V19ZM108.035 19H108.535V9.72727H108.035H107.535V19H108.035ZM108.035 9.72727V10.2273H110.486V9.72727V9.22727H108.035V9.72727ZM110.486 9.72727H109.986V11.3633H110.486H110.986V9.72727H110.486ZM110.486 11.3633V11.8633H110.594V11.3633V10.8633H110.486V11.3633ZM110.594 11.3633L111.062 11.5411C111.229 11.1007 111.505 10.7587 111.899 10.5027L111.627 10.0835L111.354 9.66423C110.782 10.036 110.37 10.5472 110.127 11.1854L110.594 11.3633ZM111.627 10.0835L111.902 10.5011C112.288 10.2464 112.774 10.1065 113.383 10.1065V9.60653V9.10653C112.616 9.10653 111.931 9.28462 111.352 9.66583L111.627 10.0835ZM113.383 9.60653V10.1065C113.952 10.1065 114.424 10.2303 114.814 10.4601L115.068 10.0291L115.321 9.59815C114.754 9.26447 114.102 9.10653 113.383 9.10653V9.60653ZM115.068 10.0291L114.814 10.4601C115.206 10.6906 115.514 11.0198 115.739 11.4629L116.184 11.2365L116.63 11.0102C116.324 10.4068 115.887 9.93108 115.321 9.59815L115.068 10.0291ZM116.184 11.2365L115.739 11.4642C115.961 11.8983 116.083 12.4364 116.083 13.0959H116.583H117.083C117.083 12.3146 116.939 11.6131 116.63 11.0088L116.184 11.2365ZM116.583 13.0959H116.083V19H116.583H117.083V13.0959H116.583ZM116.583 19V18.5H114.011V19V19.5H116.583V19ZM114.011 19H114.511V13.5547H114.011H113.511V19H114.011ZM114.011 13.5547L114.511 13.5582C114.516 12.9044 114.348 12.3245 113.944 11.8872L113.576 12.2266L113.209 12.5659C113.393 12.7645 113.515 13.07 113.511 13.5511L114.011 13.5547ZM113.576 12.2266L113.946 11.8895C113.54 11.4448 112.991 11.2436 112.363 11.2436V11.7436V12.2436C112.766 12.2436 113.025 12.3644 113.207 12.5636L113.576 12.2266ZM112.363 11.7436V11.2436C111.943 11.2436 111.551 11.3346 111.201 11.5308L111.445 11.967L111.69 12.4031C111.871 12.3015 112.091 12.2436 112.363 12.2436V11.7436ZM111.445 11.967L111.198 11.5324C110.847 11.7323 110.576 12.0232 110.386 12.3879L110.83 12.619L111.273 12.85C111.381 12.6433 111.521 12.4995 111.693 12.4015L111.445 11.967ZM110.83 12.619L110.385 12.3903C110.197 12.7568 110.111 13.1775 110.106 13.6342L110.606 13.6392L111.106 13.6443C111.11 13.3041 111.173 13.0446 111.274 12.8476L110.83 12.619ZM126.155 12.3714L126.186 12.8705L126.721 12.8376L126.651 12.306L126.155 12.3714ZM123.801 12.5163L123.31 12.6144L123.396 13.0422L123.831 13.0154L123.801 12.5163ZM123.541 11.973L123.151 12.2865L123.155 12.2912L123.541 11.973ZM123.016 11.5806L122.802 12.0329L122.813 12.0375L123.016 11.5806ZM121.241 11.6832L121.499 12.1115L121.504 12.1086L121.241 11.6832ZM121.096 12.9087L120.769 13.2871V13.2871L121.096 12.9087ZM122.008 13.277L121.903 13.7659L121.909 13.7671L122.008 13.277ZM123.686 13.6151L123.786 13.1253L123.785 13.1249L123.686 13.6151ZM125.702 14.5085L125.362 14.8752V14.8752L125.702 14.5085ZM125.829 17.7262L125.435 17.4185L125.433 17.4207L125.829 17.7262ZM124.368 18.8008L124.558 19.2631L124.56 19.2625L124.368 18.8008ZM119.303 18.4144L119.013 18.8219L119.016 18.8237L119.303 18.4144ZM118.029 16.3136L118.003 15.8143L117.458 15.8429L117.534 16.3833L118.029 16.3136ZM120.559 16.1808L121.049 16.0807L120.962 15.6589L120.533 15.6814L120.559 16.1808ZM121.114 17.038L120.835 17.4532L120.839 17.4558L121.114 17.038ZM123.33 17.0682L123.597 17.4908L123.599 17.4898L123.33 17.0682ZM123.752 16.386L124.252 16.3933L124.252 16.3853L124.252 16.3774L123.752 16.386ZM123.456 15.8125L123.146 16.2046L123.151 16.2085L123.456 15.8125ZM122.563 15.4624L122.661 14.9721L122.661 14.972L122.563 15.4624ZM120.957 15.1424L120.859 15.6327L120.859 15.6328L120.957 15.1424ZM118.935 14.2006L118.578 14.551L118.58 14.5526L118.935 14.2006ZM118.76 10.9528L118.361 10.651L118.359 10.6534L118.76 10.9528ZM120.13 9.95668L119.947 9.49157L119.946 9.492L120.13 9.95668ZM124.972 10.3491L124.675 10.7517L124.676 10.7525L124.972 10.3491ZM126.155 12.3714L126.124 11.8724L123.77 12.0173L123.801 12.5163L123.831 13.0154L126.186 12.8705L126.155 12.3714ZM123.801 12.5163L124.291 12.4183C124.234 12.1347 124.111 11.8783 123.927 11.6548L123.541 11.973L123.155 12.2912C123.237 12.3897 123.287 12.4955 123.31 12.6144L123.801 12.5163ZM123.541 11.973L123.931 11.6595C123.742 11.4253 123.5 11.2486 123.219 11.1237L123.016 11.5806L122.813 12.0375C122.966 12.1058 123.074 12.1907 123.151 12.2865L123.541 11.973ZM123.016 11.5806L123.229 11.1284C122.934 10.9892 122.602 10.9297 122.249 10.9297V11.4297V11.9297C122.492 11.9297 122.671 11.9708 122.802 12.0328L123.016 11.5806ZM122.249 11.4297V10.9297C121.78 10.9297 121.348 11.0296 120.978 11.2578L121.241 11.6832L121.504 12.1086C121.681 11.9988 121.921 11.9297 122.249 11.9297V11.4297ZM121.241 11.6832L120.983 11.255C120.586 11.4944 120.33 11.8651 120.33 12.3473H120.83H121.33C121.33 12.2741 121.349 12.2021 121.499 12.1114L121.241 11.6832ZM120.83 12.3473H120.33C120.33 12.7231 120.489 13.0454 120.769 13.2871L121.096 12.9087L121.423 12.5303C121.349 12.4662 121.33 12.4142 121.33 12.3473H120.83ZM121.096 12.9087L120.769 13.2871C121.044 13.5246 121.45 13.6686 121.903 13.7658L122.008 13.277L122.113 12.7882C121.704 12.7002 121.502 12.5987 121.423 12.5303L121.096 12.9087ZM122.008 13.277L121.909 13.7671L123.587 14.1052L123.686 13.6151L123.785 13.1249L122.106 12.7868L122.008 13.277ZM123.686 13.6151L123.585 14.1048C124.441 14.2805 125.013 14.5513 125.362 14.8752L125.702 14.5085L126.042 14.1419C125.506 13.6448 124.734 13.3199 123.786 13.1253L123.686 13.6151ZM125.702 14.5085L125.362 14.8752C125.691 15.1804 125.866 15.581 125.866 16.1264H126.366H126.866C126.866 15.3356 126.598 14.6577 126.042 14.1419L125.702 14.5085ZM126.366 16.1264H125.866C125.866 16.6279 125.721 17.0517 125.435 17.4185L125.829 17.7262L126.223 18.0339C126.653 17.4831 126.866 16.8404 126.866 16.1264H126.366ZM125.829 17.7262L125.433 17.4207C125.14 17.8003 124.728 18.1096 124.176 18.3391L124.368 18.8008L124.56 19.2625C125.247 18.9768 125.81 18.5697 126.225 18.0317L125.829 17.7262ZM124.368 18.8008L124.178 18.3384C123.633 18.5625 122.99 18.6811 122.237 18.6811V19.1811V19.6811C123.094 19.6811 123.871 19.5461 124.558 19.2631L124.368 18.8008ZM122.237 19.1811V18.6811C121.074 18.6811 120.208 18.4386 119.59 18.0051L119.303 18.4144L119.016 18.8237C119.855 19.4125 120.945 19.6811 122.237 19.6811V19.1811ZM119.303 18.4144L119.593 18.0069C118.981 17.5719 118.63 16.9941 118.524 16.2438L118.029 16.3136L117.534 16.3833C117.678 17.4038 118.176 18.2266 119.013 18.8219L119.303 18.4144ZM118.029 16.3136L118.055 16.8129L120.585 16.6801L120.559 16.1808L120.533 15.6814L118.003 15.8143L118.029 16.3136ZM120.559 16.1808L120.069 16.2808C120.169 16.7725 120.423 17.1766 120.835 17.4531L121.114 17.038L121.393 16.6228C121.217 16.505 121.101 16.3376 121.049 16.0807L120.559 16.1808ZM121.114 17.038L120.839 17.4558C121.236 17.7167 121.716 17.8278 122.243 17.8278V17.3278V16.8278C121.853 16.8278 121.58 16.7456 121.389 16.6202L121.114 17.038ZM122.243 17.3278V17.8278C122.753 17.8278 123.218 17.7306 123.597 17.4908L123.33 17.0682L123.062 16.6456C122.894 16.7519 122.635 16.8278 122.243 16.8278V17.3278ZM123.33 17.0682L123.599 17.4898C123.988 17.2417 124.245 16.8723 124.252 16.3933L123.752 16.386L123.252 16.3788C123.251 16.4551 123.227 16.5405 123.061 16.6466L123.33 17.0682ZM123.752 16.386L124.252 16.3774C124.245 15.9842 124.069 15.6534 123.762 15.4165L123.456 15.8125L123.151 16.2085C123.23 16.2694 123.251 16.3209 123.252 16.3946L123.752 16.386ZM123.456 15.8125L123.767 15.4205C123.483 15.1961 123.096 15.059 122.661 14.9721L122.563 15.4624L122.465 15.9526C122.835 16.0267 123.043 16.123 123.146 16.2045L123.456 15.8125ZM122.563 15.4624L122.661 14.972L121.055 14.652L120.957 15.1424L120.859 15.6328L122.465 15.9527L122.563 15.4624ZM120.957 15.1424L121.055 14.6521C120.204 14.4819 119.637 14.1988 119.29 13.8487L118.935 14.2006L118.58 14.5526C119.118 15.0959 119.899 15.4407 120.859 15.6327L120.957 15.1424ZM118.935 14.2006L119.292 13.8503C118.955 13.5073 118.777 13.0685 118.777 12.4922H118.277H117.777C117.777 13.3003 118.037 14.0005 118.578 14.551L118.935 14.2006ZM118.277 12.4922H118.777C118.777 11.9922 118.91 11.587 119.16 11.2522L118.76 10.9528L118.359 10.6534C117.966 11.1798 117.777 11.8009 117.777 12.4922H118.277ZM118.76 10.9528L119.158 11.2546C119.42 10.9084 119.797 10.6269 120.315 10.4214L120.13 9.95668L119.946 9.492C119.288 9.75332 118.751 10.1359 118.361 10.651L118.76 10.9528ZM120.13 9.95668L120.314 10.4218C120.834 10.2163 121.462 10.1065 122.207 10.1065V9.60653V9.10653C121.366 9.10653 120.609 9.23017 119.947 9.49157L120.13 9.95668ZM122.207 9.60653V10.1065C123.313 10.1065 124.118 10.3409 124.675 10.7517L124.972 10.3491L125.268 9.94649C124.482 9.36721 123.443 9.10653 122.207 9.10653V9.60653ZM124.972 10.3491L124.676 10.7525C125.239 11.1645 125.564 11.7148 125.659 12.4369L126.155 12.3714L126.651 12.306C126.521 11.3216 126.057 10.5237 125.267 9.94564L124.972 10.3491ZM133.762 15.0518H133.262L133.262 15.0567L133.762 15.0518ZM133.762 9.72727V9.22727H133.262V9.72727H133.762ZM136.334 9.72727H136.834V9.22727H136.334V9.72727ZM136.334 19V19.5H136.834V19H136.334ZM133.865 19H133.365V19.5H133.865V19ZM133.865 17.3157H134.365V16.8157H133.865V17.3157ZM133.768 17.3157V16.8157H133.425L133.302 17.136L133.768 17.3157ZM132.724 18.6257L132.443 18.2118L132.442 18.2129L132.724 18.6257ZM129.319 18.6982L129.576 18.2691V18.2691L129.319 18.6982ZM128.214 17.4968L127.768 17.7218L127.769 17.7245L128.214 17.4968ZM127.816 15.6314H127.316L127.316 15.6342L127.816 15.6314ZM127.816 9.72727V9.22727H127.316V9.72727H127.816ZM130.387 9.72727H130.887V9.22727H130.387V9.72727ZM130.387 15.1726H129.887L129.887 15.1763L130.387 15.1726ZM130.828 16.4705L131.198 16.1337V16.1337L130.828 16.4705ZM132.863 16.7362L133.094 17.1794L133.099 17.1766L132.863 16.7362ZM133.515 16.0962L133.086 15.839L133.083 15.8435L133.515 16.0962ZM133.762 15.0518H134.262V9.72727H133.762H133.262V15.0518H133.762ZM133.762 9.72727V10.2273H136.334V9.72727V9.22727H133.762V9.72727ZM136.334 9.72727H135.834V19H136.334H136.834V9.72727H136.334ZM136.334 19V18.5H133.865V19V19.5H136.334V19ZM133.865 19H134.365V17.3157H133.865H133.365V19H133.865ZM133.865 17.3157V16.8157H133.768V17.3157V17.8157H133.865V17.3157ZM133.768 17.3157L133.302 17.136C133.129 17.583 132.847 17.9384 132.443 18.2118L132.724 18.6257L133.004 19.0396C133.575 18.653 133.988 18.135 134.235 17.4954L133.768 17.3157ZM132.724 18.6257L132.442 18.2129C132.057 18.476 131.57 18.6207 130.955 18.6207V19.1207V19.6207C131.732 19.6207 132.425 19.4355 133.006 19.0385L132.724 18.6257ZM130.955 19.1207V18.6207C130.414 18.6207 129.959 18.4986 129.576 18.2691L129.319 18.6982L129.062 19.1272C129.62 19.4611 130.257 19.6207 130.955 19.6207V19.1207ZM129.319 18.6982L129.576 18.2691C129.19 18.0385 128.885 17.7103 128.659 17.2691L128.214 17.4968L127.769 17.7245C128.075 18.3217 128.506 18.7943 129.062 19.1272L129.319 18.6982ZM128.214 17.4968L128.661 17.2718C128.441 16.8365 128.319 16.2944 128.316 15.6286L127.816 15.6314L127.316 15.6342C127.32 16.4172 127.464 17.1188 127.768 17.7218L128.214 17.4968ZM127.816 15.6314H128.316V9.72727H127.816H127.316V15.6314H127.816ZM127.816 9.72727V10.2273H130.387V9.72727V9.22727H127.816V9.72727ZM130.387 9.72727H129.887V15.1726H130.387H130.887V9.72727H130.387ZM130.387 15.1726L129.887 15.1763C129.892 15.8122 130.065 16.3755 130.459 16.8073L130.828 16.4705L131.198 16.1337C131.012 15.9297 130.891 15.6276 130.887 15.1689L130.387 15.1726ZM130.828 16.4705L130.459 16.8073C130.856 17.2435 131.386 17.4474 131.993 17.4474V16.9474V16.4474C131.626 16.4474 131.38 16.3334 131.198 16.1337L130.828 16.4705ZM131.993 16.9474V17.4474C132.382 17.4474 132.752 17.3582 133.094 17.1793L132.863 16.7362L132.631 16.293C132.434 16.3958 132.224 16.4474 131.993 16.4474V16.9474ZM132.863 16.7362L133.099 17.1766C133.455 16.9853 133.738 16.7045 133.946 16.3489L133.515 16.0962L133.083 15.8435C132.961 16.0515 132.809 16.1972 132.626 16.2957L132.863 16.7362ZM133.515 16.0962L133.943 16.3535C134.171 15.9744 134.267 15.5299 134.262 15.047L133.762 15.0518L133.262 15.0567C133.265 15.4029 133.196 15.6547 133.086 15.839L133.515 16.0962ZM140.793 6.63636H141.293V6.13636H140.793V6.63636ZM140.793 19V19.5H141.293V19H140.793ZM138.221 19H137.721V19.5H138.221V19ZM138.221 6.63636V6.13636H137.721V6.63636H138.221ZM140.793 6.63636H140.293V19H140.793H141.293V6.63636H140.793ZM140.793 19V18.5H138.221V19V19.5H140.793V19ZM138.221 19H138.721V6.63636H138.221H137.721V19H138.221ZM138.221 6.63636V7.13636H140.793V6.63636V6.13636H138.221V6.63636ZM147.615 9.72727H148.115V9.22727H147.615V9.72727ZM147.615 11.6591V12.1591H148.115V11.6591H147.615ZM142.031 11.6591H141.531V12.1591H142.031V11.6591ZM142.031 9.72727V9.22727H141.531V9.72727H142.031ZM143.298 7.50568V7.00568H142.798V7.50568H143.298ZM145.87 7.50568H146.37V7.00568H145.87V7.50568ZM145.979 16.706L145.54 16.9454L145.543 16.9511L145.979 16.706ZM146.281 16.9776L146.093 17.4409L146.097 17.4428L146.281 16.9776ZM147.102 17.0259L147.184 17.5191L147.192 17.5178L147.2 17.5162L147.102 17.0259ZM147.379 16.9716L147.869 16.8682L147.768 16.3901L147.287 16.4802L147.379 16.9716ZM147.784 18.8853L147.933 19.3625L148.367 19.2269L148.273 18.7819L147.784 18.8853ZM147.241 19.0241L147.131 18.5362L147.123 18.5381L147.241 19.0241ZM146.389 19.1268L146.371 18.6271L146.37 18.6272L146.389 19.1268ZM144.759 18.8793L144.57 19.3421L144.572 19.3427L144.759 18.8793ZM143.679 17.9979L144.099 17.7264V17.7264L143.679 17.9979ZM143.298 16.4886L143.798 16.4919V16.4886H143.298ZM147.615 9.72727H147.115V11.6591H147.615H148.115V9.72727H147.615ZM147.615 11.6591V11.1591H142.031V11.6591V12.1591H147.615V11.6591ZM142.031 11.6591H142.531V9.72727H142.031H141.531V11.6591H142.031ZM142.031 9.72727V10.2273H147.615V9.72727V9.22727H142.031V9.72727ZM143.298 7.50568V8.00568H145.87V7.50568V7.00568H143.298V7.50568ZM145.87 7.50568H145.37V16.1506H145.87H146.37V7.50568H145.87ZM145.87 16.1506H145.37C145.37 16.4286 145.411 16.7088 145.54 16.9454L145.979 16.706L146.418 16.4665C146.402 16.4375 146.37 16.3475 146.37 16.1506H145.87ZM145.979 16.706L145.543 16.9511C145.667 17.1718 145.852 17.3432 146.093 17.4409L146.281 16.9776L146.469 16.5144C146.452 16.5075 146.435 16.4977 146.415 16.4608L145.979 16.706ZM146.281 16.9776L146.097 17.4428C146.3 17.5225 146.517 17.5561 146.74 17.5561V17.0561V16.5561C146.616 16.5561 146.527 16.5374 146.464 16.5124L146.281 16.9776ZM146.74 17.0561V17.5561C146.888 17.5561 147.036 17.5437 147.184 17.5191L147.102 17.0259L147.02 16.5327C146.926 16.5484 146.832 16.5561 146.74 16.5561V17.0561ZM147.102 17.0259L147.2 17.5162C147.32 17.4922 147.41 17.4745 147.472 17.463L147.379 16.9716L147.287 16.4802C147.22 16.4928 147.125 16.5114 147.004 16.5356L147.102 17.0259ZM147.379 16.9716L146.89 17.075L147.295 18.9887L147.784 18.8853L148.273 18.7819L147.869 16.8682L147.379 16.9716ZM147.784 18.8853L147.635 18.4081C147.525 18.4422 147.36 18.485 147.131 18.5363L147.241 19.0241L147.35 19.512C147.588 19.4586 147.785 19.4088 147.933 19.3625L147.784 18.8853ZM147.241 19.0241L147.123 18.5381C146.932 18.5842 146.684 18.6158 146.371 18.6271L146.389 19.1268L146.407 19.6264C146.763 19.6136 147.082 19.5768 147.358 19.5102L147.241 19.0241ZM146.389 19.1268L146.37 18.6272C145.805 18.6492 145.335 18.573 144.947 18.4159L144.759 18.8793L144.572 19.3427C145.118 19.5639 145.734 19.6527 146.409 19.6264L146.389 19.1268ZM144.759 18.8793L144.949 18.4164C144.575 18.2638 144.298 18.0342 144.099 17.7264L143.679 17.9979L143.259 18.2693C143.575 18.7584 144.018 19.1165 144.57 19.3421L144.759 18.8793ZM143.679 17.9979L144.099 17.7264C143.907 17.43 143.795 17.0294 143.798 16.4919L143.298 16.4886L142.799 16.4853C142.794 17.1633 142.935 17.7689 143.259 18.2693L143.679 17.9979ZM143.298 16.4886H143.798V7.50568H143.298H142.798V16.4886H143.298Z" fill="#B3B3B3" mask="url(#path-4-outside-1_1_3030)"/>
<path d="M56.505 29V23.9091H59.9354V24.7965H57.5813V26.0096H59.7589V26.897H57.5813V28.1126H59.9453V29H56.505ZM67.6393 23.9091V29H66.7096L64.4947 25.7958H64.4575V29H63.3811V23.9091H64.3257L66.5232 27.1108H66.5679V23.9091H67.6393ZM74.4943 25.5547C74.4595 25.4337 74.4106 25.3268 74.3476 25.234C74.2846 25.1396 74.2076 25.06 74.1164 24.9954C74.0269 24.9291 73.9242 24.8786 73.8082 24.8438C73.6938 24.8089 73.5671 24.7915 73.4279 24.7915C73.1677 24.7915 72.939 24.8562 72.7418 24.9854C72.5462 25.1147 72.3938 25.3028 72.2844 25.5497C72.175 25.795 72.1203 26.0949 72.1203 26.4496C72.1203 26.8042 72.1742 27.1058 72.2819 27.3544C72.3896 27.603 72.5421 27.7927 72.7393 27.9237C72.9365 28.0529 73.1693 28.1175 73.4378 28.1175C73.6814 28.1175 73.8894 28.0745 74.0617 27.9883C74.2358 27.9004 74.3683 27.777 74.4595 27.6179C74.5523 27.4588 74.5987 27.2707 74.5987 27.0536L74.8174 27.0859H73.5049V26.2756H75.6353V26.9169C75.6353 27.3643 75.5408 27.7488 75.3519 28.0703C75.163 28.3902 74.9028 28.6371 74.5713 28.8111C74.2399 28.9834 73.8604 29.0696 73.4328 29.0696C72.9556 29.0696 72.5363 28.9644 72.175 28.7539C71.8138 28.5418 71.532 28.241 71.3299 27.8516C71.1293 27.4605 71.0291 26.9964 71.0291 26.4595C71.0291 26.0469 71.0887 25.679 71.2081 25.3558C71.329 25.031 71.4981 24.7559 71.7152 24.5305C71.9322 24.3052 72.185 24.1336 72.4733 24.016C72.7617 23.8983 73.0741 23.8395 73.4105 23.8395C73.6988 23.8395 73.9673 23.8817 74.2159 23.9663C74.4644 24.0491 74.6849 24.1668 74.8771 24.3192C75.071 24.4717 75.2292 24.6532 75.3519 24.8636C75.4745 25.0724 75.5532 25.3028 75.588 25.5547H74.4943ZM80.1101 23.9091V29H79.0338V23.9091H80.1101ZM87.8438 23.9091V29H86.9142L84.6993 25.7958H84.662V29H83.5857V23.9091H84.5303L86.7277 27.1108H86.7725V23.9091H87.8438ZM91.3231 29V23.9091H94.7535V24.7965H92.3995V26.0096H94.577V26.897H92.3995V28.1126H94.7635V29H91.3231ZM98.1993 29V23.9091H101.63V24.7965H99.2756V26.0096H101.453V26.897H99.2756V28.1126H101.64V29H98.1993ZM105.075 29V23.9091H107.084C107.468 23.9091 107.797 23.9779 108.068 24.1154C108.342 24.2513 108.55 24.4444 108.692 24.6946C108.836 24.9432 108.908 25.2357 108.908 25.5721C108.908 25.9102 108.836 26.201 108.69 26.4446C108.544 26.6866 108.333 26.8722 108.056 27.0014C107.781 27.1307 107.448 27.1953 107.057 27.1953H105.712V26.3303H106.883C107.088 26.3303 107.259 26.3021 107.395 26.2457C107.531 26.1894 107.632 26.1049 107.698 25.9922C107.766 25.8795 107.8 25.7395 107.8 25.5721C107.8 25.4031 107.766 25.2605 107.698 25.1445C107.632 25.0285 107.53 24.9407 107.392 24.881C107.256 24.8197 107.085 24.7891 106.878 24.7891H106.152V29H105.075ZM107.825 26.6832L109.09 29H107.902L106.664 26.6832H107.825ZM113.336 23.9091V29H112.259V23.9091H113.336ZM121.069 23.9091V29H120.14L117.925 25.7958H117.887V29H116.811V23.9091H117.756L119.953 27.1108H119.998V23.9091H121.069ZM127.924 25.5547C127.889 25.4337 127.841 25.3268 127.778 25.234C127.715 25.1396 127.638 25.06 127.546 24.9954C127.457 24.9291 127.354 24.8786 127.238 24.8438C127.124 24.8089 126.997 24.7915 126.858 24.7915C126.598 24.7915 126.369 24.8562 126.172 24.9854C125.976 25.1147 125.824 25.3028 125.714 25.5497C125.605 25.795 125.55 26.0949 125.55 26.4496C125.55 26.8042 125.604 27.1058 125.712 27.3544C125.82 27.603 125.972 27.7927 126.169 27.9237C126.366 28.0529 126.599 28.1175 126.868 28.1175C127.111 28.1175 127.319 28.0745 127.492 27.9883C127.666 27.9004 127.798 27.777 127.889 27.6179C127.982 27.4588 128.029 27.2707 128.029 27.0536L128.247 27.0859H126.935V26.2756H129.065V26.9169C129.065 27.3643 128.971 27.7488 128.782 28.0703C128.593 28.3902 128.333 28.6371 128.001 28.8111C127.67 28.9834 127.29 29.0696 126.863 29.0696C126.386 29.0696 125.966 28.9644 125.605 28.7539C125.244 28.5418 124.962 28.241 124.76 27.8516C124.559 27.4605 124.459 26.9964 124.459 26.4595C124.459 26.0469 124.519 25.679 124.638 25.3558C124.759 25.031 124.928 24.7559 125.145 24.5305C125.362 24.3052 125.615 24.1336 125.903 24.016C126.192 23.8983 126.504 23.8395 126.84 23.8395C127.129 23.8395 127.397 23.8817 127.646 23.9663C127.894 24.0491 128.115 24.1668 128.307 24.3192C128.501 24.4717 128.659 24.6532 128.782 24.8636C128.904 25.0724 128.983 25.3028 129.018 25.5547H127.924Z" fill="#1E1E1E"/>
</svg>
