<svg width="55" height="53" viewBox="0 0 55 53" fill="none" xmlns="http://www.w3.org/2000/svg">
<path d="M0.110075 4.0625C0.449658 2.31125 1.98839 0.749583 3.94756 0.167917C4.46027 0.0156249 6.6159 0 26.9726 0C46.8036 0 49.5032 0.0185447 50.044 0.159378C51.678 0.585003 53.0759 1.82042 53.7692 3.45167C53.8484 3.63792 53.9276 3.82417 54.0067 4.01042C54.0159 11.3717 54.0253 18.7325 54.0345 26.0938C54.0617 47.8517 54.0592 48.1871 53.8557 48.8585C53.2953 50.7087 51.6022 52.2588 49.702 52.6615C48.6955 52.8748 5.28881 52.8792 4.29569 52.666C2.93444 52.374 1.69985 51.5223 0.892978 50.3192C-0.0951469 48.8452 -0.0051263 51.2708 0.00779037 26.4229C0.0140404 14.3825 0.0600751 4.32042 0.110075 4.0625ZM47.1144 31.8404C47.0255 31.7515 42.038 31.7504 40.6994 31.8392C40.3609 31.8615 40.0224 31.884 39.6838 31.9065C39.6838 32.804 39.6838 33.7015 39.6838 34.599C39.6838 35.4967 39.6838 36.3942 39.6838 37.2917C38.2428 37.2917 36.8019 37.2917 35.3609 37.2917C33.9199 37.2917 32.479 37.2917 31.038 37.2917C31.038 34.5137 31.038 31.7362 31.038 28.9583C31.038 22.3638 31.0109 20.624 30.9078 20.6202C30.8019 20.6165 24.2988 20.6196 24.0328 20.6237C23.9897 20.6244 23.9547 26.0156 23.9547 32.6042C23.9547 36.5971 23.9547 40.5904 23.9547 44.5833C27.7019 44.5833 31.4493 44.5833 35.1965 44.5833C38.9438 44.5833 42.6911 44.5833 46.4384 44.5833C46.5626 44.4381 46.6868 44.2929 46.8111 44.1479C46.9353 44.0029 47.0594 43.8577 47.1838 43.7125C47.1838 41.7454 47.1838 39.7781 47.1838 37.811C47.1838 34.5654 47.1526 31.8785 47.1144 31.8404ZM47.1144 8.29875C47.0761 8.26042 44.4784 8.22917 41.3415 8.22917C39.4403 8.22917 37.539 8.22917 35.6378 8.22917C35.3172 8.81063 34.9967 9.3925 34.6761 9.97396C33.7761 11.6065 32.513 13.9035 31.7024 15.3815C31.5088 15.7346 31.3505 16.0738 31.3505 16.1354C31.3505 16.2133 32.6219 16.256 35.4911 16.275C36.8713 16.284 38.2515 16.2931 39.6317 16.3021C39.6409 17.4394 39.6501 18.5763 39.6592 19.7135C39.6684 20.8508 39.6774 21.9877 39.6867 23.125C40.9361 23.125 42.1857 23.125 43.4353 23.125C44.6849 23.125 45.9344 23.125 47.1838 23.125C47.1838 20.6656 47.1838 18.206 47.1838 15.7467C47.1838 11.6883 47.1526 8.33688 47.1144 8.29875ZM18.9573 8.33333C14.7896 8.33333 10.6224 8.33333 6.45465 8.33333C6.45465 9.335 6.45465 10.3365 6.45465 11.3381C6.45465 12.9908 6.48527 14.7721 6.52235 15.2965C6.54506 15.6144 6.56758 15.9321 6.59008 16.25C7.69591 16.25 8.80173 16.25 9.90777 16.25C11.0136 16.25 12.1194 16.25 13.2255 16.25C13.2263 20.0085 13.2271 23.7675 13.2282 27.526C13.2288 31.2846 13.2299 35.0435 13.2305 38.8021C14.0197 39.2287 14.8088 39.655 15.598 40.0817C16.8999 40.7854 18.5744 41.7092 19.3192 42.1344C20.064 42.5596 20.7084 42.9096 20.7515 42.9121C20.7947 42.9146 20.8297 36.9167 20.8297 29.5833C20.8297 25.1388 20.8297 20.6946 20.8297 16.25C21.8884 16.25 22.9469 16.25 24.0057 16.25C25.0642 16.25 26.123 16.25 27.1815 16.25C27.3249 15.9652 27.4678 15.6802 27.6111 15.3956C27.8474 14.9256 28.7315 13.2967 29.5761 11.7758C30.4205 10.2548 31.1899 8.85812 31.2857 8.67188C31.3438 8.55917 31.4017 8.44604 31.4599 8.33333C27.2924 8.33333 23.1249 8.33333 18.9573 8.33333Z" fill="#1E2736"/>
<path d="M47.1144 31.8404C47.1526 31.8785 47.1838 34.5654 47.1838 37.811C47.1838 39.7781 47.1838 41.7454 47.1838 43.7125C47.0594 43.8577 46.9353 44.0029 46.8111 44.1479C46.6867 44.2929 46.5626 44.4381 46.4384 44.5833C42.6911 44.5833 38.9438 44.5833 35.1965 44.5833C31.4492 44.5833 27.7019 44.5833 23.9547 44.5833C23.9547 40.5904 23.9547 36.5971 23.9547 32.6042C23.9547 26.0156 23.9897 20.6244 24.0328 20.6238C24.2988 20.6196 30.8019 20.6165 30.9078 20.6202C31.0109 20.624 31.038 22.3638 31.038 28.9583C31.038 31.7363 31.038 34.5138 31.038 37.2917C32.479 37.2917 33.9199 37.2917 35.3609 37.2917C36.8019 37.2917 38.2428 37.2917 39.6838 37.2917C39.6838 36.3942 39.6838 35.4967 39.6838 34.599C39.6838 33.7015 39.6838 32.804 39.6838 31.9065C40.0224 31.884 40.3609 31.8615 40.6994 31.8392C42.038 31.7504 47.0255 31.7515 47.1144 31.8404Z" fill="#5A667D"/>
<path d="M47.1144 8.29876C47.1525 8.33688 47.1838 11.6883 47.1838 15.7467C47.1838 18.206 47.1838 20.6656 47.1838 23.125C45.9344 23.125 44.6848 23.125 43.4352 23.125C42.1857 23.125 40.9361 23.125 39.6867 23.125C39.6773 21.9877 39.6684 20.8508 39.6592 19.7135C39.65 18.5763 39.6409 17.4394 39.6317 16.3021C38.2515 16.2931 36.8713 16.284 35.4911 16.275C32.6219 16.256 31.3505 16.2133 31.3505 16.1354C31.3505 16.0738 31.5088 15.7346 31.7023 15.3815C32.513 13.9035 33.7761 11.6065 34.6761 9.97396C34.9967 9.39251 35.3171 8.81063 35.6378 8.22917C37.539 8.22917 39.4403 8.22917 41.3415 8.22917C44.4784 8.22917 47.0761 8.26042 47.1144 8.29876Z" fill="#5A667D"/>
</svg>
